<svg width="174" height="174" viewBox="0 0 174 174" fill="none" xmlns="http://www.w3.org/2000/svg">
<path d="M86.5724 173.149C38.8383 173.149 0 134.31 0 86.5724C0 38.8346 38.8383 0 86.5724 0C134.307 0 173.145 38.8383 173.145 86.5724C173.145 134.307 134.31 173.149 86.5724 173.149ZM86.5724 11.0049C44.9045 11.0049 11.0049 44.9045 11.0049 86.5724C11.0049 128.24 44.9045 162.14 86.5724 162.14C128.24 162.14 162.14 128.24 162.14 86.5724C162.14 44.9045 128.244 11.0049 86.5724 11.0049Z" fill="#068165"/>
<path d="M69.2736 41.0968L68.0454 41.6344L66.8359 42.2055L65.6451 42.8028L64.4804 43.4337L63.3269 44.1019L62.1958 44.7888L61.0908 45.5093L62.431 46.2708L63.7898 47.0435L66.5261 48.6002L69.2587 50.1606L70.6137 50.9259L71.9576 51.6874L71.5545 52.1428L71.1737 52.6057L70.8079 53.0761L70.4682 53.5539L70.1546 54.0317L69.8597 54.5208L69.5946 55.021L69.3669 55.5361L69.1691 56.0625L69.0086 56.6075L68.8816 57.1637L68.8331 57.4512L68.7958 57.7424L68.7659 58.0373L68.751 58.3396L68.7435 58.6383L68.751 58.9556L68.7659 59.2692L68.7958 59.5939L68.8406 59.915L68.8891 60.2547L69.5274 59.8216L70.1621 59.3961L70.7855 58.978L71.3939 58.5711L72.0099 58.1754L72.6109 57.7872L73.2119 57.4139L73.8092 57.0555L74.4028 56.7008L74.9963 56.3574L75.5899 56.0252L76.1797 55.7116L76.7732 55.4018L77.3668 55.1106L77.9529 54.8231L78.5576 54.5581L79.1512 54.2931L79.7596 54.0504L80.3681 53.819L80.9766 53.5912L81.6038 53.3822L82.2272 53.1843L82.8655 53.0014L83.5039 52.8334L84.1571 52.6804L84.8179 52.5311L85.4898 52.4004L86.173 52.2847L86.871 52.1802L87.5841 52.0906L88.3008 52.0196L89.0437 51.9599L88.6853 51.5717L88.3083 51.1834L87.9126 50.7952L87.5094 50.4107L87.0838 50.0225L86.6433 49.6417L86.1954 49.2609L85.725 48.8764L85.2435 48.5031L84.7507 48.1298L84.2355 47.7565L83.7166 47.3795L83.1716 47.0137L82.6229 46.6478L82.0555 46.2783L81.4768 45.9199L80.8908 45.5615L80.2823 45.1994L79.6663 44.8485L79.0317 44.4976L78.3859 44.1504L77.7252 43.807L77.0607 43.4673L76.385 43.1313L75.6869 42.8028L74.9814 42.478L74.2646 42.1495L73.5367 41.8322L72.7938 41.5187L72.0472 41.2088L71.282 40.899L70.513 40.6003L69.2736 41.0968Z" fill="#E6243E"/>
<path d="M79.2679 117.266C86.3457 115.22 92.8486 112.413 99.3702 109.001C100.3 108.515 101.248 108.049 102.204 107.586C102.148 107.179 102.316 106.753 102.823 106.481C103.947 105.872 105.108 105.346 106.265 104.816C114.224 100.616 120.857 94.5053 128.04 89.182C128.693 88.2712 129.499 87.659 130.504 87.0841C130.817 86.9049 131.265 86.7332 131.758 86.554C132.669 85.9418 133.598 85.352 134.543 84.7846C134.894 84.3963 135.233 83.9894 135.551 83.5228C135.67 83.3473 135.816 83.2204 135.969 83.1308L135.935 82.332L135.86 81.1299L135.752 79.9279L135.614 78.7408L135.446 77.5612L135.256 76.3853L135.028 75.2168L134.77 74.0633L134.483 72.9248L134.173 71.7936L133.837 70.67L133.471 69.5613L133.083 68.4675L132.665 67.3812L132.217 66.3098L131.747 65.2534L131.254 64.2119L130.731 63.1853L130.186 62.1662L129.623 61.1695L129.029 60.1877L128.413 59.2208L127.775 58.2652L127.114 57.3245L126.431 56.3987L125.725 55.4953L124.997 54.6068L124.254 53.7408L123.485 52.8896L123.082 52.4603L123.228 53.793L123.374 55.29L123.441 56.0403L123.485 56.7944L123.523 57.5634L123.545 58.3398V59.1238L123.515 59.9152L123.471 60.729L123.388 61.5502L123.284 62.3939L123.138 63.245L122.963 64.126L122.858 64.574L122.75 65.0219L123.784 66.0037L124.781 66.9855L125.737 67.9822L126.199 68.4825L126.647 68.9901L127.088 69.4978L127.521 70.013L127.939 70.5356L128.342 71.0582L128.738 71.5883L129.119 72.1222L129.492 72.6672L129.85 73.2159L130.194 73.7721L130.53 74.3358L130.851 74.907L131.161 75.4856L131.463 76.0792L131.75 76.6802L132.023 77.2961L132.288 77.9121L132.538 78.5504L132.773 79.1962L132.993 79.8495L133.199 80.5252L133.397 81.2083L133.572 81.9064L133.74 82.6194L133.893 83.3473L133.445 83.6982L132.997 84.0641L132.549 84.4374L132.101 84.7808L131.638 83.5975L131.161 82.4365L130.668 81.3054L130.153 80.1967L129.623 79.1104L129.074 78.0465L128.503 77.0124L127.909 75.9933L127.286 75.004L126.64 74.0335L125.957 73.0778L125.251 72.152L124.501 71.2486L123.732 70.3676L122.918 69.5016L122.5 69.0835L122.067 68.6654L122.104 69.3261L122.157 69.9794L122.224 70.6327L122.298 71.271L122.395 71.9094L122.493 72.5403L122.608 73.1711L122.724 73.7945L122.862 74.4105L123 75.0264L123.321 76.2434L123.672 77.438L124.06 78.6251L124.471 79.8084L124.912 80.9694L125.382 82.1304L125.867 83.2764L126.367 84.4224L126.89 85.561L127.946 87.827L127.308 88.3123L126.662 88.7752L126.016 89.238L125.371 89.7233L124.673 88.3011L123.997 86.8638L123.359 85.4266L122.758 83.9745L122.186 82.5223L121.664 81.0553L121.414 80.3199L121.171 79.5807L120.951 78.8379L120.731 78.0987L120.533 77.3484L120.342 76.598L120.167 75.8402L119.999 75.0899L119.846 74.3321L119.708 73.5706L119.584 72.809L119.472 72.0475L119.375 71.2785L119.293 70.5095L119.226 69.733L119.174 68.9566L119.137 68.1726L119.122 67.3887L119.114 66.6047L119.129 65.8134L112.361 61.1023L112.589 61.7854L112.809 62.4686L113.029 63.1368L113.235 63.7901L113.63 65.0817L113.996 66.3434L114.34 67.5679L114.661 68.7624L114.956 69.9383L115.228 71.0844L115.486 72.2005L115.713 73.3018L115.919 74.3806L116.109 75.4371L116.285 76.4786L116.438 77.5052L116.568 78.5168L116.691 79.521L116.796 80.5102L116.893 81.492L116.968 82.4664L117.035 83.4407L117.095 84.4075L117.139 85.3781L117.192 87.323L117.214 89.2828L117.221 90.2721L117.214 91.2688L117.207 92.2805L117.192 93.307L117.177 94.3486L117.154 95.405L112.97 98.2458L112.873 95.7932L112.783 93.3481L112.686 90.903L112.581 88.4578L112.466 86.0127L112.313 83.5676L112.223 82.3432L112.118 81.1187L112.01 79.8943L111.887 78.6624L111.741 77.4305L111.588 76.2061L111.413 74.9667L111.223 73.7348L111.01 72.4955L110.782 71.2561L110.524 70.0093L110.252 68.7624L109.95 67.5156L109.629 66.2613L109.278 65.007L108.897 63.7453L108.494 62.4835L108.053 61.2143L107.583 59.9376L107.083 58.6609L97.2834 56.3725L101.935 63.6221L102.177 64.238L102.375 64.839L102.536 65.4326L102.659 66.0112L102.749 66.5824L102.801 67.146L102.816 67.6948L102.801 68.2323L102.749 68.7624L102.666 69.2851L102.558 69.7928L102.42 70.2855L102.252 70.7708L102.062 71.2412L101.841 71.7041L101.591 72.152L101.319 72.585L101.031 73.0106L100.714 73.4212L100.378 73.8169L100.027 74.2052L99.6539 74.5785L99.2657 74.9369L98.8625 75.2878L98.4369 75.6237L98.0039 75.9448L97.5559 76.2546L97.0931 76.557L96.6227 76.8444L96.1449 77.1169L95.6521 77.3745L95.1519 77.6172L94.7114 77.8075L94.2858 77.9979L93.8752 78.1958L93.472 78.3862L92.703 78.7819L91.9676 79.185L91.2695 79.5882L90.6163 79.9988L90.0003 80.4169L89.4142 80.835L88.8655 81.2606L88.3429 81.6861L87.8576 82.1266L87.3947 82.5597L86.9542 83.0076L86.5435 83.4556L86.1553 83.9036L85.7895 84.359L85.446 84.8144L85.1138 85.2773L84.7965 85.7477L84.4941 86.218L84.2067 86.6884L83.9267 87.1662L83.3966 88.1219L82.8889 89.0925L82.3962 90.0742L81.8959 91.056L81.3733 92.0527L82.1796 92.3812L82.9636 92.7172L83.7214 93.0681L84.4493 93.4265L85.1623 93.7923L85.8529 94.1656L86.5361 94.5539L87.2043 94.9421L88.5183 95.7559L89.8249 96.5996L91.1464 97.4731L91.822 97.921L92.5052 98.3765L96.8877 95.9388L105.063 89.7532L102.846 94.8525L93.6848 99.8212L94.0058 100.254L94.2933 100.68L94.5509 101.09L94.786 101.508L94.9914 101.934L95.1668 102.367L95.3199 102.815L95.4505 103.285L95.5513 103.778L95.6409 104.308L95.6708 104.581L95.7006 104.868L95.7305 105.171L95.7529 105.48L95.7678 105.798L95.7753 106.134L95.7828 106.477L95.7902 106.835L95.7828 107.209V107.597L95.7753 108L95.7604 108.418L94.5994 109.034L93.4534 109.628L92.3223 110.191L91.1986 110.74L90.0675 111.27L88.9215 111.785L87.7605 112.286L86.5771 112.771L85.3602 113.249L84.7368 113.491L84.0984 113.727L83.4526 113.962L82.7919 114.19L82.1162 114.425L81.4256 114.66L80.72 114.888L79.9996 115.123L79.2567 115.358L78.4989 115.593L77.7224 115.828L76.9236 116.064L76.1098 116.306L75.2661 116.549L65.1757 111.442V110.583L65.1832 109.725L65.1981 108.052L65.2056 107.224L65.1981 106.402L65.1757 105.589L65.1309 104.775L65.0638 103.969L64.9592 103.17L64.836 102.371L64.6681 101.579L64.5635 101.176L64.4553 100.781L64.3321 100.385L64.194 99.9891L64.0484 99.5934L63.8804 99.1977L63.7049 98.802L63.5146 98.4063L70.4878 94.6435L76.9534 92.105L77.2633 91.1867L77.5806 90.3057L77.9016 89.4546L78.2301 88.6333L78.5586 87.8419L78.9095 87.0804L79.2604 86.345L79.6263 85.632L79.9996 84.9488L80.3878 84.2806L80.791 83.6423L81.2016 83.0188L81.6272 82.4178L82.0677 81.8392L82.5231 81.268L82.9934 80.7193L83.4787 80.1855L83.979 79.6628L84.5016 79.1477L85.0466 78.64L85.5954 78.1472L86.174 77.662L86.7675 77.1841L87.3835 76.7138L88.0144 76.2434L88.6751 75.7805L89.3582 75.3176L90.0638 74.8547L90.7917 74.3918L91.5495 73.9215L92.326 73.4511L93.1249 72.9807L93.5878 72.6597L94.0432 72.3088L94.4762 71.9206L94.8868 71.5099L95.2751 71.062L95.4505 70.8268L95.626 70.5841L95.794 70.334L95.947 70.069L96.0926 69.8039L96.2307 69.5314L96.3614 69.244L96.4771 68.9566L96.5816 68.6542L96.6787 68.3443L96.7608 68.0345L96.8355 67.7135L96.8952 67.3849L96.94 67.0415L96.9699 66.6981L96.9848 66.3472V65.9813L96.9773 65.6155L96.9475 65.2347L96.8952 64.8465L96.8355 64.4508L96.7534 64.0476L96.3577 62.924L96.1449 62.3752L95.9246 61.834L95.6969 61.2964L95.4617 60.77L95.2191 60.2474L94.954 59.7397L94.689 59.232L94.4016 58.7318L94.1066 58.2391L93.7968 57.7538L93.4683 57.2834L93.1323 56.8056L92.7814 56.3427L92.4081 55.8873L91.7026 55.8947L91.0194 55.9097L90.3512 55.9246L89.6979 55.9544L89.0521 55.9843L88.4287 56.0216L87.8128 56.0739L87.2118 56.1262L86.6107 56.1934L86.0247 56.268L85.446 56.3427L84.8749 56.4397L83.7363 56.6451L82.6127 56.8877L82.0565 57.0258L81.5002 57.1789L80.9366 57.3394L80.3729 57.5074L79.8017 57.6978L79.2306 57.8956L78.6519 58.1009L78.0584 58.3286L77.4648 58.5638L76.8638 58.8139L76.2404 59.079L75.617 59.359L74.9712 59.6539L74.3179 59.9637L73.6497 60.2885L72.9591 60.6245L70.2303 62.4462L67.5014 64.2529L68.2443 64.8241L68.9797 65.4027L70.402 66.5712L71.7981 67.7545L73.1644 68.9566L74.5083 70.1661L75.8298 71.3905L77.1363 72.6224L78.4354 73.8692L75.7215 89.1485L63.0255 95.9314L57.5641 90.7649L52.7933 85.393L56.2202 69.5986L61.2411 65.8246L64.8734 63.8199L65.0936 62.3678L65.2243 61.6324L65.3549 60.897L65.508 60.1541L65.6685 59.4187L65.844 58.6758L66.0418 57.9329L66.2546 57.1826L66.4898 56.4397L66.7399 55.6969L67.0124 54.9465L67.3148 54.2037L67.6358 53.4608L67.9792 52.7179L68.3525 51.975L59.4717 46.6182L58.4899 47.3536L57.5268 48.1151L56.5861 48.899L55.6677 49.7054L54.7718 50.5341L53.8908 51.3927L53.0397 52.2662L52.211 53.1621L51.4046 54.0805L50.6207 55.0137L49.8592 55.9768L49.1238 56.9512L48.4108 57.9404L47.7201 58.9521L47.0594 59.9861L46.4285 61.0351L46.9922 61.483L47.5223 61.8638L48.0375 62.2595L48.5228 62.6627L48.9931 63.0733L49.4411 63.5063L49.8666 63.9394L50.2847 64.3948L50.673 64.8652L51.0537 65.343L51.4196 65.8432L51.763 66.3584L52.099 66.8922L52.42 67.4409L52.7373 68.0121L53.0397 68.6056L53.3346 69.2141L53.0546 70.2556L52.7896 71.3121L52.5469 72.3685L52.3192 73.4399L52.1064 74.5113L51.9161 75.5901L51.7331 76.6764L51.5652 77.7702L51.4121 78.8715L51.274 79.9652L51.1508 81.0739L51.0351 82.1826L50.9343 83.2913L50.8372 84.4001L50.6842 86.6249L42.759 97.6933L42.0684 98.6564L42.4566 99.8734L42.8822 101.068L43.3376 102.255L43.8229 103.424L44.3455 104.584L44.8905 105.723L45.4617 106.847L46.0702 107.948L46.701 109.034L47.3618 110.106L48.0524 111.155L48.7729 112.181L49.5157 113.193L50.2773 114.182L51.0687 115.153L51.8899 116.101L51.9347 116.056H51.9273L52.3155 115.735L52.9389 115.384L53.5474 115.067L54.1409 114.772L54.7345 114.507L55.3206 114.264L55.9067 114.044L56.4927 113.846L57.0863 113.663L57.6798 113.495L58.2883 113.35L58.9043 113.204L59.5352 113.073L60.181 112.95L60.8492 112.834L61.5323 112.719L62.2453 112.603L62.9359 112.816L63.6191 113.036L64.3022 113.271L64.9704 113.529L65.6386 113.786L66.2919 114.066L66.9377 114.354L67.5761 114.649L68.1995 114.959L68.8154 115.276L69.4165 115.604L70.0025 115.948L70.5812 116.291L71.1448 116.65L71.6936 117.015L72.2274 117.389L71.1859 117.676L70.1593 117.941L69.1551 118.191L68.1659 118.419L67.1766 118.624L66.2023 118.807L65.2131 118.975L64.2238 119.128L63.2271 119.259L62.208 119.375L61.174 119.479L60.1175 119.569L59.0237 119.643L57.9001 119.703L56.7317 119.748L56.1381 119.77L55.5296 119.785L55.5222 119.793L56.3285 120.513L57.1572 121.219L57.6724 121.637H57.6761C61.3681 120.808 65.1608 120.965 68.8565 120.2C72.3805 119.472 75.8335 118.259 79.2679 117.266Z" fill="#E6243E"/>
<path d="M125.658 105.951C122.474 109.172 118.64 111.39 114.799 113.73C110.67 116.246 106.59 118.788 102.222 120.879C94.0583 124.787 85.1625 128.502 76.3525 130.853L76.9573 130.999L78.1332 131.249L79.3091 131.469L80.5037 131.667L81.6982 131.828L82.9077 131.966L84.1247 132.07L85.3491 132.153L86.5885 132.197L87.8278 132.212L89.0672 132.197L90.3066 132.153L91.531 132.07L92.748 131.966L93.9575 131.828L95.1595 131.667L96.3466 131.469L97.53 131.249L98.6984 130.999L99.8594 130.719L101.013 130.409L102.151 130.073L103.275 129.715L104.391 129.334L105.492 128.924L105.612 128.875L105.478 128.55L105.28 128.087L105.089 127.647L104.899 127.214L104.503 126.363L104.29 125.952L104.07 125.534L103.835 125.108L103.577 124.683L103.297 124.25L103.003 123.802L102.674 123.339L102.323 122.861L101.935 122.361L101.73 122.103L101.509 121.838L103.331 120.883L103.757 121.603L104.19 122.309L105.086 123.716L105.511 124.429L105.914 125.157L106.105 125.523L106.288 125.896L106.456 126.284L106.609 126.673L107.116 125.624L107.594 124.56L108.05 123.473L108.483 122.35L108.893 121.196L109.084 120.61L109.274 120.009L109.457 119.401L109.64 118.777L109.815 118.146L109.983 117.5L113.69 115.22L113.104 116.814L112.503 118.4L111.887 119.972L111.249 121.551L110.573 123.122L110.215 123.914L109.849 124.713L109.468 125.512L109.072 126.31L108.662 127.124L108.363 127.695L108.714 127.535L109.763 127.02L110.79 126.482L111.809 125.926L112.805 125.347L113.795 124.739L114.765 124.108L115.714 123.462L116.654 122.786L117.573 122.096L118.476 121.375L119.357 120.64L120.223 119.886L121.067 119.117L121.895 118.318L122.702 117.504L123.486 116.675L124.255 115.824L124.998 114.951L125.725 114.07L126.431 113.159L127.114 112.241L127.775 111.3L128.413 110.344L129.029 109.374L129.623 108.392L130.186 107.388L130.731 106.376L131.254 105.349L131.747 104.301L132.217 103.244L132.665 102.18L133.083 101.094L133.471 100L133.826 98.9287C131.138 100.847 128.566 102.908 126.009 104.995C126.046 105.308 125.953 105.648 125.658 105.951Z" fill="#E6243E"/>
<path d="M74.3516 39.3013L75.8634 39.9845L77.3305 40.6602L78.764 41.3321L80.1564 42.0078L81.5152 42.6909L82.8367 43.389L84.1209 44.1057L84.7443 44.4753L85.3602 44.8486L85.9687 45.2294L86.5735 45.6213L87.167 46.017L87.7456 46.4202L88.3243 46.8383L88.8917 47.2639L89.4479 47.6969L89.9929 48.1449L90.5342 48.6078L91.0643 49.0819L91.5906 49.5672L92.1058 50.0748L92.6135 50.5863L93.11 51.1164L93.5953 51.6651L94.0806 52.2325L94.8869 52.2923L95.6634 52.3632L96.4137 52.4453L97.1342 52.5312L97.836 52.6357L98.5266 52.7439L99.1948 52.8634L99.8555 52.9866L101.155 53.2666L102.446 53.5764L103.1 53.7444L103.768 53.9124L104.436 54.0953L105.127 54.2782L104.802 53.6324L104.477 53.009L103.839 51.7771L103.182 50.5863L102.513 49.4365L102.166 48.8765L101.815 48.3203L101.457 47.779L101.08 47.234L100.699 46.7039L100.311 46.1776L99.9078 45.6549L99.4897 45.1435L99.0641 44.6358L98.6162 44.1281L98.1533 43.6316L97.6755 43.1389L97.1752 42.6461L96.6638 42.1646L96.1263 41.6793L95.57 41.194L94.9877 40.7162L94.3867 40.2383L93.7633 39.7642L93.11 39.2864L92.4343 38.8086L91.7325 38.3382L90.9971 37.8604L90.2841 37.4124L89.0746 37.3714L87.8352 37.3564L86.5921 37.3714L85.4797 37.4087L85.3901 37.4124L85.0653 37.4348L84.2814 37.4834L83.6356 37.5394L82.7695 37.629L81.9035 37.7223L81.0449 37.8417L80.1863 37.9724L79.3351 38.118L78.4915 38.2785L77.6553 38.4577L76.8191 38.6481L75.9904 38.8534L75.1654 39.0662L74.3516 39.3013Z" fill="#E6243E"/>
<path d="M117.572 47.4695L116.653 46.7715L115.712 46.1033L114.768 45.45L113.797 44.8266L112.808 44.2181L111.808 43.6395L110.789 43.0795L109.762 42.5457L108.713 42.0305L107.657 41.5452L106.585 41.0861L105.499 40.6456L104.398 40.2312L103.282 39.843L102.158 39.4846L101.023 39.1561L99.8696 38.8463L98.7086 38.5663L97.5439 38.3162L96.3605 38.0959L95.4385 37.9429L96.1478 38.5066L96.9056 39.1262L97.6223 39.7273L98.3129 40.3208L98.9736 40.9069L99.6045 41.4892L100.213 42.0604L100.795 42.6241L101.344 43.184L101.882 43.7402L102.393 44.3002L102.878 44.849L103.356 45.394L103.804 45.9427L104.245 46.4915L104.67 47.0365L105.073 47.5853L105.469 48.1377L105.85 48.694L106.223 49.2539L106.944 50.3813L107.642 51.5348L108.325 52.7256L109.001 53.9501L109.336 54.5735L109.68 55.2118L110.027 55.8651L110.378 56.5333L111.031 56.8133L111.677 57.097L112.308 57.3994L112.931 57.7129L113.54 58.0452L114.145 58.3737L114.738 58.7283L115.324 59.0792L116.485 59.8221L117.631 60.5986L118.774 61.3974L119.927 62.2224L120.073 61.7894L120.2 61.3564L120.315 60.9308L120.42 60.5015L120.506 60.0759L120.58 59.6504L120.648 59.2248L120.689 58.7992L120.726 58.3812L120.756 57.9556L120.763 57.5375L120.771 57.1119L120.756 56.6864L120.733 56.2683L120.659 55.4171L120.543 54.5585L120.382 53.6925L120.185 52.819L119.949 51.938L119.684 51.0346L119.382 50.1274L119.054 49.2017L118.755 48.414L118.475 48.1825L117.572 47.4695Z" fill="#E6243E"/>
<path fill-rule="evenodd" clip-rule="evenodd" d="M146.993 73.6677L146.948 72.9659L146.874 72.2753L146.788 71.5921L146.668 70.9314L146.53 70.2856L146.37 69.6622L146.187 69.0537L145.981 68.4601L145.761 67.8853L145.511 67.3365L145.246 66.8064L144.959 66.295L144.66 65.8097L144.563 65.7724L144.485 65.7425L144.32 65.7126L144.175 65.7201L144.044 65.7574L143.932 65.8246L143.831 65.918L143.742 66.03L143.667 66.1531L143.604 66.295L143.544 66.4481L143.454 66.7654L143.398 67.0715L143.376 67.2096L143.353 67.344L143.256 67.945L143.156 68.5161L143.044 69.0686L142.928 69.595L142.808 70.1101L142.685 70.6029L142.558 71.0807L142.42 71.5474L142.14 72.4507L141.842 73.3467L141.517 74.2426L141.181 75.1609L140.923 75.7395L140.636 76.3032L140.322 76.8632L139.983 77.397L139.617 77.9271L139.228 78.4385L138.825 78.9462L138.392 79.439L137.944 79.9242L137.481 80.3983L136.996 80.8612L136.5 81.3167L135.984 81.7721L135.462 82.2126L134.928 82.6531L134.383 83.0786L133.271 83.9298L132.132 84.7585L129.825 86.401L128.683 87.226L127.559 88.0473L126.458 88.8835L125.924 89.3091L125.401 89.7346L104.631 103.789L104.317 103.995L103.992 104.2L103.309 104.618L102.593 105.051L101.827 105.492L101.028 105.947L100.2 106.403L99.3337 106.865L98.4303 107.332L97.497 107.81L96.5376 108.288L95.5372 108.766L94.5181 109.251L93.4766 109.725L92.4052 110.21L91.3114 110.696L90.1952 111.173L89.0567 111.647L87.8994 112.118L86.7235 112.588L85.5364 113.051L84.3307 113.506L83.1137 113.954L81.8818 114.395L80.635 114.82L79.3844 115.239L78.1227 115.649L76.8534 116.037L75.5842 116.418L74.3075 116.788L73.0308 117.139L71.7467 117.475L70.47 117.792L69.1858 118.094L67.9128 118.371L66.6362 118.636L65.3744 118.878L64.1126 119.099L62.8658 119.289L61.6264 119.464L60.3908 119.614L59.1813 119.729L57.9755 119.826L56.7884 119.89L55.62 119.935L54.4702 119.942L53.3317 119.92L52.223 119.868L51.1367 119.782L50.0727 119.662L49.0312 119.517L48.5161 119.427L48.0196 119.326L47.5194 119.222L47.0341 119.106L46.5488 118.979L46.0747 118.841L45.6118 118.703L45.1489 118.546L44.7009 118.378L44.253 118.21L43.8199 118.027L43.3944 117.829L42.9763 117.631L42.5731 117.419L42.1699 117.191L41.7817 116.956L41.4047 116.713L41.0314 116.456L40.673 116.183L40.3184 115.907L39.9824 115.619L39.6501 115.317L39.3291 115.003L39.0193 114.679L38.7206 114.35L38.4332 113.999L38.1532 113.645L37.8919 113.271L37.6269 112.786L37.3917 112.308L37.2013 111.842L37.0445 111.379L36.9288 110.923L36.8429 110.468L36.7907 110.027L36.7608 109.587L36.7683 109.161L36.8056 108.728L36.8616 108.31L36.9437 107.892L37.0557 107.481L37.1864 107.078L37.3394 106.675L37.5149 106.276L37.7052 105.88L37.9106 105.484L38.1383 105.096L38.3735 104.708L38.631 104.323L38.8961 103.942L39.4523 103.188L40.0496 102.438L40.6581 101.691L41.8974 100.202L41.6772 99.3845L41.4569 98.5557L41.0463 96.8759L40.6655 95.1811L40.4901 94.3225L40.4565 94.1433L40.4677 94.2105L40.505 94.4084L40.5461 94.6286L40.5909 94.8563L40.6357 95.099L40.6805 95.3565L40.7365 95.6291L40.7887 95.9202L40.8484 96.2301L40.5311 96.6108L40.2026 97.014L39.8629 97.4321L39.512 97.8651L39.1537 98.3131L38.7841 98.776L38.4182 99.2538L38.0524 99.7391L37.317 100.751L36.6077 101.8L36.2606 102.337L35.9246 102.871L35.5998 103.424L35.3012 103.972L35.0063 104.529L34.7412 105.089L34.4911 105.645L34.2634 106.205L34.0655 106.761L33.8901 107.317L33.752 107.87L33.6325 108.426L33.5616 108.971L33.5168 109.512L33.5093 110.05L33.5467 110.576L33.6176 111.099L33.6698 111.356L33.737 111.606L33.8154 111.856L33.905 112.103L34.0096 112.353L34.1178 112.596L34.3679 113.066L34.6255 113.529L34.8943 113.977L35.1817 114.41L35.4841 114.828L35.7902 115.231L36.115 115.619L36.4435 116L36.7907 116.37L37.1416 116.721L37.5074 117.064L37.8844 117.389L38.2727 117.71L38.6684 118.012L39.0715 118.307L39.4896 118.583L39.9227 118.856L40.3557 119.113L40.8036 119.356L41.2591 119.591L41.722 119.819L42.1998 120.032L42.6739 120.23L43.1667 120.42L43.6669 120.603L44.1746 120.771L44.686 120.924L45.2086 121.073L45.735 121.211L46.2725 121.342L46.8138 121.462L47.3663 121.57L47.9225 121.667L48.4899 121.756L49.0611 121.835L49.6322 121.91L50.8081 122.025L51.9952 122.107L53.2085 122.152L54.4404 122.167L55.6947 122.145L56.9564 122.092L58.2331 122.01L59.5247 121.91L60.8313 121.771L62.1453 121.607L63.4668 121.417L64.7958 121.204L66.1322 120.969L67.4649 120.704L68.8088 120.427L70.1527 120.125L71.4891 119.812L72.8255 119.472L74.1582 119.113L75.4871 118.748L76.8086 118.356L78.1152 117.96L79.4217 117.542L80.7059 117.124L81.9826 116.683L83.2444 116.243L84.4949 115.787L85.7194 115.324L86.9288 114.865L88.1122 114.395L89.2769 113.917L90.4155 113.432L91.5317 112.954L92.618 112.472L93.6819 111.987L94.7085 111.509L95.7089 111.031L96.6683 110.557L97.6015 110.087L98.49 109.617L99.3486 109.161L100.162 108.706L100.931 108.265L101.308 108.045L101.667 107.832L102.01 107.62L102.357 107.407L102.678 107.201L102.996 106.996L104.426 106.108L105.87 105.197L107.326 104.275L108.786 103.334L110.245 102.378L111.712 101.411L114.635 99.4517L116.08 98.4699L117.513 97.4844L118.936 96.4951L120.336 95.5096L121.717 94.5278L123.076 93.5498L124.405 92.5829L125.704 91.6273L126.965 90.6903L128.19 89.7645L128.791 89.3091L129.381 88.8536L129.959 88.4057L130.523 87.9652L131.083 87.5321L131.624 87.0991L132.154 86.6735L132.673 86.2554L133.181 85.8448L133.674 85.4416L134.148 85.0459L134.611 84.6577L135.059 84.2732L135.492 83.8999L135.91 83.5341L136.313 83.172L136.705 82.8211L137.071 82.4851L137.422 82.1529L137.761 81.8393L138.075 81.522L138.377 81.2196L138.657 80.9359L138.919 80.6559L139.161 80.3834L139.389 80.1296L139.587 79.8869L139.77 79.6517L140.087 79.2112L140.397 78.7633L140.681 78.3004L140.961 77.8226L141.233 77.3261L141.494 76.8034L141.752 76.2547L142.002 75.6723L142.252 75.0639L142.502 74.418L142.752 73.7424L143.006 73.0182L143.133 72.6411L143.264 72.2529L143.398 71.8572L143.529 71.4466L143.667 71.021L143.801 70.588L143.947 70.14L144.085 69.6771L144.1 69.6099L144.122 69.5315L144.152 69.3411L144.175 69.1134L144.197 68.8558L144.242 68.3108L144.264 68.0495L144.29 67.7919L144.32 67.5642L144.358 67.3738L144.38 67.2917L144.402 67.2245L144.432 67.176L144.462 67.1387L144.488 67.1163H144.526L144.563 67.1312L144.6 67.1685L144.645 67.232L144.697 67.3141L144.738 67.4224L144.798 67.5568L144.951 67.7994L145.093 68.057L145.224 68.3258L145.351 68.6057L145.466 68.9006L145.578 69.2068L145.672 69.5166L145.761 69.8451L145.84 70.1848L145.907 70.5282L145.967 70.8791L146.023 71.2487L146.067 71.622L146.097 72.0028L146.127 72.3985L146.142 72.7979L146.149 73.2085V73.6192L146.142 74.0373L146.12 74.4703L146.052 75.3438L145.959 76.2398L145.825 77.1469L145.657 78.0801L145.459 79.0283L145.216 79.9877L144.951 80.9508L144.645 81.9251L144.305 82.8957L143.94 83.87L143.536 84.8481L143.096 85.8075L142.626 86.7706L142.122 87.7151L141.584 88.6558L141.02 89.5741L140.416 90.47L139.785 91.351L139.116 92.2021L138.43 93.0309L138.067 93.4266L137.694 93.8223L137.321 94.2105L136.94 94.5875L136.388 95.196L135.861 95.7821L135.346 96.3383L134.853 96.8833L134.368 97.3985L133.909 97.895L133.453 98.3728L133.013 98.8357L132.58 99.2762L132.154 99.7092L131.744 100.12L131.341 100.523L130.934 100.911L130.538 101.292L129.747 102.027L128.959 102.74L128.168 103.431L127.361 104.118L126.518 104.809L126.085 105.163L125.644 105.522L125.189 105.88L124.718 106.249L124.233 106.63L123.736 107.018L123.221 107.414L122.687 107.825L121.198 108.844L119.72 109.844L118.238 110.811L116.771 111.752L115.311 112.67L113.851 113.559L112.403 114.417L110.958 115.261L109.521 116.067L108.095 116.859L106.673 117.624L105.262 118.363L103.862 119.084L102.473 119.774L101.088 120.45L99.7219 121.096L98.3556 121.727L97.008 122.328L95.6716 122.914L94.3426 123.474L93.0286 124.015L91.7221 124.545L90.4379 125.042L89.1612 125.527L87.892 125.997L86.6451 126.438L85.4095 126.871L84.1925 127.281L82.9831 127.67L81.7922 128.05L80.62 128.405L79.4665 128.748L78.3205 129.081L77.1969 129.387L76.0919 129.682L74.9981 129.969L73.9267 130.23L72.8666 130.481L71.8325 130.723L70.8209 130.943L69.8242 131.156L68.8461 131.362L67.8867 131.544L66.9535 131.72L66.0351 131.884L65.1392 132.037L64.2657 132.175L63.4146 132.31L62.5858 132.433L61.7795 132.545L60.9993 132.646L60.2378 132.743L59.5023 132.821L58.7931 132.903L58.1025 132.97L57.4417 133.034L56.8034 133.086L56.1949 133.131L55.6088 133.176L55.0489 133.213L54.515 133.239L54.0073 133.262L53.5295 133.284L53.0816 133.299L52.5552 133.329L52.0176 133.351L50.9164 133.381L49.7778 133.396L48.6131 133.389L47.4223 133.359L46.2128 133.299L44.9958 133.213L43.7602 133.094L42.5208 132.948L41.2889 132.765L40.057 132.552L38.8363 132.295L38.2279 132.145L37.6269 131.992L37.0333 131.832L36.436 131.656L35.8499 131.466L35.2713 131.268L34.6964 131.059L34.1402 130.843L33.584 130.607L33.0315 130.357L32.4977 130.1L31.9676 129.827L31.4524 129.54L30.9485 129.241L30.4557 128.931L29.9704 128.603L29.5075 128.263L29.0558 127.905L28.6153 127.539L28.1898 127.151L27.7829 126.751L27.3872 126.333L27.0139 125.9L26.6555 125.452L26.3083 124.993L25.9948 124.508L25.6849 124.007L25.4049 123.496L25.1436 122.966L24.901 122.417L24.6807 121.842L24.4829 121.256L24.3074 120.655L24.1506 120.032L24.02 119.386L23.9155 118.725L23.8371 118.042L23.7848 117.337L23.7549 116.616V115.877L23.8445 115.171L23.9453 114.458L24.0723 113.742L24.2029 113.029L24.3634 112.301L24.5389 111.577L24.733 110.841L24.9532 110.102L25.1922 109.359L25.4572 108.612L25.7521 107.847L26.0732 107.086L26.4203 106.305L26.7936 105.529L27.1968 104.734L27.6298 103.935L28.1002 103.129L28.6004 102.307L29.1342 101.479L29.7091 100.639L30.3101 99.7876L30.9559 98.9216L31.6391 98.0518L32.3633 97.1633L33.1286 96.2599L33.5243 95.8045L33.9349 95.3491L34.353 94.8862L34.786 94.4158L35.2265 93.9455L35.6819 93.4788L36.1448 93.001L36.6189 92.5157L37.1042 92.0379L37.6045 91.5489L38.1196 91.0561L38.6385 90.5634L39.1761 90.0669L39.7248 89.5592L39.7547 89.7682L39.6949 89.2867L39.6165 88.4729L39.5494 87.6815L39.5046 86.8938L38.9558 87.4015L38.4182 87.9017L37.8994 88.3907L37.3767 88.8835L36.8765 89.3762L36.3875 89.8578L35.9022 90.3356L35.4318 90.8135L34.9764 91.2913L34.5284 91.7616L33.6549 92.6837L32.8337 93.5946L32.0497 94.4979L31.2994 95.3789L30.5864 96.245L29.9144 97.1036L29.2761 97.9398L28.6713 98.7611L28.1002 99.5748L27.5626 100.377L27.0587 101.154L26.5808 101.927L26.1329 102.681L25.7148 103.424L25.3191 104.148L24.9607 104.868L24.6135 105.566L24.3 106.253L24.0125 106.929L23.74 107.59L23.4899 108.235L23.2622 108.874L23.0494 109.497L22.859 110.109L22.6836 110.703L22.5305 111.289L22.3812 111.86L22.2132 112.779L22.0826 113.674L21.978 114.541L21.9146 115.392L21.8698 116.213L21.8623 117.023L21.8847 117.807L21.937 118.561L22.0154 119.304L22.1199 120.024L22.2505 120.719L22.4111 121.402L22.6014 122.055L22.8142 122.693L23.0494 123.317L23.3144 123.922L23.6019 124.5L23.908 125.056L24.2402 125.601L24.5911 126.128L24.9719 126.636L25.3713 127.128L25.7894 127.606L26.2225 128.058L26.6779 128.498L27.152 128.916L27.6448 129.327L28.1524 129.719L28.6788 130.092L29.2238 130.451L29.78 130.798L30.3549 131.126L30.941 131.444L31.542 131.742L32.158 132.03L32.7814 132.31L33.4272 132.564L34.073 132.814L34.7412 133.049L35.4094 133.269L36.0926 133.474L36.7832 133.672L37.485 133.859L38.1905 134.034L38.9035 134.195L39.6315 134.348L40.3557 134.49L41.0911 134.62L42.5731 134.848L44.07 135.046L45.5744 135.199L47.0863 135.326L48.5982 135.412L50.1101 135.472L51.6145 135.509L53.104 135.516L55.3139 135.251L57.4865 134.979L59.6293 134.703L61.7347 134.408L63.8177 134.09L65.8895 133.762L67.9352 133.403L69.9772 133.019L72.0042 132.608L74.0275 132.16L76.0471 131.679L78.0704 131.149L79.0932 130.869L80.1049 130.585L81.1315 130.283L82.1506 129.969L83.1809 129.644L84.2149 129.308L85.249 128.954L86.2905 128.588L87.3395 128.207L88.3997 127.811L89.4636 127.397L90.5275 126.971L91.6063 126.531L92.6926 126.079L93.7864 125.609L94.8839 125.116L96.0001 124.601L97.1237 124.082L98.2623 123.537L99.4046 122.973L100.566 122.395L101.734 121.79L102.914 121.167L104.112 120.528L105.321 119.86L106.546 119.181L107.789 118.475L109.043 117.747L110.312 117.001L111.597 116.228L112.903 115.429L114.225 114.615L115.569 113.772L116.924 112.898L118.297 112.01L119.69 111.091L121.108 110.143L122.546 109.176L124.005 108.179L125.483 107.157L126.193 106.6L126.898 106.04L127.581 105.492L128.25 104.935L128.903 104.383L129.549 103.834L130.18 103.274L130.796 102.726L131.397 102.173L131.99 101.617L132.572 101.064L133.136 100.508L134.245 99.3919L135.309 98.2683L136.335 97.1409L137.328 95.9874L138.28 94.8265L139.214 93.6543L140.117 92.456L140.998 91.2465L141.857 90.0071L142.7 88.7454L143.2 87.9129L143.66 87.0842L144.093 86.2554L144.488 85.4342L144.858 84.6055L145.194 83.7842L145.504 82.9592L145.784 82.1454L146.03 81.3391L146.25 80.5327L146.444 79.7301L146.605 78.9462L146.736 78.1623L146.848 77.3821L146.926 76.6205L146.986 75.8627L147.008 75.1236L147.016 74.3882L146.993 73.6677Z" fill="#068165"/>
<path fill-rule="evenodd" clip-rule="evenodd" d="M42.1326 120.01L42.1624 119.935L42.8232 120.208L43.4914 120.465L44.182 120.693L44.8875 120.913L45.6043 121.103L46.3397 121.279L47.0826 121.439L47.8366 121.578L47.8217 121.652L47.8142 121.734L47.0527 121.592L46.3024 121.432L45.5632 121.257L44.8427 121.059L44.1297 120.846L43.4391 120.603L42.7672 120.353L42.1064 120.073L42.1326 120.01Z" fill="#068165"/>
<path fill-rule="evenodd" clip-rule="evenodd" d="M47.8219 121.652L47.8369 121.577L48.6059 121.697L49.3935 121.805L50.1849 121.887L50.9838 121.962L51.8013 122.018L52.6301 122.055L53.4588 122.078L54.3024 122.085V122.167V122.238L53.4588 122.231L52.6226 122.208L51.7939 122.175L50.9689 122.115L50.1625 122.04L49.3711 121.962L48.5872 121.85L47.8145 121.734L47.8219 121.652Z" fill="#068165"/>
<path fill-rule="evenodd" clip-rule="evenodd" d="M54.3027 122.167V122.085L55.1165 122.078L55.9453 122.055L56.7777 122.025L57.6139 121.977L58.4576 121.917L59.3087 121.843L60.1598 121.764L61.0259 121.667L61.8845 121.559L62.7506 121.439L63.6241 121.316L64.4976 121.174L66.2521 120.868L68.0066 120.514L69.7649 120.133L71.5269 119.715L73.2889 119.267L75.0359 118.789L76.7755 118.285L78.4927 117.755L80.2024 117.206L81.8823 116.639L81.9047 116.713L81.9345 116.781L80.2472 117.352L78.545 117.9L76.8203 118.431L75.0732 118.938L73.3262 119.412L71.5642 119.86L69.7948 120.278L68.0328 120.67L66.2745 121.014L64.5125 121.331L63.639 121.469L62.7655 121.592L61.8994 121.712L61.0334 121.82L60.1748 121.917L59.3162 121.996L58.465 122.07L57.6214 122.13L56.7852 122.182L55.9453 122.208L55.124 122.231L54.3027 122.238V122.167Z" fill="#068165"/>
<path fill-rule="evenodd" clip-rule="evenodd" d="M81.9052 116.713L81.8828 116.638L83.544 116.052L85.1716 115.451L86.7656 114.843L88.3185 114.223L89.8379 113.592L90.5808 113.278L91.3162 112.961L92.0329 112.648L92.7459 112.323L93.444 112.009L94.1234 111.692L94.1607 111.759L94.1906 111.834L93.5075 112.147L92.8131 112.465L92.1001 112.786L91.3796 113.103L90.648 113.417L89.8976 113.734L88.3783 114.365L86.8141 114.981L85.2239 115.589L83.5925 116.19L81.9351 116.78L81.9052 116.713Z" fill="#068165"/>
<path fill-rule="evenodd" clip-rule="evenodd" d="M94.1614 111.76L94.124 111.693L94.7922 111.379L95.453 111.062L96.0913 110.748L96.7222 110.438L97.3344 110.125L97.928 109.815L98.5141 109.513L99.074 109.214L99.6228 108.912L100.153 108.62L100.664 108.326L101.157 108.031L101.635 107.754L102.09 107.474L102.523 107.202L102.941 106.929L102.982 106.997L103.027 107.064L102.609 107.333L102.176 107.605L101.713 107.885L101.239 108.173L100.746 108.456L100.231 108.751L99.7049 109.046L99.1524 109.345L98.5887 109.647L98.0101 109.953L97.4054 110.263L96.7894 110.577L96.166 110.886L95.5202 111.204L94.8669 111.517L94.1912 111.835L94.1614 111.76Z" fill="#068165"/>
<path fill-rule="evenodd" clip-rule="evenodd" d="M102.941 106.929L102.984 106.998L102.941 106.929Z" fill="white"/>
<path fill-rule="evenodd" clip-rule="evenodd" d="M102.982 106.996L102.941 106.929L104.371 106.04L105.816 105.133L107.272 104.207L108.731 103.267L110.198 102.315L111.658 101.344L114.581 99.3917L116.026 98.4025L117.455 97.4169L118.881 96.4277L120.281 95.4459L121.662 94.4604L123.021 93.4935L124.347 92.523L125.646 91.571L125.69 91.627L125.735 91.6942L124.436 92.6499L123.107 93.6167L121.748 94.5873L120.371 95.5691L118.967 96.5509L117.545 97.5439L116.108 98.5331L114.659 99.5186L111.748 101.478L110.281 102.438L108.817 103.401L107.358 104.338L105.905 105.264L104.461 106.175L103.027 107.063L102.982 106.996Z" fill="#068165"/>
<path fill-rule="evenodd" clip-rule="evenodd" d="M125.688 91.6269L125.644 91.5709L126.909 90.6302L128.133 89.697L128.735 89.2415L129.321 88.7936L129.903 88.3456L130.467 87.9051L131.015 87.4684L131.56 87.0428L132.094 86.6135L132.609 86.1954L133.117 85.7848L133.606 85.3816L134.084 84.9859L134.547 84.5977L134.599 84.6574L134.651 84.7134L134.188 85.1053L133.711 85.501L133.218 85.9042L132.714 86.3148L132.191 86.7329L131.665 87.1585L131.112 87.5915L130.564 88.0246L129.989 88.4651L129.418 88.913L128.824 89.3685L128.227 89.8239L126.995 90.7534L125.733 91.6941L125.688 91.6269Z" fill="#068165"/>
<path fill-rule="evenodd" clip-rule="evenodd" d="M134.601 84.6575L134.549 84.5977L134.997 84.217L135.43 83.8399L135.848 83.4741L136.251 83.1157L136.639 82.7685L137.009 82.4326L137.36 82.1003L137.7 81.7793L137.748 81.839L137.8 81.8876L137.464 82.2123L137.11 82.5408L136.744 82.8805L136.356 83.2314L135.952 83.5898L135.534 83.9594L135.101 84.3327L134.653 84.7135L134.601 84.6575Z" fill="#068165"/>
<path fill-rule="evenodd" clip-rule="evenodd" d="M137.747 81.8394L137.698 81.7797L138.012 81.4698L138.314 81.1712L138.59 80.8837L138.848 80.6038L138.908 80.656L138.967 80.7083L138.702 80.9883L138.422 81.2794L138.124 81.5818L137.799 81.8879L137.747 81.8394Z" fill="#068165"/>
<path fill-rule="evenodd" clip-rule="evenodd" d="M138.907 80.6562L138.848 80.6039L139.09 80.3351L139.318 80.085L139.516 79.8424L139.699 79.6072L139.759 79.652L139.818 79.6968L139.635 79.9282L139.434 80.1783L139.21 80.4359L138.967 80.7084L138.907 80.6562Z" fill="#068165"/>
<path fill-rule="evenodd" clip-rule="evenodd" d="M139.82 79.6976L139.759 79.6516L139.82 79.6976Z" fill="white"/>
<path fill-rule="evenodd" clip-rule="evenodd" d="M139.759 79.6521L139.699 79.6073L140.017 79.1743L140.315 78.7263L140.61 78.2634L140.89 77.7856L141.155 77.2891L141.409 76.7665L141.666 76.2177L141.917 75.6428L141.991 75.6727L142.062 75.7025L141.805 76.2812L141.551 76.8337L141.286 77.36L141.013 77.8602L140.733 78.3455L140.442 78.8084L140.14 79.2564L139.819 79.6969L139.759 79.6521Z" fill="#068165"/>
<path fill-rule="evenodd" clip-rule="evenodd" d="M141.991 75.6729L141.916 75.6431L142.166 75.0346L142.424 74.3962L142.67 73.7131L142.92 72.9963L142.995 73.0187L143.07 73.0449L142.812 73.7653L142.562 74.4485L142.312 75.0943L142.062 75.7028L141.991 75.6729Z" fill="#068165"/>
<path fill-rule="evenodd" clip-rule="evenodd" d="M142.997 73.0185L142.922 72.9961L143.049 72.6191L143.179 72.2308L143.31 71.8351L143.445 71.4245L143.583 70.9989L143.725 70.5659L143.863 70.1179L144.001 69.655L144.075 69.6774L144.15 69.6998L144.001 70.1627L143.863 70.6107L143.725 71.0437L143.59 71.4693L143.459 71.8799L143.325 72.2831L143.194 72.6713L143.071 73.0446L142.997 73.0185Z" fill="#068165"/>
<path fill-rule="evenodd" clip-rule="evenodd" d="M143.998 69.655L144.075 69.678L143.998 69.655Z" fill="white"/>
<path fill-rule="evenodd" clip-rule="evenodd" d="M144.073 69.6774L143.998 69.655L144.028 69.5468L144.05 69.4049L144.073 69.2369L144.088 69.0466L144.11 68.8487L144.125 68.6359L144.155 68.2029L144.233 68.2103H144.308L144.278 68.6583L144.256 68.8711L144.241 69.0764L144.218 69.2668L144.196 69.4423L144.174 69.5878L144.147 69.6998L144.073 69.6774Z" fill="#068165"/>
<path fill-rule="evenodd" clip-rule="evenodd" d="M144.234 68.21L144.155 68.2026L144.174 67.9898L144.196 67.7845L144.219 67.5941L144.249 67.4224L144.331 67.4448L144.402 67.4597L144.376 67.6202L144.353 67.8069L144.331 67.9972L144.308 68.21H144.234Z" fill="#068165"/>
<path fill-rule="evenodd" clip-rule="evenodd" d="M144.331 67.4458L144.249 67.4233L144.286 67.2847L144.361 67.3071L144.433 67.3296L144.418 67.3896L144.403 67.4608L144.331 67.4458Z" fill="#068165"/>
<path fill-rule="evenodd" clip-rule="evenodd" d="M143.786 84.2096L143.861 84.2394L143.558 84.9487L143.245 85.6542L142.905 86.3598L142.554 87.0541L142.181 87.7447L141.793 88.4278L141.386 89.1035L140.968 89.7717L140.904 89.7269L140.837 89.6821L141.255 89.0214L141.658 88.3457L142.046 87.6663L142.416 86.9832L142.767 86.2851L143.095 85.587L143.413 84.8815L143.715 84.1797L143.786 84.2096Z" fill="#068165"/>
<path fill-rule="evenodd" clip-rule="evenodd" d="M140.903 89.7269L140.966 89.7717L140.526 90.425L140.074 91.0708L139.596 91.7017L139.103 92.3251L138.596 92.9261L138.077 93.5159L137.532 94.0871L136.976 94.6433L136.923 94.5873L136.871 94.5276L137.424 93.9751L137.965 93.4114L138.487 92.8253L138.988 92.2243L139.477 91.6046L139.947 90.9738L140.403 90.3354L140.836 89.6821L140.903 89.7269Z" fill="#068165"/>
<path fill-rule="evenodd" clip-rule="evenodd" d="M136.874 94.5278L136.928 94.5891L136.866 94.5355L136.874 94.5278Z" fill="white"/>
<path fill-rule="evenodd" clip-rule="evenodd" d="M136.926 94.5879L136.985 94.6364L136.433 95.2449L135.906 95.8347L135.391 96.3984L134.895 96.936L134.417 97.4549L133.947 97.9476L133.491 98.4254L133.051 98.8883L132.998 98.8361L132.942 98.7763L133.383 98.3134L133.835 97.8356L134.297 97.3466L134.783 96.824L135.276 96.2902L135.787 95.7302L136.317 95.1441L136.866 94.5356L136.926 94.5879Z" fill="#068165"/>
<path fill-rule="evenodd" clip-rule="evenodd" d="M132.998 98.8361L133.05 98.8884L132.617 99.3288L132.199 99.7619L131.781 100.173L131.377 100.576L130.974 100.971L130.579 101.352L129.783 102.088L129.731 102.028L129.683 101.968L130.467 101.236L130.87 100.852L131.265 100.464L131.676 100.061L132.09 99.6499L132.509 99.2169L132.942 98.7764L132.998 98.8361Z" fill="#068165"/>
<path fill-rule="evenodd" clip-rule="evenodd" d="M129.73 102.028L129.782 102.087L128.998 102.797L128.203 103.495L127.397 104.178L126.553 104.876L126.501 104.809L126.46 104.749L127.296 104.062L128.102 103.371L128.894 102.681L129.682 101.968L129.73 102.028Z" fill="#068165"/>
<path fill-rule="evenodd" clip-rule="evenodd" d="M126.502 104.809L126.554 104.876L126.121 105.227L125.673 105.582L125.218 105.94L124.751 106.313L124.266 106.687L123.766 107.079L123.254 107.474L122.717 107.885L122.672 107.825L122.627 107.766L123.165 107.355L123.68 106.959L124.176 106.571L124.654 106.19L125.124 105.821L125.58 105.455L126.028 105.104L126.461 104.749L126.502 104.809Z" fill="#068165"/>
<path fill-rule="evenodd" clip-rule="evenodd" d="M122.718 107.894L122.672 107.825L122.718 107.886V107.894Z" fill="white"/>
<path fill-rule="evenodd" clip-rule="evenodd" d="M122.671 107.825L122.716 107.892L121.226 108.911L119.744 109.912L118.27 110.878L116.799 111.819L115.332 112.734L113.872 113.622L112.42 114.488L110.979 115.324L109.542 116.142L108.112 116.926L106.694 117.687L105.286 118.43L103.883 119.151L102.49 119.845L101.109 120.513L99.7391 121.167L99.7092 121.096L99.6719 121.028L101.042 120.383L102.423 119.707L103.819 119.009L105.219 118.3L106.63 117.557L108.045 116.795L109.467 116L110.908 115.186L112.353 114.35L113.798 113.491L115.261 112.603L116.721 111.685L118.188 110.748L119.662 109.777L121.144 108.78L122.626 107.758L122.671 107.825Z" fill="#068165"/>
<path fill-rule="evenodd" clip-rule="evenodd" d="M99.7123 121.096L99.7422 121.167L98.3834 121.798L97.032 122.403L95.6881 122.989L94.3592 123.552L93.0489 124.097L91.7423 124.616L90.4544 125.116L89.1777 125.602L87.9085 126.072L86.6617 126.52L85.4223 126.946L84.2016 127.356L82.9996 127.744L81.805 128.118L80.6291 128.476L79.4682 128.823L79.457 128.749L79.4346 128.678L80.5918 128.331L81.7677 127.972L82.9548 127.599L84.1606 127.207L85.3775 126.796L86.6094 126.371L87.86 125.923L89.1218 125.46L90.3984 124.978L91.6901 124.471L92.9892 123.948L94.3032 123.407L95.6284 122.843L96.9648 122.261L98.3162 121.652L99.675 121.029L99.7123 121.096Z" fill="#068165"/>
<path fill-rule="evenodd" clip-rule="evenodd" d="M79.455 128.749L79.4662 128.823L78.3239 129.152L77.2002 129.462L76.0915 129.764L75.0052 130.04L73.9264 130.305L72.8774 130.563L71.8433 130.798L70.8205 131.026L69.8238 131.239L68.8494 131.436L67.8938 131.627L66.9531 131.802L66.0385 131.963L65.1426 132.12L64.269 132.258L63.4179 132.388L63.403 132.31L63.3955 132.235L64.2466 132.105L65.1202 131.963L66.0161 131.81L66.9269 131.649L67.8639 131.474L68.8196 131.28L69.7939 131.082L70.7943 130.869L71.806 130.641L72.84 130.406L73.8965 130.16L74.9679 129.887L76.0542 129.607L77.1629 129.316L78.2865 128.999L79.4326 128.678L79.455 128.749Z" fill="#068165"/>
<path fill-rule="evenodd" clip-rule="evenodd" d="M63.4051 132.31L63.42 132.388L62.5913 132.515L61.7812 132.623L60.9973 132.728L60.2358 132.814L59.5004 132.903L58.7874 132.978L58.0967 133.049L57.4397 133.109L57.4323 133.034L57.4248 132.956L58.0855 132.896L58.7724 132.821L59.4854 132.75L60.2208 132.661L60.9824 132.575L61.7626 132.47L62.5689 132.358L63.3976 132.235L63.4051 132.31Z" fill="#068165"/>
<path fill-rule="evenodd" clip-rule="evenodd" d="M57.4295 133.033L57.437 133.108L56.7949 133.16L56.1864 133.213L55.6003 133.254L55.0441 133.284L54.5066 133.313L53.9989 133.343L53.5248 133.358L53.0693 133.373V133.299V133.224L53.5173 133.213L53.9914 133.19L54.4991 133.168L55.0292 133.138L55.5854 133.101L56.1715 133.056L56.7837 133.004L57.422 132.955L57.4295 133.033Z" fill="#068165"/>
<path fill-rule="evenodd" clip-rule="evenodd" d="M53.0702 133.224V133.301L53.0625 133.224H53.0702Z" fill="white"/>
<path fill-rule="evenodd" clip-rule="evenodd" d="M53.071 133.299L53.0785 133.374L52.2423 133.419L51.3912 133.445L50.5102 133.467L49.6143 133.475V133.396V133.321L50.5102 133.314L51.3837 133.299L52.2348 133.262L53.0636 133.224L53.071 133.299Z" fill="#068165"/>
<path fill-rule="evenodd" clip-rule="evenodd" d="M49.6133 133.396V133.475L48.5717 133.467L47.5004 133.437L46.4215 133.389L45.3278 133.321L44.2265 133.224L43.1178 133.101L42.0091 132.963L40.9004 132.788L40.9153 132.706L40.9303 132.631L42.0315 132.806L43.1402 132.948L44.2414 133.071L45.3427 133.168L46.429 133.232L47.5078 133.284L48.5717 133.314L49.6133 133.321V133.396Z" fill="#068165"/>
<path fill-rule="evenodd" clip-rule="evenodd" d="M42.6627 65.8319L41.9012 66.3806L41.1508 66.9257L40.408 67.4744L39.6838 68.0269L38.9708 68.5757L38.2652 69.1281L37.5858 69.6769L36.9027 70.2256L36.2419 70.7856L35.5886 71.3344L34.9578 71.8943L34.3343 72.4505L33.7221 73.0105L33.1286 73.5667L32.55 74.1229L31.9863 74.6829L31.4338 75.2391L30.9 75.8065L30.3773 76.3627L29.8771 76.9264L29.3881 77.4938L28.9177 78.0501L28.4623 78.6175L28.0218 79.1812L27.6037 79.7523L27.2005 80.3197L26.816 80.8834L26.4427 81.4546L26.0993 82.022L25.7596 82.5931L25.4535 83.1643L25.1586 83.7317L24.8786 84.3029L24.6248 84.8777L24.3896 85.4489L24.1693 86.02L23.9789 86.6024L23.7923 87.1736L23.6392 87.7447L23.5086 88.3271L23.3891 88.8982L23.3033 89.4768L23.2286 90.0592L23.1763 90.6378L23.1465 91.2164V91.795L23.1614 92.3774L23.1987 92.956L23.2659 93.5346L23.3555 94.117L23.4638 94.6956L23.5944 95.2817L23.7512 95.864L23.9342 96.4501L24.1395 97.0287L24.3672 97.6148L24.6248 98.2046L24.9085 98.7832L25.2108 99.3693L25.5468 99.9591L25.9089 100.545L26.2897 101.131L26.7003 101.717L26.8534 101.493L27.0251 101.243L27.208 100.986L27.3909 100.713L27.7866 100.142L28.1973 99.5597L28.6004 98.9736L28.9961 98.4099L29.1828 98.1374L29.3657 97.8799L29.5337 97.6297L29.6867 97.402L29.6419 97.0586L29.6195 96.7226L29.6009 96.3829V96.0469L29.6083 95.7147L29.627 95.3937L29.6569 95.0689L29.6942 94.7553L29.8137 94.1319L29.9592 93.5159L30.1496 92.9187L30.3773 92.34L30.6349 91.7764L30.9112 91.2239L31.2285 90.6901L31.5644 90.16L31.9265 89.6523L32.2998 89.1633L32.6955 88.678L33.1062 88.2151L33.5317 87.7596L33.9648 87.3266L34.4053 86.901L34.8532 86.4904L35.3012 86.0947L35.7492 85.7139L36.1897 85.3369L36.6302 84.986L37.0632 84.6426L37.4887 84.3178L37.8994 84.0042L38.2951 83.7018L38.6758 83.4069L39.038 83.1382L39.3739 82.8731L39.6912 82.623L39.6987 81.9996L39.7136 81.3762L39.7398 80.7752L39.023 81.2418L38.2951 81.742L37.5783 82.2422L36.8653 82.7611L36.1673 83.2912L35.4841 83.825L34.8234 84.3701L34.1701 84.9263L33.5467 85.4862L32.9382 86.0574L32.3596 86.6285L31.7996 87.2109L31.2658 87.797L30.7656 88.383L30.2878 88.9729L29.8547 89.5664L29.4441 90.16L29.0783 90.761L28.7497 91.3583L28.4623 91.9518L28.2122 92.5454L28.1039 92.8403L28.0069 93.1389L27.9173 93.4338L27.8464 93.7287L27.7792 94.0199L27.7269 94.3074L27.6896 94.5985L27.6709 94.886L27.656 95.1809V95.4646L27.6634 95.752L27.6896 96.032L27.7269 96.3194L27.7866 96.5957L27.8538 96.8757L27.9322 97.1556L28.0293 97.4244L28.145 97.6969L28.2719 97.9694L28.41 98.2345L28.5631 98.4958L28.7423 98.7608L27.544 100.385L27.3685 100.157L27.2005 99.9218L27.0438 99.6792L26.8982 99.4291L26.76 99.1715L26.6257 98.9064L26.5099 98.6377L26.3979 98.3502L26.2972 98.0628L26.2076 97.7716L26.1292 97.4692L26.062 97.1631L26.0022 96.8533L25.95 96.5322L25.9164 96.2075L25.894 95.8789L25.8791 95.5392L25.8716 95.2033L25.8791 94.8561L25.9015 94.5052L25.9313 94.1468L25.9724 93.7847L26.0246 93.4189L26.0918 93.0531L26.1702 92.6835L26.2598 92.3027L26.3643 91.9294L26.4801 91.5412L26.6033 91.1567L26.7451 90.7684L26.8982 90.3802L27.0662 89.9845L27.2491 89.5888L27.4432 89.1931L27.6485 88.7862L27.8688 88.3905L28.1039 87.9873L28.3503 87.5767L28.6079 87.1736L28.8879 86.7704L29.1828 86.3598L29.4814 85.9566L29.8062 85.5422L30.1347 85.1391L30.4856 84.7284L30.8477 84.3178L31.2285 83.9146L31.6167 83.5115L32.0273 83.1008L32.4529 82.6977L32.8934 82.2945L33.3488 81.8876L33.8192 81.4919L34.3119 81.0887L34.8084 80.693L35.3311 80.3048L35.8686 79.9091L36.4248 79.5171L36.9885 79.1364L37.5783 78.7481L38.1794 78.3748L38.8028 77.9903L39.4411 77.617L40.0944 77.2512L40.0683 77.5125L40.2101 76.5755L40.4154 75.422L40.6581 74.2946L40.9157 73.1859L41.1956 72.0996L41.4943 71.0432L41.8041 70.0054L42.1289 69.0012L42.4499 68.0344L42.7784 67.0862L43.1107 66.1679L43.4317 65.2869L42.6627 65.8319Z" fill="#068165"/>
<path fill-rule="evenodd" clip-rule="evenodd" d="M146.825 51.9751L146.795 51.4823L146.761 50.9933L146.709 50.508L146.649 50.0302L146.567 49.5524L146.481 49.082L146.377 48.6228L146.261 48.1599L146.134 47.7045L145.996 47.2566L145.843 46.8161L145.675 46.3756L145.496 45.9425L145.305 45.517L145.1 45.0989L144.88 44.6882L144.652 44.2851L144.409 43.8819L144.163 43.4899L143.898 43.1017L143.618 42.7209L143.323 42.3476L143.024 41.9781L142.707 41.6197L142.386 41.2763L142.046 40.9291L141.695 40.5931L141.337 40.2609L140.96 39.9398L140.572 39.6225L140.176 39.3239L139.765 39.0215L139.347 38.7341L138.914 38.4504L138.474 38.1779L138.018 37.9128L137.548 37.6552L137.07 37.4126L136.581 37.1737L136.081 36.946L135.566 36.7257L135.047 36.5129L134.509 36.3151L133.968 36.1172L133.408 35.938L132.844 35.7626L132.266 35.6021L131.676 35.449L131.075 35.2997L130.467 35.169L129.851 35.0459L129.22 34.9339L128.574 34.8293L127.921 34.736L127.26 34.6539L126.584 34.583L125.894 34.5232L125.203 34.471L124.501 34.4336L123.781 34.4112L123.053 34.4L122.321 34.3926L121.052 34.5456L119.76 34.7062L118.446 34.8741L117.125 35.0571L115.803 35.2586L114.482 35.464L113.183 35.6842L111.899 35.9082L110.652 36.1508L110.036 36.2703L109.435 36.4009L108.845 36.5353L108.266 36.666L107.71 36.7966L107.158 36.9385L106.624 37.0841L106.109 37.2297L105.601 37.379L105.127 37.5246L104.664 37.6776L104.223 37.8419L103.798 38.0024L103.398 38.1629H103.406L103.428 38.1704L103.458 38.1853L103.503 38.2003L103.563 38.2227L103.634 38.2525L103.716 38.2787L103.813 38.316L103.914 38.3533L104.033 38.3981L104.156 38.4504L104.294 38.5064L104.597 38.6258L104.94 38.7639L105.317 38.9207L105.728 39.0887L106.176 39.2791L106.642 39.477L107.143 39.6972L107.665 39.9324L108.207 40.1825L108.774 40.4438L109.353 40.7238L109.946 41.0112L110.547 41.3173L111.171 41.6346L111.798 41.9631L112.429 42.3103L113.067 42.6687L113.698 43.0345L114.336 43.4116L114.967 43.7998L115.59 44.203L116.206 44.6136L116.807 45.0317L117.405 45.4647L117.983 45.9052L118.54 46.3532L118.827 46.2374L119.137 46.1329L119.458 46.0247L119.809 45.9201L120.178 45.8343L120.559 45.7372L120.962 45.6551L121.373 45.5842L121.806 45.517L122.246 45.4572L122.709 45.4087L123.172 45.3639L123.65 45.3266L124.132 45.3042L124.632 45.2967L125.132 45.2893L125.636 45.3042L126.144 45.3266L126.659 45.3639L127.17 45.4087L127.693 45.4722L128.204 45.5468L128.72 45.6327L129.235 45.7447L129.739 45.8604L130.246 46.0023L130.747 46.1553L131.239 46.3308L131.721 46.5137L132.199 46.7265L132.662 46.9542L133.117 47.1968L132.311 47.0064L131.508 46.8459L130.717 46.7003L129.936 46.5884L129.175 46.5062L128.421 46.4726L127.671 46.4652L127.297 46.4764L126.928 46.5062L126.569 46.5436L126.203 46.5884L125.841 46.6555L125.483 46.7265L125.132 46.8161L124.777 46.9169L124.427 47.0363L124.076 47.167L123.728 47.3163L123.385 47.4768L123.042 47.6597L122.702 47.8576L122.366 48.0629L122.026 48.2981L121.69 48.5482L121.358 48.8132L121.739 49.194L121.918 49.3769L122.078 49.5524L122.657 49.2537L123.224 48.9812L123.788 48.7386L124.329 48.5183L124.867 48.3354L125.397 48.1674L125.909 48.0256L126.416 47.9098L126.913 47.8128L127.398 47.7419L127.876 47.6896L128.339 47.6523L128.802 47.6373L129.242 47.6299L129.683 47.6523L130.108 47.6821L130.526 47.7269L130.929 47.7829L131.325 47.8501L131.713 47.9322L132.098 48.0181L132.464 48.1152L132.822 48.2234L133.177 48.3354L133.849 48.5706L134.487 48.8282L135.092 49.082L135.663 49.3396L135.786 49.4142L135.891 49.5076L135.984 49.627L136.066 49.7502L136.204 50.0227L136.354 50.2952L136.626 50.788L136.857 51.277L137.055 51.7772L137.227 52.2775L137.358 52.774L137.47 53.2742L137.541 53.7819L137.593 54.2784L137.615 54.7861L137.608 55.2863L137.578 55.7902L137.526 56.2905L137.447 56.7907L137.343 57.2797L137.227 57.7799L137.085 58.2727L136.932 58.758L136.757 59.2395L136.559 59.7174L136.354 60.1877L136.133 60.6581L135.898 61.121L135.648 61.5764L135.39 62.0206L135.118 62.4686L134.842 62.9016L134.554 63.3272L134.267 63.7453L133.666 64.5479L133.05 65.3169L133.33 66.2576L133.628 67.1834L133.938 68.0905L134.259 68.9865L134.898 70.741L135.207 71.607L135.495 72.4731L135.92 71.8422L136.346 71.2188L137.175 70.0018L137.981 68.8035L138.761 67.6202L139.508 66.4405L140.228 65.2534L140.904 64.0477L141.233 63.4317L141.55 62.8158L141.856 62.1849L142.151 61.5466L142.438 60.8933L142.715 60.2251L142.98 59.5494L143.23 58.8513L143.472 58.1383L143.7 57.4141L143.913 56.6638L144.111 55.8948L144.301 55.1034L144.477 54.2858L144.637 53.4496L144.786 52.5836L144.917 51.6951L145.037 50.7805L145.04 50.8067V50.7805L145.152 51.5794L145.234 52.3559L145.298 53.1137L145.343 53.8603L145.365 54.6031L145.358 55.3236L145.335 56.0329L145.283 56.7384L145.219 57.444L145.122 58.1308L144.999 58.8215L144.857 59.5121L144.689 60.1952L144.492 60.8858L144.271 61.5764L144.029 62.2708L143.749 62.9688L143.457 63.6744L143.125 64.3911L142.774 65.1191L142.394 65.8619L141.983 66.6085L141.542 67.3813L141.072 68.1652L140.572 68.9641L140.045 69.7891L139.486 70.6327L138.899 71.4988L138.283 72.3835L137.63 73.3018L136.947 74.2425L136.596 74.7278L136.234 75.2169L136.23 75.1982L136.331 75.747L136.413 76.3032L136.469 76.8706L136.507 77.4343L136.955 76.9266L137.38 76.4226L137.798 75.9224L138.209 75.4296L138.597 74.9406L138.982 74.4628L139.355 73.985L139.706 73.5071L140.053 73.0368L140.389 72.5776L140.714 72.1222L141.02 71.6668L141.322 71.2188L141.613 70.7708L141.893 70.3303L142.158 69.8973L142.67 69.0387L143.133 68.2025L143.566 67.3738L143.961 66.5637L144.324 65.7723L144.652 64.9959L144.954 64.2306L145.227 63.484L145.462 62.7486L145.682 62.0206L145.873 61.3114L146.041 60.6133L146.179 59.9227L146.313 59.247L146.414 58.5863L146.511 57.9255L146.582 57.2797L146.649 56.6414L146.701 56.018L146.739 55.3945L146.795 54.1776L146.832 52.9793V52.4753L146.825 51.9751Z" fill="#068165"/>
<path d="M23.3324 36.169L24.9413 35.1313C25.2848 35.5718 25.5125 36.0085 25.6319 36.4415C25.7477 36.8783 25.7514 37.3039 25.6469 37.722C25.5423 38.1438 25.2997 38.5843 24.9189 39.0509C24.456 39.6183 23.9894 40.0066 23.519 40.2231C23.0487 40.4396 22.4887 40.4956 21.8355 40.3948C21.1822 40.294 20.5102 39.9618 19.8234 39.4018C18.905 38.6515 18.3899 37.8452 18.2742 36.9828C18.1584 36.1205 18.4421 35.2694 19.129 34.4332C19.6666 33.7762 20.2303 33.3767 20.8201 33.2349C21.4099 33.0893 22.0706 33.164 22.806 33.4626L21.9773 35.1574C21.7683 35.0678 21.6003 35.0193 21.4808 35.0118C21.2755 34.9931 21.0851 35.023 20.9059 35.0939C20.7305 35.1649 20.5774 35.2843 20.443 35.4448C20.1444 35.8107 20.0735 36.2176 20.2265 36.6655C20.3385 37.0015 20.6409 37.3748 21.1374 37.778C21.7533 38.2819 22.2461 38.5395 22.6157 38.5507C22.9852 38.5619 23.3025 38.4088 23.5638 38.0915C23.8177 37.7854 23.9147 37.4756 23.8625 37.1658C23.799 36.8596 23.6273 36.5237 23.3324 36.169Z" fill="white"/>
<path d="M33.6763 29.6472L27.2256 36.0045L22.1973 30.9052L23.6755 29.4493L27.4683 33.298L28.465 32.3125L24.6723 28.4638L26.1543 27.0042L29.947 30.8492L30.9549 29.8525L27.1659 26.0075L28.6479 24.5479L33.6763 29.6472Z" fill="white"/>
<path d="M32.1508 26.3103C31.4266 25.3919 31.1018 24.4886 31.1765 23.6001C31.2511 22.7079 31.7178 21.924 32.5764 21.2483C33.4536 20.554 34.3309 20.2665 35.2007 20.3934C36.0742 20.5204 36.8693 21.0355 37.5823 21.9389C38.1012 22.5959 38.4223 23.2156 38.5492 23.8017C38.6761 24.3878 38.6351 24.9515 38.4223 25.4965C38.217 26.0415 37.8175 26.5454 37.2314 27.0083C36.6342 27.4787 36.063 27.7699 35.5143 27.8744C34.9655 27.9827 34.3943 27.9117 33.8083 27.6654C33.2222 27.4152 32.6697 26.9673 32.1508 26.3103ZM33.7859 25.0261C34.2338 25.5935 34.6557 25.922 35.0476 26.0154C35.4433 26.105 35.8092 26.0191 36.1526 25.7466C36.5035 25.4703 36.679 25.1344 36.679 24.7387C36.679 24.3467 36.4288 23.8315 35.9324 23.2044C35.5143 22.6743 35.1074 22.3682 34.7154 22.2823C34.3234 22.1965 33.9539 22.2898 33.6104 22.5623C33.2819 22.8236 33.1139 23.1559 33.1102 23.5628C33.1102 23.9659 33.3342 24.455 33.7859 25.0261Z" fill="white"/>
<path d="M36.6074 18.3364L39.493 16.4326C40.1239 16.0182 40.6988 15.8652 41.2214 15.9772C41.7441 16.0892 42.1995 16.4401 42.5877 17.0262C42.9871 17.6309 43.1253 18.2133 43.0095 18.7807C42.8938 19.3481 42.4832 19.8595 41.7851 20.3224L40.8332 20.9496L42.2965 23.167L40.5495 24.3167L36.6074 18.3364ZM40.0343 19.7363L40.4599 19.4563C40.7959 19.2361 40.99 19.0196 41.0422 18.8031C41.0982 18.5903 41.0609 18.3887 40.9303 18.1946C40.8071 18.0079 40.6428 17.8885 40.4412 17.8325C40.2396 17.7802 39.9746 17.8586 39.6498 18.0751L39.1571 18.3999L40.0343 19.7363Z" fill="white"/>
<path d="M45.4795 12.8342L48.9661 11.0984C49.5485 10.8109 50.0711 10.74 50.534 10.8893C50.9969 11.0424 51.3403 11.341 51.568 11.7927C51.7584 12.1735 51.807 12.5542 51.7211 12.935C51.6614 13.1888 51.5195 13.439 51.2843 13.6891C51.7734 13.5845 52.184 13.6144 52.5237 13.7824C52.8634 13.9504 53.1322 14.2378 53.3375 14.6447C53.5017 14.977 53.5801 15.3129 53.5652 15.6489C53.554 15.9849 53.4569 16.2947 53.2815 16.5747C53.1732 16.7501 52.9717 16.9368 52.6767 17.1384C52.2885 17.4072 52.0235 17.5714 51.8891 17.6423L48.675 19.2438L45.4795 12.8342ZM48.6115 14.4133L49.4216 14.0101C49.7127 13.8645 49.8882 13.7115 49.9479 13.5472C50.0076 13.383 49.989 13.2038 49.8882 13.0022C49.7949 12.8155 49.6642 12.6961 49.5 12.6513C49.3357 12.6028 49.1117 12.6476 48.828 12.7894L48.0067 13.2L48.6115 14.4133ZM49.8658 16.9293L50.814 16.4552C51.135 16.2947 51.3291 16.123 51.4038 15.9363C51.4747 15.7497 51.4598 15.5556 51.359 15.3503C51.2657 15.1599 51.1238 15.0404 50.9334 14.9919C50.7468 14.9434 50.4892 14.9994 50.1607 15.1599L49.2162 15.6302L49.8658 16.9293Z" fill="white"/>
<path d="M55.2257 12.2926L53.4936 12.7705C53.4338 12.4345 53.4264 12.1582 53.4712 11.9343C53.5197 11.7103 53.628 11.49 53.796 11.2698C53.9191 11.113 54.1058 10.9525 54.3671 10.7882C54.6247 10.624 54.9159 10.4784 55.2406 10.3477C55.7632 10.1387 56.1925 10.0043 56.5322 9.93709C56.8719 9.87363 57.1855 9.89603 57.4767 10.008C57.6783 10.0827 57.8724 10.232 58.0553 10.4448C58.242 10.6613 58.3801 10.8815 58.4697 11.1055L59.3208 13.2333C59.4104 13.4611 59.4962 13.6328 59.5746 13.7485C59.653 13.8642 59.7762 14.0061 59.9479 14.1703L58.3203 14.8236C58.2046 14.7266 58.1225 14.6482 58.0777 14.5922C58.0329 14.5362 57.9732 14.4428 57.8948 14.3085C57.7604 14.6332 57.5999 14.8908 57.417 15.0812C57.1631 15.3388 56.8309 15.5478 56.4277 15.7083C55.8864 15.9249 55.4235 15.9547 55.039 15.8017C54.6545 15.6486 54.382 15.3761 54.2252 14.9841C54.0797 14.6183 54.061 14.2749 54.1655 13.9613C54.27 13.6477 54.5762 13.3192 55.0726 12.987C55.6662 12.5875 56.0507 12.3188 56.2224 12.1881C56.3941 12.0537 56.5696 11.9007 56.7488 11.7215C56.6554 11.4938 56.5509 11.3519 56.424 11.2959C56.3008 11.2399 56.1253 11.2586 55.9051 11.3482C55.6214 11.4602 55.4273 11.5946 55.3228 11.7476C55.2406 11.8783 55.207 12.0574 55.2257 12.2926ZM57.1183 12.6622C56.9167 12.8488 56.7002 13.028 56.4688 13.1998C56.1552 13.4387 55.9723 13.629 55.9163 13.7634C55.8603 13.9016 55.8566 14.0359 55.9088 14.1629C55.9648 14.3085 56.0619 14.4055 56.1925 14.4615C56.3232 14.5138 56.48 14.5063 56.6666 14.4316C56.8607 14.3533 57.0213 14.2338 57.1482 14.0658C57.2751 13.9016 57.3423 13.7298 57.3535 13.5581C57.3647 13.3864 57.3236 13.1886 57.234 12.9571L57.1183 12.6622Z" fill="white"/>
<path d="M58.6182 9.1417L60.731 8.47349L61.9069 9.61953L62.3325 7.96953L64.2998 7.34985L63.4599 10.2093L65.9796 12.2625L63.9004 12.9195L62.5341 11.598L62.0301 13.5093L60.1002 14.1216L60.97 10.997L58.6182 9.1417Z" fill="white"/>
<path d="M71.6983 10.9193L69.9774 11.3188L69.3988 8.83257L68.1893 11.7331L66.4572 12.1363L65.2812 7.08551L67.0022 6.68235L67.5883 9.20213L68.8052 6.26052L70.5224 5.86108L71.6983 10.9193Z" fill="white"/>
<path d="M76.1338 6.4128L74.7974 6.62931L75.3947 10.3175L73.5431 10.6162L72.9458 6.92422L71.6094 7.14074L71.3779 5.70726L75.9024 4.97559L76.1338 6.4128Z" fill="white"/>
<path d="M76.7181 7.48857C76.6435 6.70091 76.8301 6.02896 77.2818 5.46901C77.7335 4.91279 78.3868 4.59175 79.2342 4.50963C80.2085 4.4163 80.97 4.64775 81.5263 5.20023C81.9705 5.64446 82.2243 6.22308 82.2953 6.92862C82.3699 7.72375 82.1833 8.3957 81.7353 8.95192C81.2873 9.5044 80.6266 9.82544 79.7531 9.90757C78.9729 9.98223 78.3233 9.82918 77.8007 9.45588C77.1549 8.98925 76.7965 8.33224 76.7181 7.48857ZM78.5809 7.30566C78.6257 7.76482 78.7452 8.09706 78.9393 8.30237C79.1371 8.50769 79.3648 8.59728 79.6336 8.57115C79.9024 8.54502 80.1114 8.4181 80.2645 8.18292C80.4176 7.94774 80.4698 7.5931 80.4213 7.11154C80.3802 6.66358 80.2608 6.33881 80.0666 6.13722C79.8725 5.93564 79.6486 5.84605 79.391 5.86845C79.1185 5.89458 78.9057 6.02523 78.7526 6.26788C78.5921 6.50679 78.5361 6.85023 78.5809 7.30566Z" fill="white"/>
<path d="M86.8613 6.66349C87.2346 6.69335 87.5295 6.82027 87.7535 7.03306C87.9775 7.24957 88.0932 7.54448 88.1007 7.91405C88.1119 8.41054 87.9663 8.78384 87.6676 9.03395C87.369 9.2878 86.8202 9.42219 86.0288 9.43712L83.2477 9.49685L83.1357 4.31169L86.1446 4.24449C86.6896 4.23329 87.1077 4.33408 87.3989 4.5506C87.69 4.76711 87.8394 5.07322 87.8468 5.46892C87.8543 5.7489 87.7647 5.99528 87.5818 6.20806C87.3989 6.42084 87.1599 6.5627 86.865 6.63736L86.8613 6.66349ZM85.0433 6.25286L85.5137 6.24166C85.8273 6.23419 85.9803 6.08114 85.9728 5.77503C85.9691 5.52865 85.7974 5.40919 85.4689 5.41666L85.0247 5.42786L85.0433 6.25286ZM85.0844 8.24255L85.7003 8.22762C85.8534 8.22389 85.9766 8.18283 86.0662 8.10817C86.1595 8.02977 86.2043 7.92151 86.2006 7.77966C86.1931 7.46609 86.0176 7.31303 85.6779 7.3205L85.062 7.33543L85.0844 8.24255Z" fill="white"/>
<path d="M92.5525 7.55911L94.3182 7.86148C94.1987 8.24972 94.0233 8.58196 93.7844 8.86193C93.5454 9.13818 93.2505 9.34723 92.8959 9.48908C92.5413 9.63094 92.097 9.68693 91.5595 9.6608C91.0406 9.63467 90.615 9.56374 90.2753 9.44055C89.9356 9.3211 89.6482 9.14191 89.413 8.89926C89.1778 8.65662 88.9949 8.37664 88.8717 8.06307C88.7485 7.74576 88.6963 7.33513 88.7224 6.82371C88.7485 6.28988 88.8568 5.85312 89.0472 5.50595C89.1853 5.2521 89.3682 5.02812 89.5959 4.83401C89.8236 4.63989 90.0551 4.4943 90.2903 4.40844C90.6598 4.26659 91.1302 4.21059 91.7013 4.24046C92.4965 4.28152 93.0937 4.4607 93.4969 4.78548C93.9001 5.11025 94.1689 5.56568 94.3107 6.1555L92.5413 6.31602C92.4965 6.09203 92.4069 5.92032 92.265 5.80086C92.1269 5.6814 91.9328 5.61421 91.6901 5.60301C91.3803 5.58808 91.1265 5.6926 90.9249 5.92032C90.7233 6.1443 90.6076 6.49893 90.5852 6.97676C90.5628 7.40232 90.6412 7.73083 90.8203 7.95854C90.9995 8.18999 91.2347 8.30945 91.5296 8.32438C91.7723 8.33558 91.9813 8.27958 92.1568 8.15639C92.321 8.02947 92.4554 7.83162 92.5525 7.55911Z" fill="white"/>
<path d="M100.271 10.4189L98.1802 10.1576L97.6501 8.64945C97.5643 8.41053 97.4709 8.25375 97.3701 8.18282C97.2693 8.11189 97.1387 8.06336 96.9819 8.0447L96.743 9.9784L94.8877 9.74695L95.526 4.59912L97.3813 4.83057L97.1499 6.69334C97.3029 6.69708 97.4224 6.65601 97.5083 6.57389C97.5941 6.49176 97.721 6.30884 97.9002 6.01767C98.0757 5.72649 98.2287 5.51744 98.3557 5.39052C98.4826 5.2636 98.6356 5.17401 98.8148 5.12174C98.994 5.07321 99.2142 5.05455 99.4681 5.06575C99.7257 5.07695 100.106 5.11428 100.61 5.17774L100.435 6.57762L100.353 6.56642C100.103 6.53656 99.9123 6.52163 99.7779 6.52909C99.6435 6.53282 99.5353 6.56642 99.4457 6.62242C99.3561 6.67841 99.2478 6.80907 99.1209 7.00692C98.9903 7.20477 98.8895 7.33916 98.8111 7.41382C98.7327 7.48848 98.6244 7.52954 98.4863 7.54447C98.7439 7.6042 98.9343 7.68633 99.0612 7.79458C99.1881 7.90284 99.3636 8.22762 99.5838 8.76144L100.271 10.4189Z" fill="white"/>
<path d="M100.954 7.90248C101.114 7.12601 101.491 6.53993 102.085 6.13676C102.678 5.73359 103.395 5.6216 104.231 5.79332C105.187 5.99117 105.848 6.4354 106.217 7.12601C106.512 7.68223 106.587 8.30937 106.445 9.00372C106.284 9.78392 105.907 10.3737 105.317 10.7732C104.728 11.1726 104 11.2809 103.141 11.1054C102.372 10.9486 101.794 10.6126 101.405 10.0975C100.931 9.46661 100.782 8.73494 100.954 7.90248ZM102.786 8.27578C102.693 8.72747 102.708 9.08211 102.839 9.33222C102.966 9.58607 103.16 9.73912 103.421 9.79138C103.686 9.84738 103.925 9.78392 104.138 9.60473C104.351 9.42555 104.507 9.10077 104.604 8.62668C104.694 8.18619 104.679 7.84275 104.552 7.59264C104.425 7.34252 104.235 7.18947 103.985 7.14094C103.72 7.08494 103.477 7.14841 103.257 7.33132C103.037 7.51424 102.88 7.82782 102.786 8.27578Z" fill="white"/>
<path d="M111.459 9.15344L109.454 8.61962L108.491 12.2294L106.681 11.7442L108.017 6.73071L111.836 7.74983L111.459 9.15344Z" fill="white"/>
<path d="M111.667 10.4042C111.921 9.65383 112.368 9.11628 113.007 8.7915C113.645 8.46673 114.373 8.4406 115.179 8.71311C116.105 9.02668 116.706 9.54931 116.986 10.2772C117.21 10.8671 117.21 11.4942 116.979 12.1699C116.721 12.9277 116.277 13.4652 115.646 13.79C115.011 14.1148 114.276 14.1335 113.444 13.8535C112.701 13.6034 112.167 13.2002 111.846 12.644C111.454 11.9571 111.394 11.2105 111.667 10.4042ZM113.444 11.0014C113.294 11.4382 113.272 11.7891 113.365 12.0579C113.462 12.3229 113.634 12.4984 113.888 12.5842C114.145 12.6701 114.388 12.6365 114.623 12.4872C114.858 12.3341 115.053 12.0318 115.206 11.5763C115.351 11.1508 115.374 10.8036 115.28 10.5423C115.187 10.2772 115.015 10.1018 114.773 10.0197C114.515 9.93381 114.265 9.9674 114.026 10.1205C113.78 10.2735 113.589 10.5684 113.444 11.0014Z" fill="white"/>
<path d="M118.72 17.8102L121.758 11.3259L123.341 12.0688L123.016 12.7631C123.371 12.5728 123.666 12.4682 123.897 12.4533C124.207 12.4309 124.513 12.4906 124.816 12.6288C125.406 12.905 125.749 13.3604 125.846 13.9913C125.943 14.6222 125.827 15.2941 125.495 15.9997C125.129 16.7799 124.674 17.295 124.129 17.5414C123.584 17.7878 123.043 17.784 122.505 17.5339C122.244 17.4107 122.027 17.254 121.859 17.0598C121.687 16.862 121.561 16.6343 121.478 16.3692L120.429 18.6128L118.72 17.8102ZM122.348 14.4841C122.173 14.8574 122.117 15.1672 122.18 15.4136C122.244 15.6637 122.386 15.8391 122.61 15.9437C122.807 16.037 123.013 16.0295 123.225 15.9175C123.438 15.8055 123.644 15.548 123.838 15.1336C124.017 14.7528 124.077 14.4393 124.024 14.1966C123.968 13.954 123.841 13.786 123.644 13.6927C123.427 13.5919 123.203 13.5956 122.975 13.7076C122.748 13.8233 122.539 14.0809 122.348 14.4841Z" fill="white"/>
<path d="M128.249 16.418L126.789 15.3653C127.013 15.1077 127.226 14.9285 127.428 14.8277C127.633 14.7232 127.872 14.6709 128.148 14.6672C128.35 14.6635 128.592 14.712 128.88 14.809C129.167 14.9098 129.466 15.0442 129.768 15.2159C130.257 15.4922 130.631 15.7423 130.896 15.9663C131.157 16.1903 131.336 16.4516 131.429 16.7465C131.497 16.9518 131.504 17.1944 131.448 17.4744C131.396 17.7544 131.31 18.0008 131.191 18.2098L130.063 20.207C129.944 20.4198 129.862 20.5952 129.821 20.7296C129.779 20.864 129.746 21.0507 129.727 21.2858L128.2 20.4235C128.204 20.2705 128.215 20.1622 128.23 20.0875C128.245 20.0166 128.283 19.9084 128.339 19.7702C128.003 19.8673 127.704 19.9046 127.439 19.8785C127.08 19.8412 126.711 19.7142 126.33 19.4977C125.822 19.214 125.509 18.8706 125.389 18.4711C125.266 18.0717 125.311 17.6909 125.516 17.3251C125.71 16.9817 125.964 16.754 126.278 16.6382C126.591 16.5225 127.036 16.5561 127.603 16.7353C128.286 16.9481 128.734 17.0825 128.947 17.131C129.16 17.1795 129.388 17.2206 129.638 17.2504C129.757 17.0377 129.802 16.8659 129.765 16.7353C129.731 16.6046 129.611 16.4777 129.402 16.362C129.137 16.2127 128.91 16.1455 128.727 16.1604C128.585 16.1716 128.424 16.2575 128.249 16.418ZM129.149 18.1277C128.876 18.0866 128.6 18.0306 128.32 17.9597C127.935 17.8664 127.674 17.8403 127.536 17.8813C127.394 17.9261 127.286 18.0045 127.219 18.124C127.144 18.2584 127.125 18.3965 127.166 18.5346C127.207 18.6727 127.312 18.7884 127.487 18.8855C127.67 18.9863 127.864 19.0348 128.073 19.0311C128.283 19.0236 128.458 18.9751 128.6 18.878C128.742 18.781 128.872 18.6242 128.996 18.4077L129.149 18.1277Z" fill="white"/>
<path d="M134.812 24.6638L133.345 23.6783L134.767 21.5579L131.822 22.6554L130.344 21.6624L133.233 17.3545L134.7 18.3401L133.259 20.4865L136.242 19.3704L137.705 20.3521L134.812 24.6638ZM137.884 17.9555C137.616 18.3438 137.283 18.5566 136.895 18.6014C136.503 18.6462 136.137 18.5528 135.794 18.3214C135.394 18.0526 135.152 17.7316 135.07 17.3657C134.988 16.9999 135.062 16.6117 135.286 16.2085L135.943 16.649C135.828 16.9887 135.947 17.2761 136.294 17.5113C136.488 17.642 136.66 17.7129 136.806 17.7316C136.955 17.7465 137.108 17.683 137.261 17.5375L137.884 17.9555Z" fill="white"/>
<path d="M137.022 23.0775C137.511 22.4578 138.112 22.0995 138.825 22.0099C139.538 21.9203 140.229 22.1368 140.897 22.6669C141.662 23.2716 142.054 23.966 142.073 24.7499C142.088 25.3808 141.875 25.9743 141.434 26.5306C140.942 27.1577 140.341 27.5161 139.631 27.6057C138.926 27.699 138.228 27.4713 137.537 26.9263C136.921 26.441 136.555 25.881 136.44 25.2501C136.301 24.4699 136.496 23.7457 137.022 23.0775ZM138.493 24.2348C138.205 24.5969 138.063 24.9216 138.063 25.2053C138.063 25.489 138.172 25.713 138.377 25.8773C138.59 26.0453 138.829 26.0938 139.101 26.0303C139.374 25.9669 139.657 25.7466 139.956 25.3659C140.236 25.015 140.374 24.6976 140.374 24.4139C140.374 24.134 140.273 23.9137 140.072 23.7532C139.855 23.5852 139.613 23.5329 139.333 23.5964C139.056 23.6673 138.776 23.8801 138.493 24.2348Z" fill="white"/>
<path d="M144.39 32.7608L143.013 31.4879L144.342 30.0469L143.095 28.8934L141.766 30.3344L140.389 29.0614L143.909 25.25L145.286 26.523L144.081 27.8295L145.327 28.983L146.533 27.6765L147.911 28.9494L144.39 32.7608Z" fill="white"/>
<path d="M148.814 32.3313L147.746 30.8866C148.033 30.7112 148.295 30.6029 148.519 30.5656C148.746 30.5283 148.989 30.5507 149.258 30.6328C149.448 30.6888 149.665 30.8082 149.911 30.9912C150.154 31.1741 150.396 31.3943 150.632 31.6482C151.012 32.0588 151.296 32.4134 151.475 32.7046C151.658 32.9995 151.748 33.3019 151.748 33.6117C151.748 33.8282 151.681 34.0597 151.546 34.3098C151.412 34.5599 151.255 34.769 151.076 34.9332L149.396 36.4899C149.217 36.6541 149.086 36.796 149.004 36.9117C148.922 37.0274 148.836 37.1954 148.746 37.4119L147.556 36.1241C147.604 35.9822 147.649 35.8777 147.686 35.8179C147.724 35.7545 147.791 35.6649 147.884 35.5454C147.533 35.538 147.234 35.4782 146.992 35.3737C146.663 35.2281 146.35 34.9967 146.051 34.6756C145.655 34.2501 145.458 33.8282 145.465 33.4102C145.469 32.9921 145.626 32.6449 145.935 32.3574C146.223 32.0924 146.536 31.9505 146.869 31.9356C147.205 31.9244 147.615 32.0887 148.104 32.4321C148.69 32.8465 149.079 33.1078 149.262 33.2198C149.448 33.3318 149.653 33.44 149.885 33.5445C150.064 33.3803 150.157 33.2272 150.165 33.0928C150.172 32.9585 150.094 32.8017 149.93 32.6262C149.721 32.4022 149.527 32.2678 149.347 32.2268C149.206 32.1969 149.03 32.2305 148.814 32.3313ZM149.15 34.2314C148.903 34.1082 148.657 33.9701 148.414 33.817C148.078 33.6117 147.836 33.5072 147.694 33.5035C147.544 33.4997 147.417 33.5445 147.317 33.6379C147.201 33.7461 147.145 33.8693 147.141 34.0112C147.137 34.153 147.205 34.2986 147.339 34.4442C147.481 34.5972 147.649 34.7018 147.85 34.7615C148.052 34.8175 148.235 34.825 148.399 34.7727C148.563 34.7242 148.739 34.6122 148.918 34.4442L149.15 34.2314Z" fill="white"/>
<path d="M70.2993 170.065L67.5779 169.352L67.1971 166.96C67.1075 166.392 67.0179 166.03 66.9283 165.869C66.8387 165.709 66.682 165.601 66.4654 165.545L65.6031 168.833L63.1953 168.203L65.3717 159.889L67.7832 160.52L66.947 163.712C67.1598 163.757 67.3464 163.719 67.4995 163.604C67.6563 163.488 67.9512 163.111 68.3805 162.476C68.6978 162.006 68.9778 161.681 69.2204 161.506C69.463 161.33 69.8065 161.248 70.2507 161.255C70.6912 161.267 71.3557 161.39 72.2442 161.621L71.785 163.38L71.6618 163.346C71.2512 163.238 70.9227 163.241 70.68 163.357C70.4374 163.473 70.2022 163.697 69.9782 164.037C69.7542 164.376 69.5414 164.619 69.3473 164.761C69.1532 164.906 68.9106 165 68.6269 165.041C68.9442 165.254 69.1905 165.541 69.3735 165.907C69.5526 166.273 69.7094 166.806 69.8364 167.512L70.2993 170.065Z" fill="white"/>
<path d="M76.7388 169.625L73.9353 169.214L73.338 170.562L70.8145 170.192L75.0664 162.129L77.7616 162.524L79.5161 171.469L76.9291 171.088L76.7388 169.625ZM76.4961 167.71L76.0631 164.525L74.7416 167.452L76.4961 167.71Z" fill="white"/>
<path d="M86.0242 167.027C86.9836 167.34 87.4427 168.009 87.4054 169.024C87.3755 169.864 87.0433 170.54 86.4162 171.055C85.789 171.57 84.9192 171.805 83.8143 171.764C81.9179 171.693 80.7718 170.805 80.3799 169.095L82.7429 168.994C82.8549 169.595 83.217 169.909 83.8367 169.931C84.1801 169.942 84.4451 169.86 84.6318 169.685C84.8184 169.509 84.9155 169.256 84.9267 168.927C84.9379 168.61 84.8371 168.348 84.6206 168.143C84.4003 167.938 84.1017 167.83 83.7135 167.815L83.034 167.788L83.0938 166.254L83.6276 166.273C83.9486 166.284 84.2025 166.206 84.3891 166.034C84.5795 165.862 84.6766 165.62 84.6915 165.302C84.7102 164.839 84.4451 164.593 83.8964 164.574C83.329 164.552 82.993 164.81 82.881 165.34L80.6599 164.981C81.078 163.507 82.1941 162.805 84.0046 162.872C85.0051 162.909 85.7853 163.145 86.3378 163.581C86.894 164.018 87.1553 164.586 87.1292 165.284C87.0918 166.135 86.726 166.713 86.0242 167.027Z" fill="white"/>
<path d="M93.8799 169.957L91.0541 170.159L90.7629 171.604L88.2207 171.787L90.636 162.995L93.3536 162.801L96.9933 171.16L94.3839 171.346L93.8799 169.957ZM93.2304 168.139L92.1217 165.119L91.461 168.263L93.2304 168.139Z" fill="white"/>
<path d="M96.6631 162.514L99.1157 162.043L99.6831 164.996L102.36 164.481L101.792 161.528L104.256 161.054L105.88 169.494L103.416 169.968L102.759 166.556L100.079 167.072L100.736 170.484L98.287 170.958L96.6631 162.514Z" fill="white"/>
<path d="M108.771 163.141L110.044 162.737C111.209 162.364 112.142 162.312 112.847 162.57C113.549 162.827 114.049 163.417 114.344 164.343C114.587 165.1 114.512 165.758 114.12 166.325C113.732 166.889 113.053 167.325 112.09 167.631L108.002 168.934L105.393 160.744L107.767 159.99L108.771 163.141ZM109.812 166.415L111.029 166.026C111.776 165.787 112.056 165.384 111.873 164.809C111.713 164.305 111.261 164.175 110.514 164.414L109.297 164.802L109.812 166.415Z" fill="white"/>
<path d="M78.0352 149.63H70.502C70.5878 148.839 70.8491 148.096 71.2859 147.398C71.7227 146.7 72.5439 145.879 73.7497 144.927C74.4851 144.344 74.9554 143.904 75.1607 143.601C75.3661 143.299 75.4706 143.012 75.4706 142.743C75.4706 142.452 75.3698 142.198 75.1645 141.993C74.9592 141.787 74.7053 141.683 74.3992 141.683C74.0782 141.683 73.8169 141.791 73.6116 142.004C73.41 142.217 73.2718 142.597 73.2009 143.139L70.6849 142.922C70.7819 142.168 70.9648 141.582 71.2262 141.16C71.4875 140.738 71.8608 140.413 72.3386 140.189C72.8164 139.966 73.4809 139.854 74.3283 139.854C75.213 139.854 75.8999 139.962 76.3926 140.175C76.8854 140.387 77.2699 140.72 77.5499 141.16C77.8299 141.604 77.9717 142.101 77.9717 142.653C77.9717 143.239 77.8112 143.799 77.4864 144.333C77.1654 144.867 76.5756 145.453 75.7282 146.091C75.2205 146.465 74.8845 146.722 74.7128 146.872C74.5411 147.021 74.3432 147.215 74.1118 147.454H78.0352V149.63Z" fill="#E6243E"/>
<path d="M79.0068 144.785C79.0068 142.956 79.3167 141.679 79.9364 140.947C80.556 140.216 81.4968 139.854 82.7622 139.854C83.3707 139.854 83.871 139.932 84.2592 140.092C84.6512 140.253 84.9685 140.458 85.2148 140.716C85.4612 140.973 85.6553 141.242 85.7972 141.522C85.939 141.806 86.0548 142.134 86.1406 142.508C86.3086 143.224 86.3945 143.971 86.3945 144.751C86.3945 146.495 86.1182 147.771 85.562 148.581C85.0058 149.391 84.0501 149.795 82.6951 149.795C81.9335 149.795 81.3213 149.664 80.8509 149.406C80.3806 149.149 79.9961 148.768 79.6974 148.271C79.4809 147.917 79.3092 147.432 79.1898 146.819C79.0666 146.207 79.0068 145.528 79.0068 144.785ZM81.4968 144.789C81.4968 146.013 81.5975 146.849 81.8029 147.297C82.0044 147.745 82.2994 147.969 82.6876 147.969C82.9414 147.969 83.1617 147.876 83.3483 147.685C83.535 147.495 83.6731 147.196 83.7627 146.782C83.8523 146.371 83.8971 145.729 83.8971 144.859C83.8971 143.583 83.7963 142.724 83.591 142.284C83.3857 141.843 83.0833 141.623 82.6727 141.623C82.2583 141.623 81.9597 141.847 81.773 142.295C81.5901 142.75 81.4968 143.579 81.4968 144.789Z" fill="#E6243E"/>
<path d="M87.3262 144.785C87.3262 142.956 87.636 141.679 88.2557 140.947C88.8754 140.216 89.8161 139.854 91.0816 139.854C91.6901 139.854 92.1903 139.932 92.5785 140.092C92.9705 140.253 93.2878 140.458 93.5342 140.716C93.7806 140.973 93.9747 141.242 94.1165 141.522C94.2584 141.806 94.3741 142.134 94.46 142.508C94.628 143.224 94.7138 143.971 94.7138 144.751C94.7138 146.495 94.4376 147.771 93.8814 148.581C93.3252 149.391 92.3695 149.795 91.0144 149.795C90.2529 149.795 89.6406 149.664 89.1703 149.406C88.6999 149.149 88.3154 148.768 88.0168 148.271C87.8003 147.917 87.6285 147.432 87.5091 146.819C87.3896 146.207 87.3262 145.528 87.3262 144.785ZM89.8161 144.789C89.8161 146.013 89.9169 146.849 90.1222 147.297C90.3238 147.745 90.6187 147.969 91.0069 147.969C91.2608 147.969 91.481 147.876 91.6677 147.685C91.8543 147.495 91.9925 147.196 92.0821 146.782C92.1716 146.371 92.2164 145.729 92.2164 144.859C92.2164 143.583 92.1157 142.724 91.9103 142.284C91.705 141.843 91.4026 141.623 90.992 141.623C90.5776 141.623 90.279 141.847 90.0923 142.295C89.9094 142.75 89.8161 143.579 89.8161 144.789Z" fill="#E6243E"/>
<path d="M95.6455 144.785C95.6455 142.956 95.9553 141.679 96.575 140.947C97.1947 140.216 98.1354 139.854 99.4009 139.854C100.009 139.854 100.51 139.932 100.898 140.092C101.29 140.253 101.607 140.458 101.854 140.716C102.1 140.973 102.294 141.242 102.436 141.522C102.578 141.806 102.693 142.134 102.779 142.508C102.947 143.224 103.033 143.971 103.033 144.751C103.033 146.495 102.757 147.771 102.201 148.581C101.644 149.391 100.689 149.795 99.3337 149.795C98.5722 149.795 97.96 149.664 97.4896 149.406C97.0193 149.149 96.6348 148.768 96.3361 148.271C96.1196 147.917 95.9479 147.432 95.8284 146.819C95.709 146.207 95.6455 145.528 95.6455 144.785ZM98.1392 144.789C98.1392 146.013 98.24 146.849 98.4453 147.297C98.6469 147.745 98.9418 147.969 99.33 147.969C99.5838 147.969 99.8041 147.876 99.9907 147.685C100.177 147.495 100.316 147.196 100.405 146.782C100.495 146.371 100.539 145.729 100.539 144.859C100.539 143.583 100.439 142.724 100.233 142.284C100.028 141.843 99.7257 141.623 99.3151 141.623C98.9007 141.623 98.6021 141.847 98.4154 142.295C98.2288 142.75 98.1392 143.579 98.1392 144.789Z" fill="#E6243E"/>
</svg>
