<svg width="174" height="173" viewBox="0 0 174 173" fill="none" xmlns="http://www.w3.org/2000/svg">
<path d="M86.6445 173C134.417 173 173.145 134.273 173.145 86.5C173.145 38.7274 134.417 0 86.6445 0C38.8719 0 0.144531 38.7274 0.144531 86.5C0.144531 134.273 38.8719 173 86.6445 173Z" fill="white"/>
<path fill-rule="evenodd" clip-rule="evenodd" d="M85.2652 65.5238L84.9577 65.4829L84.6621 65.4589L84.3882 65.4277L84.1479 65.4036L83.9269 65.3868L83.7491 65.3748L83.5857 65.3652H83.4896L83.4319 65.3748L83.3742 65.3868H83.343L83.319 65.3628L83.3142 65.3339V65.2691L83.319 65.1898L83.343 65.0456L83.367 64.9255V64.7188L83.3742 64.6347L83.3791 64.5819V64.5338L83.3742 64.517L83.3574 64.5002L83.319 64.4906H83.2517L83.1628 64.5002L83.0523 64.517L82.9177 64.5338L82.7808 64.5458L82.6198 64.5602L82.4612 64.5891L82.3074 64.6131H81.959L81.6611 64.6419H81.3415L81.255 64.6203L81.231 64.6011L81.2238 64.5482V62.6116L81.2117 62.5683L81.1973 62.5203H81.1781L81.1493 62.5587L81.094 62.6693L81.0652 62.7221L81.0363 62.7702L80.8345 63.0057L80.5942 63.2267L80.354 63.4526L80.1137 63.6736L80.0224 63.7385L79.9359 63.8274L79.8638 63.9067L79.8157 63.9908L79.7629 64.0941L79.71 64.1806L79.6668 64.2695L79.6644 64.4017L79.6163 64.5987L79.549 64.7813L79.4121 65.1177L79.2102 65.4445L79.1021 65.6031L78.9676 65.7712L78.6384 66.0596L78.3092 66.271L77.9848 66.4585L77.6604 66.6146L77.3409 66.766L77.0285 66.915L76.721 67.1168L76.5672 67.2369L76.4158 67.3667L76.4326 67.4388L76.4398 67.5349L76.4326 67.655L76.4158 67.7992L76.3966 67.9578L76.3485 68.1116L76.3005 68.2797L76.2212 68.4431L76.053 68.7867L75.8439 69.1159L75.6037 69.4187L75.3394 69.7262L75.0318 70.1107L74.7194 70.4639L74.3879 70.8003L74.0419 71.1367L73.8809 71.3L73.7655 71.4586L73.6694 71.6196L73.6454 71.6917L73.643 71.7566L73.816 71.819L73.9674 71.9031L74.0755 71.9993L74.1548 72.0954L74.2149 72.2107L74.2389 72.3308L74.2533 72.451L74.2389 72.5831L74.2076 72.7201L74.15 72.8546L73.9986 73.1189L73.816 73.3784L73.5925 73.6019L73.4243 74.8658L73.1961 76.1488L72.939 77.4463L72.6362 78.7246L72.2926 80.0077L71.925 81.274L71.531 82.4754L71.3243 83.0809L71.1129 83.6695L71.0312 84.3856L70.9639 85.1064L70.9158 85.8368L70.8918 86.5721V87.6581L70.9062 88.7394L70.9255 89.0638L70.9591 89.3665L71.0023 89.6861L71.0504 89.9985L71.1753 90.4358L71.3147 90.8683L71.4829 91.2719L71.6799 91.6564L71.913 92.012L72.1725 92.3556L72.4849 92.6607L72.6531 92.8049L72.8357 92.9395L73.136 93.2038L73.3955 93.4512L73.6238 93.7156L73.8256 93.9678L74.0082 94.2562L74.186 94.5637L74.2701 94.7463L74.4143 95.1452L74.4816 95.3687L74.5633 95.7411L74.6594 96.0631L74.7891 96.3634L74.9477 96.6349L75.1399 96.8752L75.361 97.1083L75.6253 97.3413L75.9377 97.5648L76.4278 97.9084L76.6801 98.091L76.9492 98.2928L77.2207 98.5403L77.4922 98.8191L77.6364 98.9776L77.7758 99.1458L77.9272 99.326L78.0713 99.5351L78.1434 99.7417L78.2155 99.9219L78.4005 100.278L78.6071 100.578L78.8426 100.818L79.1189 101.063L79.4313 101.265L79.7989 101.457L80.2146 101.645L80.551 101.808L80.8946 101.952L81.5722 102.265L81.8845 102.428L82.1969 102.62L82.4756 102.82L82.7279 103.065L82.824 103.396L82.8625 103.545L82.9105 103.689L82.9706 103.824L83.0571 103.956L83.1436 104.062L83.2493 104.168L83.3935 104.305L83.5376 104.42L83.7058 104.53L83.874 104.615L84.059 104.67L84.2345 104.727L84.4339 104.761L84.6165 104.766L84.8279 104.761L85.037 104.727L85.2292 104.684L85.4214 104.612L85.6064 104.506L85.7698 104.401L85.9236 104.257L86.063 104.105L86.1711 103.932L86.2744 103.74L86.3537 103.533L86.3969 103.317L86.4138 103.077V102.832L86.3753 102.567L86.3152 102.291L86.2191 102.099L86.1038 101.931L85.9981 101.762L85.8779 101.623L85.741 101.489L85.604 101.392L85.4527 101.296L85.2965 101.219L85.1451 101.157L84.9769 101.126L84.8087 101.114L84.6309 101.102L84.4507 101.119L84.2705 101.147L84.0686 101.203L83.8836 101.275L83.9269 101.337L83.9677 101.416L84.0254 101.505L84.0807 101.625L84.2104 101.849L84.3017 102.096L84.3354 102.152L84.3474 102.195L84.3354 102.226L84.3113 102.238L84.2825 102.25L84.2416 102.238L84.1936 102.226L84.1359 102.195L84.0398 102.113L83.9293 101.993L83.8139 101.849L83.6938 101.676L83.5737 101.491L83.4535 101.292L83.2181 100.864L82.9129 100.232L82.8264 100.047L82.7495 99.8787L82.6702 99.7345L82.6126 99.6192L82.5789 99.5471L82.4348 99.2828L82.2858 99.0329L82.1128 98.8118L81.911 98.6052L81.7548 98.4851L81.5722 98.3962L81.2117 98.228L81.1757 98.1847L81.1349 98.1054L81.07 98.0237L81.0027 97.918L80.8345 97.6681L80.6591 97.4158L80.4957 97.1275L80.3516 96.8872L80.2963 96.7719L80.2554 96.6758L80.2194 96.5917L80.2098 96.5268L80.7096 96.7623L81.231 96.9833L81.7692 97.1828L82.3266 97.351L82.8793 97.4951L83.4463 97.6201L84.023 97.7162L84.5876 97.7835L84.6934 97.9661L84.7943 98.1223L84.9793 98.4106L85.1619 98.6629L85.3493 98.8911L85.5752 99.117L85.8323 99.3525L85.9837 99.4678L86.1519 99.6L86.3393 99.7369L86.5267 99.8955L86.767 100.095L86.988 100.268L87.3292 100.612L87.4734 100.785L87.6175 100.984L87.7545 101.217L87.8987 101.481L88.0332 101.746L88.1702 101.993L88.3384 102.226L88.5234 102.447L88.7397 102.676L88.9271 102.916L89.0953 103.192L89.1553 103.341L89.2226 103.516L89.583 104.603L89.7945 105.146L90.0299 105.662H90.3495L90.6426 105.645L90.943 105.597L91.2313 105.518L91.5197 105.41L91.8032 105.266L92.1011 105.085L92.3991 104.876L92.3606 105.064L92.3294 105.227V105.407L92.3534 105.595L92.3823 105.643L92.4399 105.681L92.5192 105.705L92.6442 105.734L92.7763 105.749L92.9277 105.761L93.2641 105.773H93.6125L93.9657 105.749L94.2949 105.72L94.415 105.713L94.5448 105.696L95.0638 108.387L95.6164 108.377L96.1162 108.334L96.5967 108.262L97.0773 108.142L97.3031 108.07L97.5242 107.974L97.7404 107.866L97.9519 107.731L98.1681 107.594L98.3916 107.433L98.6079 107.25L98.8481 107.051L98.2474 106.035L97.6179 105.04L97.5098 104.812L97.4041 104.586L97.2455 104.153L97.1013 103.721L97.0292 103.48L96.8803 103.319L96.7001 102.93L96.5799 102.719L96.443 102.503L96.2748 102.257L96.1402 102.029L96.008 101.83L95.8951 101.65L95.7678 101.452L95.6572 101.284L95.5707 101.116L95.5059 100.955L95.4338 100.799L95.3857 100.612L95.3377 100.41L95.2896 100.169L95.1334 99.3284L94.9052 98.24L94.8427 98.0069L94.7826 97.8075L94.7105 97.6153L94.5183 97.2212L94.3982 97.0146L94.2877 96.7935L94.0282 96.3178L93.8023 95.8372L93.6053 95.3807L93.4611 94.9314L93.341 94.47L93.2569 93.9726L93.2088 93.4609L93.1968 93.1845V92.9058L93.1175 92.4445L93.0526 91.9735L92.8412 91.0845L92.6009 90.1907L92.4447 89.7534L92.3006 89.3041L92.1083 88.8716L91.9161 88.4511L91.784 88.0979L91.6831 87.7422L91.623 87.3914L91.5917 87.0214L91.6326 86.5841L91.6758 86.1564L91.6806 85.7576V85.3659L91.6758 84.9815L91.6326 84.609L91.5917 84.2486L91.5341 83.893L91.3731 83.1866L91.1761 82.4706L91.0607 82.1005L90.9286 81.7305L90.7964 81.3364L90.6475 80.9376L90.7291 80.8655L90.8421 80.8006L90.9382 80.7526L91.0655 80.7213L91.3154 80.6637L91.6038 80.6468L91.9329 80.6637L92.2741 80.7021L92.6514 80.755L93.0647 80.8343L93.4851 80.916L93.9369 81.0121L94.3934 81.1034L94.8932 81.1923L95.3905 81.274L95.9192 81.3364L96.4478 81.3845L97.0004 81.4133L97.2839 81.3893L97.5843 81.3533L97.8774 81.2884L98.1826 81.2163L98.4228 81.0962L98.6703 80.9472L98.7785 80.8559L98.8914 80.7526L98.9731 80.6372L99.0452 80.5171L98.8217 80.4883H98.4805L98.3916 80.469L98.3243 80.4498L98.2691 80.4114L98.245 80.3777L98.221 80.3225L98.2018 80.1903V80.1471L98.221 80.099L98.245 80.0606L98.2931 80.0173L98.4373 79.9404L98.6127 79.8756L98.8409 79.8203L99.0908 79.7554L99.3719 79.6977L99.6747 79.6449L100.323 79.5007L100.972 79.3421L101.27 79.2508L101.554 79.1451L101.811 79.025L102.041 78.8808L102.217 78.7511L102.371 78.6141L102.435 78.53L102.484 78.4531L102.517 78.381L102.534 78.3162H102.359L102.19 78.2921L102.046 78.2825L101.921 78.2585L101.806 78.2056L101.739 78.1528L101.695 78.0807V78.0903L101.719 78.0422L101.763 78.0062L101.811 77.9581L101.888 77.9221L101.984 77.874L102.195 77.7971L102.435 77.7299L102.714 77.653L103.298 77.4656L103.591 77.355L103.848 77.2349L104.093 77.098L104.228 76.9778L104.389 76.8336L104.533 76.6654L104.581 76.5837L104.612 76.5021L104.391 76.5333L104.165 76.5621L103.94 76.5862L103.711 76.6006L102.991 76.6486L102.229 76.6847L101.22 76.7039L100.211 76.6943L99.1965 76.6654L98.1874 76.6294L96.169 76.5333L94.1579 76.442L93.7014 76.4324L93.2521 76.442L92.7907 76.466L92.3582 76.5045L91.9113 76.5573L91.4548 76.6342L91.0103 76.7255L90.5417 76.8457L90.0371 77.0138L89.5278 77.1989L89.2707 77.3142L88.9895 77.4343L88.7012 77.5545L88.396 77.6986L88.2399 77.7659L88.1197 77.8092L88.0164 77.838L87.9131 77.8548H87.8242L87.7113 77.838L87.5671 77.8092L87.3989 77.7731L86.9183 77.629L86.6444 77.5136L86.3657 77.4512L86.0534 77.4752L85.7169 77.5064L85.371 77.5617L85.0226 77.629L84.3089 77.7395L83.9485 77.7731H83.6073L83.468 77.7683L83.3815 77.7443L83.3238 77.7203L83.295 77.6578V77.5929L83.3022 77.4968L83.3262 77.2469L83.3694 76.0095L83.4559 74.76L83.6434 72.2804V72.1698L83.6818 72.0857L83.7058 72.0569L83.7491 72.0281L83.8212 72.0137L83.9125 72.0016L84.2537 71.9872L84.5949 71.9584L84.9192 71.9103L85.2388 71.8311L85.4142 71.7734L85.5968 71.6965L85.9452 71.5043L86.2864 71.288L86.6228 71.1054L87.2475 71.0477L87.8843 71.0141L88.533 70.9901L89.1938 70.9805L89.3932 71.1102L89.5854 71.2183L89.7704 71.3073L89.8906 71.3313L90.0179 71.3433L90.1933 71.3313L90.3615 71.2832L90.5105 71.228L90.6378 71.1318L90.758 71.0261L90.8493 70.894L90.9142 70.745L90.9574 70.584L91.1208 70.5432L91.2818 70.4711L91.4115 70.3798L91.5076 70.2693L91.5557 70.1491V70.0963L91.5437 70.0386L91.5076 69.9857L91.4596 69.9377L91.4019 69.8896L91.3058 69.8512L91.1232 69.8271L90.9166 69.8175H90.0564L89.8882 69.8055L89.768 69.7863L89.6167 69.7454L89.5013 69.6974L89.4196 69.6253L89.3716 69.5676L89.3524 69.4956L89.362 69.4115L89.3932 69.3346L89.4413 69.2625L89.5013 69.1856L89.5734 69.1231L89.7656 69.0126L89.8497 68.9645L89.953 68.9477L90.054 68.9237L90.1405 68.9357L90.4456 68.8949L90.7916 68.8612L91.1617 68.8204L91.5461 68.7723L91.7695 68.7531L91.969 68.705L92.13 68.6378L92.178 68.5945L92.2357 68.5368L92.2717 68.484L92.3054 68.4119V68.2509L92.2813 68.1476L92.2429 68.0515L92.19 67.9386L92.118 67.8184L92.0098 67.7343L91.9329 67.667L91.7816 67.5229L91.6782 67.3691L91.6398 67.273L91.611 67.1721L91.5076 66.8357L91.4548 66.6747L91.3827 66.5305L91.2626 66.4008L91.1905 66.3359L91.1088 66.2782L91.0055 66.2206L90.8853 66.1821L90.746 66.1437L90.5922 66.1052L89.9915 66.0668L89.3788 66.0235L88.1149 65.9034L86.8487 65.7496L85.5824 65.5646L85.2604 65.5238H85.2652ZM80.4957 78.2777L80.5053 77.7106L80.539 77.122L80.563 76.5261L80.6591 75.3151L80.7624 74.1137L80.8057 73.5466L80.8585 73.006L80.897 72.4894L80.945 72.0041L80.9811 71.5571L80.9955 71.1535L81.0436 71.0982L81.0628 71.0429V70.9637L81.0748 70.9204L81.0988 70.8964L81.1709 70.8772L81.2262 70.8675L81.3031 70.8555L81.5313 70.9396L81.7283 71.0405L81.9013 71.1367L82.0287 71.2472L82.1416 71.3673L82.2305 71.4875L82.3843 71.7638L82.4396 71.8839L82.4732 71.9944L82.4972 72.0906V72.1819L82.4732 72.3501L82.4251 72.5182L82.2281 73.1814L82.0719 73.8302L81.8076 75.0988L81.6587 75.9014L81.5217 76.7279L81.4016 77.5449L81.291 78.345L81.219 78.7967L81.1589 79.2388L81.1276 79.6401L81.0796 80.0197L81.0556 80.26L81.0315 80.4859L81.0195 80.6781L81.0123 80.8583L80.9931 81.0505L80.9787 81.2499L80.9306 81.471L80.921 81.5191L80.897 81.5479L80.8802 81.5527L80.8561 81.5383L80.8321 81.4902L80.8081 81.4181L80.772 81.3148L80.7312 81.1803L80.6903 81.0001L80.6303 80.7478L80.5894 80.4594L80.5486 79.8227L80.5125 79.3277L80.4933 78.7991V78.2465L80.4957 78.2777ZM80.2074 98.2928L80.3179 98.413L80.4236 98.5235L80.5029 98.6004L80.5942 98.7085L80.6591 98.8239L80.7144 98.9272L80.7576 99.0233L80.7817 99.105V99.1771L80.7744 99.254L80.7504 99.3164L80.6591 99.427L80.5918 99.4606L80.5077 99.499L80.3107 99.5543L80.0704 99.5928L79.71 99.0954L78.9531 98.0213L78.5615 97.4807L78.1458 96.9521L77.7133 96.4547L77.4898 96.2217L77.2496 96.0006L77.0213 95.8012L76.793 95.6185L76.6561 95.5224L76.5359 95.4383L76.435 95.3494L76.3629 95.2726L76.3077 95.1909L76.2644 95.1068V95.0179L76.3077 94.9266L76.4038 94.7968L76.5071 94.6767L76.608 94.5565L76.7041 94.4748L76.8675 94.3547L77.0357 94.2634L77.1991 94.2057L77.3673 94.1817H77.5235L77.6797 94.2057L77.8406 94.2634L77.9848 94.3355L78.129 94.4316L78.2659 94.5517L78.3861 94.6959L78.5014 94.8545L78.6095 95.0371L78.7009 95.2293L78.7825 95.4311L78.8546 95.6522L78.9027 95.8156L78.9676 96.015L79.0493 96.2217L79.1333 96.4379L79.3448 96.8872L79.5779 97.3269L79.8229 97.7522L79.9431 97.9396L80.068 98.1223L80.181 98.2808L80.2074 98.2928ZM81.6827 91.7236L81.6635 91.8005L81.6346 91.863L81.5818 91.9279L81.5097 91.9952L81.4136 92.06L81.3079 92.1177L81.1637 92.161L81.0147 92.1994L80.8513 92.2354L80.6591 92.2547L80.587 92.2354L80.4909 92.2162L80.39 92.1754L80.2627 92.1513L79.9887 92.0745L79.6812 91.9856L79.3688 91.9039L79.0805 91.8318L78.9483 91.8077L78.8282 91.7837L78.7321 91.7453L78.6432 91.7309L78.451 91.7164H78.2635L77.9079 91.7309L77.3793 91.7717L77.1799 91.7573L76.6753 91.5314L76.2308 91.2912L76.0001 91.171L75.7502 91.0076L75.4619 90.8346L75.3009 90.7313L75.1279 90.6232V90.6136L75.0967 90.5655L75.0486 90.4646L74.9934 90.33L74.9333 90.1618L74.8612 89.9648L74.7891 89.7654L74.717 89.5299L74.5729 89.0542L74.4527 88.588L74.4047 88.379L74.371 88.182L74.347 88.009V87.8648L74.4912 87.7615L74.6354 87.6846L74.7891 87.6173L74.9405 87.5765L75.0895 87.5476L75.2432 87.5284L75.546 87.5404L75.7863 87.723L76.0698 87.9321L76.3533 88.1531L77.3144 88.8932L77.9536 89.4074V89.5756L77.9776 89.7293L78.0016 89.8615L78.0497 89.9864L78.1049 90.0898L78.1674 90.1715L78.2467 90.2508L78.3332 90.3132L78.5206 90.4045L78.7321 90.4526L78.9483 90.4646L79.1646 90.4526L79.7773 90.7313L80.402 90.9956L80.7024 91.1158L80.9739 91.2239L81.219 91.3152L81.5073 91.4377L81.5674 91.4906L81.6274 91.5458L81.6611 91.6011L81.6803 91.6636V91.7309L81.6827 91.7236ZM85.4238 88.1531L85.2893 88.2733L85.0586 88.5183L84.8568 88.7274L84.6886 88.9244L84.5276 89.1118L84.3834 89.3041L84.1143 89.6885L84.0374 89.9047L83.9581 90.0874L83.898 90.2363L83.8212 90.3565L83.7635 90.4646L83.6962 90.5463L83.6289 90.6184L83.5569 90.6664L83.3839 90.7385L83.2878 90.7673L83.1676 90.7914L83.0403 90.8106L82.8913 90.825L82.7279 90.849L82.5357 90.8779L82.4516 90.7866L82.3795 90.6977L82.2834 90.5343L82.2497 90.4526L82.2257 90.3565L82.2161 90.2604L82.2257 90.1402L82.4131 90.0778L82.5741 90.0105L82.7135 89.948L82.8288 89.8591L82.9345 89.7774L83.0186 89.6933L83.0907 89.6044L83.1532 89.5083L83.2253 89.3161L83.2733 89.1142L83.2853 88.898L83.2733 88.6721L83.1676 88.4319L83.0475 88.2084L82.9081 88.0114L82.7495 87.8528L82.5621 87.7038L82.3699 87.5837L81.9302 87.3578L81.8869 87.2761L81.8389 87.1656L81.7356 86.9157L81.6587 86.6274L81.6394 86.4784L81.6491 86.3342L81.7692 86.1756L81.9278 86.0315L82.1032 85.9354L82.3026 85.8561L82.627 85.8417L82.9682 85.8537L83.3286 85.8777L83.6938 85.9209L84.0446 85.9882L84.3762 86.0843L84.679 86.1901L84.8183 86.2573L84.9433 86.3342L85.0754 86.6057L85.1859 86.8292L85.2821 87.031L85.3613 87.1944L85.4166 87.353L85.4647 87.5092L85.5247 87.7855V87.8263L85.5319 87.9056L85.5512 87.9777L85.5752 88.045L85.4262 88.182L85.4238 88.1531ZM92.2645 103.002L91.8945 102.743L91.5581 102.483L91.2626 102.207L90.9838 101.926L90.7628 101.65L90.585 101.376L90.4528 101.087L90.412 100.938L90.3783 100.789L90.0732 100.583L89.8017 100.376L89.5614 100.191L89.3331 99.994L89.1289 99.8018L88.9415 99.6048L88.7661 99.4125L88.6171 99.2011L88.4681 98.9752L88.3336 98.747L88.2086 98.4923L88.0837 98.2136L87.9636 97.9204L87.8554 97.6032L87.7281 97.2476L87.5983 96.8632L87.4854 96.6662L87.3532 96.5124L87.2091 96.3682L87.0481 96.2529L86.8799 96.152L86.7165 96.0703L86.3729 95.9213L86.2047 95.8492L86.0534 95.7603L85.914 95.6642L85.789 95.5681L85.6929 95.436L85.6256 95.287L85.6016 95.114V94.8977L85.6737 94.6478L85.7746 94.4124L85.9068 94.1793L86.075 93.9462L86.2071 93.79L86.4714 93.5257L86.5916 93.4296L86.6973 93.3575L86.8078 93.3023L86.9135 93.259L87.0048 93.235H87.1058L87.1899 93.247L87.2908 93.2758L87.3677 93.3143L87.5359 93.4344L87.6944 93.5906L87.8578 93.79L88.0092 94.0111L88.1654 94.2634L88.3432 94.5109L88.5258 94.7848L88.7228 95.0443L88.9511 95.2966L89.1866 95.5369L89.386 95.6858L89.5782 95.83L89.7296 95.9862L89.8858 96.1303L90.1501 96.4307L90.3663 96.7334L90.5345 97.041L90.6739 97.3534L90.794 97.6657L90.8949 97.9853L91.0703 98.634L91.152 98.9704L91.253 99.3068L91.3731 99.6504L91.5293 99.9868L91.7071 100.342L91.9233 100.703L92.0339 101.015L92.1396 101.287L92.2117 101.551L92.2765 101.803L92.315 102.058L92.339 102.322L92.351 102.635L92.3414 102.978L92.2861 102.995L92.2645 103.002ZM94.3309 101.921H94.379L94.4799 101.974L94.6 102.065L94.737 102.197L94.8763 102.358L95.0277 102.541L95.1815 102.757L95.3329 102.973L95.6308 103.42L95.775 103.641L95.8951 103.85L95.9912 104.035L96.0873 104.187L96.1522 104.307L96.2003 104.403L96.2483 104.533L96.2868 104.67L96.2964 104.8L96.2724 104.92L96.2147 105.035L96.1042 105.15L95.9528 105.246L95.7702 105.367L95.5635 105.458L95.3401 105.54L95.0998 105.602L94.8427 105.657L94.7946 105.285L94.7466 104.917L94.7105 104.581L94.6697 104.261L94.6072 103.685L94.5255 103.115L94.3333 103.127L94.0474 103.154L93.9993 103.142L93.9513 103.118L93.9417 102.959L93.9513 102.786L93.9633 102.599L93.9993 102.426L94.0474 102.257L94.1026 102.104L94.1843 101.996L94.2805 101.923H94.3141L94.3309 101.921ZM90.3856 92.1778L90.4913 92.2306L90.7316 92.3796L90.991 92.5718L91.2626 92.7977L91.5317 93.0572L91.8008 93.3696L92.0459 93.6939L92.0747 93.8381L92.0987 93.9943V94.3259L92.0891 94.6262L92.1083 94.7776L92.1492 94.9145L92.3078 95.299L92.4591 95.6522L92.9205 96.6277L93.0406 96.9449L93.1848 97.2813L93.2761 97.4663L93.3722 97.6537L93.4371 97.7666L93.5092 97.8483L93.6677 97.9973L93.8167 98.1343L93.896 98.2184L93.9441 98.3145L93.9969 98.4706L94.045 98.634L94.1219 98.9824L94.1867 99.3501L94.2156 99.5231L94.2276 99.6816L94.1747 99.7946L94.1026 99.9147L94.021 100.025L93.9321 100.121L93.8215 100.141H93.7086L93.5884 100.129L93.4443 100.141L93.1896 99.8643L92.9782 99.5759L92.7787 99.2636L92.5961 98.944L92.548 98.795L92.536 98.6509L92.548 98.3962L92.5649 98.1319L92.548 97.9997L92.524 97.87L92.4039 97.5696L92.2717 97.2645L91.9666 96.671L91.6206 96.0943L91.2602 95.5537L91.0824 95.4239L90.8973 95.3182L90.7195 95.2365L90.5321 95.1788L90.2966 94.8905L89.8882 94.2177L89.7104 93.8573L89.5566 93.5017L89.4196 93.1605L89.3307 92.8578L89.3067 92.7136L89.2827 92.5838L89.4148 92.4084L89.5013 92.3195L89.5974 92.2475L89.7032 92.185L89.8305 92.1297L89.9627 92.0769L90.114 92.0624L90.1909 92.0865L90.2822 92.1297L90.3856 92.173V92.1778ZM83.3166 78.554L83.3502 78.5372L83.3839 78.5252L83.4319 78.5156H83.5785L83.8188 78.506L84.0446 78.5204L84.2753 78.5492L84.5204 78.5853L84.9937 78.6934L85.4502 78.8135L85.8467 78.9241L86.2167 79.0394L86.5195 79.1307L86.654 79.1691L86.7742 79.1932L86.8631 79.2172H86.9256L86.9424 79.2052L86.9496 79.1763L86.9592 79.1283V78.9553L86.9496 78.8784L86.9328 78.8111V78.7294L86.9568 78.691L87.0048 78.6886L87.101 78.691L87.3364 78.7198L87.5575 78.7751L87.7833 78.8664L87.9756 78.9865L88.1918 79.1355L88.3792 79.3109L88.5667 79.5031L88.7517 79.7242L88.9151 79.9693L89.076 80.2192L89.2322 80.5003L89.3716 80.7886L89.5013 81.0817L89.6287 81.3989L89.8401 82.0597L90.0155 82.7421L90.1501 83.4293L90.2126 84.1141L90.2654 84.7868V85.1136L90.2534 85.426L90.2126 85.7335L90.1717 86.0339L90.1236 86.3054L90.0636 86.5697L89.9771 86.81L89.8858 87.0358L89.7801 87.2377L89.6527 87.4107L89.3884 87.4924L89.1529 87.5692L88.9535 87.6365L88.7733 87.699L88.6219 87.7663L88.497 87.8143L88.3768 87.8696L88.2735 87.9176V88.0474L88.2855 88.1387L88.3192 88.2348L88.3384 88.2901L88.3792 88.3622L88.5594 88.3862L88.7613 88.4295L88.9367 88.4871L89.0088 88.5111L89.0736 88.5472L89.1217 88.5784L89.1697 88.6361L89.2947 88.773L89.4148 88.958L89.5446 89.1983L89.6647 89.4242L89.7801 89.6765L89.8689 89.9408L89.929 90.1955L89.9218 90.2844L89.8569 90.3661L89.7536 90.4334L89.6167 90.4934L89.4485 90.5415L89.2731 90.5799L88.8886 90.6328L88.7276 90.5751L88.5835 90.4862L88.4633 90.4045L88.3432 90.3132L88.151 90.1042L87.9732 89.9119L87.793 89.7293L87.6968 89.6404L87.5815 89.5611L87.4542 89.5083L87.31 89.4554L87.1514 89.4266L86.964 89.4098L86.7237 89.465L86.4786 89.5035L86.3825 89.5083H86.1639L86.0966 89.4963L86.0605 89.4074L86.0461 89.3257L86.0269 89.1815L86.075 89.0445L86.1398 88.9124L86.308 88.8019L86.4714 88.7058L86.6564 88.6169L86.8078 88.5448L86.8799 88.5207L86.9232 88.5111L86.9712 88.4871L86.9832 88.4703L86.9952 88.4415V88.3934L86.9832 88.3213L86.9352 87.9969L86.8727 87.6894L86.7886 87.4011L86.6973 87.1031L86.5771 86.8388L86.4522 86.5745L86.3128 86.3102L86.1639 86.0603L85.8275 85.5653L85.4599 85.1016L85.0706 84.6451L84.6621 84.1934L84.5108 84.0131L84.3522 83.8209L84.0542 83.4196L83.8139 83.064L83.7299 82.9271L83.6818 82.819L83.4583 81.8194L83.3766 81.3196L83.3046 80.815L83.2565 80.3008L83.2325 79.8011L83.2445 79.2869L83.3022 78.7679L83.319 78.6766L83.331 78.6213L83.343 78.5732L83.3166 78.554ZM85.258 66.5017L85.2484 66.5498L85.2196 66.605L85.1667 66.6603L85.1042 66.7083L85.0322 66.7324L84.9264 66.7612L84.7919 66.7732H84.6573L84.5732 66.7492L84.4699 66.7155L84.3498 66.6579L84.2296 66.593L84.1095 66.5161L84.0182 66.4392L83.9461 66.3816L83.9173 66.3335L84.0374 66.2374L84.1696 66.1653L84.3041 66.1172L84.4339 66.086L84.6862 66.0524L84.9264 66.0716L85.0706 66.1485L85.1907 66.2446L85.2532 66.3647L85.2772 66.4224V66.4897L85.258 66.5017ZM89.9915 66.939L90.0684 66.8861L90.2462 66.7948L90.4288 66.7468L90.6114 66.7372L90.7796 66.754L90.9382 66.802L91.0487 66.8669L91.1208 66.939L91.1448 67.0591L91.1328 67.1553L91.0896 67.2273L91.0175 67.2922L90.9166 67.3331L90.7964 67.3475L90.6763 67.3379L90.5273 67.3018L90.3543 67.2369L90.2029 67.1745L90.066 67.0952L89.905 67.0135L89.9843 66.9342L89.9915 66.939Z" fill="#010F23"/>
<path d="M72.5115 129.582H73.9219V136.653H76.1926V127.587H72.5115V129.582Z" fill="#010F23"/>
<path fill-rule="evenodd" clip-rule="evenodd" d="M79.0687 130.632C79.0687 128.796 80.4623 127.268 82.6248 127.268C84.7873 127.268 86.1329 128.638 86.1329 130.632C86.1329 131.869 85.4961 132.958 84.7224 134.087L82.9684 136.651H80.4455L82.3076 133.94L81.9712 133.928C80.2052 133.832 79.0879 132.518 79.0879 130.632H79.0687ZM81.3802 130.62C81.3802 131.43 81.9088 131.989 82.6176 131.989C83.2952 131.989 83.8262 131.509 83.8262 130.62C83.8262 129.779 83.2567 129.274 82.6176 129.274C81.94 129.274 81.3802 129.755 81.3802 130.62ZM88.4083 131.735V131.759C87.464 132.158 86.8657 132.994 86.8657 134.162C86.8657 135.663 88.0118 136.968 90.3209 136.968C92.63 136.968 93.7497 135.517 93.7497 134.085C93.7497 132.994 93.221 132.17 92.1566 131.785V131.761C92.9255 131.482 93.4733 130.752 93.4733 129.743C93.4733 128.479 92.3008 127.321 90.3209 127.321C88.2737 127.321 87.13 128.491 87.13 129.901C87.13 130.742 87.5697 131.391 88.4035 131.761L88.4083 131.735ZM90.2945 129.104C90.8423 129.104 91.2556 129.493 91.2556 130.103C91.2556 130.675 90.8711 131.141 90.2945 131.141C89.8043 131.141 89.3526 130.714 89.3526 130.103C89.3526 129.493 89.7779 129.104 90.2945 129.104ZM90.3497 132.693C90.9985 132.693 91.467 133.186 91.467 133.914C91.467 134.62 91.0033 135.111 90.3497 135.111C89.677 135.111 89.2036 134.592 89.2036 133.914C89.206 133.184 89.6962 132.693 90.3497 132.693Z" fill="#010F23"/>
<path d="M99.3193 136.653H97.0511V129.582H95.6383V127.587H99.3193V136.653Z" fill="#010F23"/>
<path fill-rule="evenodd" clip-rule="evenodd" d="M30.7271 86.5C30.7271 55.6171 55.764 30.5826 86.6469 30.5826C117.53 30.5826 142.564 55.6171 142.564 86.5C142.564 117.383 117.53 142.417 86.6445 142.417C55.7592 142.417 30.7271 117.383 30.7271 86.5ZM112.45 49.9946L104.19 34.6817C99.722 33.1706 95.077 32.2466 90.3712 31.9329C92.8802 42.0402 98.7712 50.9852 107.066 57.2822L112.448 49.9946H112.45ZM89.0954 31.8608C88.2789 31.8245 87.4618 31.8061 86.6445 31.8056C85.8249 31.8059 85.0053 31.8243 84.1865 31.8608C81.6708 42.3778 75.5749 51.7078 66.9417 58.2914L69.3277 61.5159C74.4083 57.9759 80.4523 56.079 86.6445 56.0808C92.8313 56.072 98.8722 57.9587 103.954 61.4871L106.338 58.2674C97.7107 51.7224 91.617 42.3913 89.093 31.8608H89.0954ZM86.6445 115.655C102.743 115.655 115.8 102.603 115.8 86.5C115.8 70.3966 102.743 57.3471 86.6445 57.3471C70.5459 57.3471 57.4892 70.4014 57.4892 86.5C57.493 94.2313 60.566 101.645 66.0328 107.112C71.4997 112.579 78.9132 115.651 86.6445 115.655ZM66.2209 57.2822C74.5141 50.9838 80.4046 42.0394 82.9154 31.9329C78.2829 32.2453 73.7849 33.1343 69.568 34.5279L60.8387 49.9778L66.2209 57.2582V57.2822ZM59.7142 49.4972L67.8188 35.1286C58.2028 38.6535 49.8532 44.8022 43.6348 52.7073L59.7142 49.4972ZM59.8488 50.7178L42.5175 54.1778C39.7543 57.9502 37.4573 62.0878 35.7177 66.5089C46.2428 67.1694 56.6717 64.1637 65.231 58.0031L59.8488 50.7178ZM38.589 67.8304C37.4837 67.8304 36.3736 67.7896 35.2611 67.7103C34.7493 69.1087 34.2952 70.5311 33.8988 71.98C43.0629 77.6025 49.9974 86.2405 53.5895 96.4115L57.434 95.1092C56.6211 92.3121 56.2149 89.4127 56.2278 86.5C56.2278 76.5765 60.9805 67.7583 68.3378 62.2319L65.935 59.017C57.9661 64.7431 48.4018 67.8256 38.589 67.8304ZM33.5744 73.2174C32.5123 77.4704 31.9477 81.9227 31.9477 86.5048V86.7859L43.8487 99.6888L52.4266 96.8055C48.9983 87.0322 42.3487 78.7151 33.5696 73.2198L33.5744 73.2174ZM43.0293 100.602L31.9885 88.6313C32.3638 98.7122 35.5359 108.49 41.1503 116.871L43.0293 100.604V100.602ZM44.2307 100.849L42.2028 118.394C44.9611 122.229 48.2001 125.665 51.8403 128.693C55.6847 118.894 56.0596 108.029 52.8014 97.9372L44.2115 100.821L44.2307 100.849ZM53.9788 97.572C57.3427 108.036 56.9414 119.341 52.8326 129.498C53.9691 130.392 55.1401 131.242 56.3431 132.045C64.6526 125.016 75.1489 121.097 86.0318 120.961V116.914C72.9175 116.655 61.8358 108.096 57.8304 96.2505L53.9812 97.548L53.9788 97.572ZM101.301 139.212L103.068 138.691C107.621 137.261 111.91 135.25 115.862 132.749C107.837 126.059 97.7309 122.328 87.25 122.188H86.0486C75.5653 122.328 65.4568 126.033 57.4556 132.746C61.3011 135.184 65.4374 137.129 69.7674 138.537L71.5455 139.082C76.351 140.464 81.4281 141.204 86.683 141.204C91.6376 141.206 96.5697 140.537 101.345 139.215L101.301 139.212ZM87.2524 120.963C98.1339 121.101 108.628 125.021 116.936 132.049C118.142 131.246 119.315 130.395 120.454 129.5C116.344 119.322 115.937 108.024 119.305 97.5768L115.456 96.2793C111.444 108.101 100.367 116.655 87.2524 116.914L87.2548 120.961L87.2524 120.963ZM120.464 97.9685C117.228 108.018 117.575 118.878 121.446 128.7C124.953 125.804 128.087 122.483 130.776 118.815L129.046 100.854L120.468 97.9709L120.464 97.9685ZM130.25 100.621L131.86 117.287C137.379 109.189 140.784 99.5351 141.272 89.1166L130.25 100.621ZM141.303 87.2857L141.308 86.5072C141.311 82.0292 140.765 77.5677 139.683 73.2223C130.903 78.7161 124.253 87.0337 120.826 96.8079L129.414 99.6961L141.301 87.2881L141.303 87.2857ZM119.666 96.4163C123.234 86.2453 130.19 77.6121 139.359 71.9848C138.96 70.5359 138.504 69.1111 137.989 67.7127C136.88 67.7934 135.769 67.8342 134.657 67.8352C124.834 67.8303 115.261 64.7398 107.289 59.0002L104.915 62.2127C108.686 65.0407 111.747 68.7075 113.855 72.9229C115.964 77.1384 117.062 81.7867 117.064 86.5C117.064 89.4891 116.631 92.3772 115.826 95.1068L119.671 96.409L119.666 96.4163ZM108.017 58.0127C116.595 64.1782 127.033 67.1841 137.54 66.5185C135.868 62.2608 133.676 58.265 131.045 54.6079L113.399 50.7635L108.017 58.0439V58.0127ZM105.855 35.3064L113.544 49.5164L129.923 53.111C123.712 45.0621 115.385 38.8979 105.874 35.3064H105.855ZM86.6445 0C38.8725 0 0.144531 38.728 0.144531 86.5C0.144531 134.272 38.8725 173 86.6445 173C134.417 173 173.145 134.272 173.145 86.5C173.145 38.728 134.417 0 86.6445 0ZM86.6445 172.279C39.2546 172.279 0.865365 133.89 0.865365 86.5C0.865365 39.11 39.2546 0.720833 86.6445 0.720833C134.035 0.720833 172.424 39.11 172.424 86.5C172.424 133.89 134.035 172.279 86.6445 172.279Z" fill="#010F23"/>
<path d="M111.007 21.8823C111.262 21.2407 110.983 20.6737 110.272 20.3854L109.705 20.1595L108.859 22.286L109.426 22.5118C110.128 22.7929 110.724 22.5983 111.005 21.8871L111.007 21.8823ZM73.231 19.8567C73.9519 19.7054 74.3652 19.22 74.2114 18.4631C74.072 17.7856 73.5338 17.4588 72.7793 17.6126L72.1786 17.7327L72.6303 19.9745L73.231 19.8543V19.8567ZM39.7555 37.4739C40.7311 36.5176 40.6446 34.9654 39.5873 33.8842C38.5493 32.8173 37.0548 32.6059 36.0216 33.6151C35.0557 34.5642 35.1086 36.126 36.1802 37.2192C37.2518 38.3125 38.7872 38.4206 39.7844 37.4763L39.7555 37.4739ZM26.3168 51.5061C26.6964 50.8334 27.2923 50.6411 27.8954 50.9775C28.5682 51.3572 28.6787 51.9699 28.3039 52.6306L28.006 53.1593L26.0116 52.0347L26.3144 51.5061H26.3168ZM19.0892 103.002C17.9431 103.353 17.465 104.283 17.7821 105.309L21.4824 104.168C21.1941 103.24 20.269 102.635 19.0892 103.002ZM18.4885 107.585C18.8081 108.613 19.7092 109.115 20.8913 108.757C22.0735 108.399 22.494 107.371 22.2129 106.443L18.5126 107.585H18.4885ZM70.8403 153.778L70.9052 153.79L70.91 153.965L70.922 154.345L70.9772 154.934L71.1863 156.959L69.2641 156.558L70.2732 154.804L70.6961 154.021L70.7201 153.98L70.7273 153.97L70.8235 153.778H70.8403ZM103.518 153.475V153.187L103.581 153.172L103.672 153.341L103.679 153.353L103.693 153.382L103.729 153.442L104.157 154.158L105.258 155.876L103.379 156.366L103.494 154.347L103.518 153.47V153.475ZM151.862 107.943C151.605 108.668 151.057 108.969 150.403 108.743C149.673 108.493 149.454 107.909 149.683 107.193L149.88 106.616L152.042 107.368L151.84 107.945L151.862 107.943Z" fill="#0D3774"/>
<path fill-rule="evenodd" clip-rule="evenodd" d="M86.6435 4.61353C41.4184 4.61353 4.75684 41.2751 4.75684 86.5002C4.75684 131.725 41.4184 168.387 86.6435 168.387C131.869 168.387 168.53 131.725 168.53 86.5002C168.53 41.2751 131.869 4.61353 86.6435 4.61353ZM159.849 73.1504L150.992 75.1086L150.497 72.874L157.364 71.3555L156.826 68.9239L152.535 69.5198C150.577 69.7841 149.611 69.3516 149.226 67.612C149.142 67.2467 149.118 66.8839 149.142 66.622L151.052 66.1967C151.036 66.3097 151.045 66.5403 151.084 66.7205C151.187 67.1771 151.377 67.3765 152.04 67.2852L158.352 66.3961L159.847 73.148L159.849 73.1504ZM149.692 46.2296L150.846 48.308L147.405 50.2134L152.408 51.1217L153.796 53.635L148.078 52.3471L145.908 58.1042L144.466 55.5092L146.355 50.7901L142.914 52.6955L141.761 50.6123L149.695 46.2248L149.692 46.2296ZM133.334 24.052L134.406 24.9218C134.19 25.2486 134.319 25.6571 134.733 25.9934C135.146 26.3298 135.578 26.3899 135.848 26.0968L136.919 26.9714C136.047 27.9397 134.8 27.8508 133.851 27.0771C132.758 26.1881 132.601 25.0636 133.334 24.0496V24.052ZM130.42 25.3976L132.193 26.8392L129.55 30.0878C129.322 30.3665 128.87 30.9047 128.596 31.1931L128.63 31.2171C129.048 30.9936 129.483 30.7774 130.72 30.304L134.601 28.8023L136.292 30.1767L130.573 37.2096L128.8 35.7679L131.29 32.7044C131.521 32.4314 131.755 32.1615 131.994 31.8947L132.354 31.4862L132.315 31.4526C131.801 31.7048 131.347 31.8802 129.672 32.5242L126.373 33.7977L124.691 32.4281L130.415 25.3976H130.42ZM118.636 18.2565L115.285 26.6806L113.074 25.7988L116.426 17.3795L118.636 18.2589V18.2565ZM109.369 14.561L111.58 15.4404L110.33 18.5761L111.229 18.9365C113.247 19.7414 113.872 21.2095 113.228 22.7641C112.586 24.3692 110.945 24.9434 109.088 24.2058L106.012 22.9852L109.364 14.561H109.369ZM88.3399 11.077L90.7114 11.262L90.4543 14.6259L93.2656 14.8422L93.5227 11.4783L95.8918 11.6585L95.2046 20.6977L92.8331 20.5151L93.1094 16.8725L90.2981 16.6562L90.0218 20.2989L87.6503 20.1186L88.3375 11.077H88.3399ZM71.1744 12.7541L71.8424 16.0628L72.7939 15.8705C74.9155 15.438 76.2251 16.3415 76.5542 17.985C76.9002 19.6789 75.8334 21.0605 73.8799 21.4546L70.6362 22.1106L68.8413 13.2203L71.172 12.7517L71.1744 12.7541ZM55.96 17.651L60.1312 25.6955L58.1033 26.7479L54.8644 20.5079L52.6586 21.6516L54.3406 25.6402C55.1046 27.4591 54.9292 28.5091 53.3482 29.3285C53.019 29.4967 52.6754 29.6168 52.4111 29.6649L51.5125 27.9301C51.6278 27.9181 51.8441 27.8484 52.0075 27.7619C52.4207 27.5456 52.5649 27.2813 52.3054 26.6951L49.8185 20.8323L55.9552 17.651H55.96ZM34.5345 32.0773C36.6777 29.9869 39.5635 30.3953 41.3199 32.1926C43.1604 34.074 43.2277 37.0702 41.2622 38.9925C38.8763 41.3232 36.0098 40.5014 34.4504 38.906C32.6483 37.063 32.5233 34.0427 34.5345 32.0725V32.0773ZM23.1573 46.7582L24.9185 47.7506L23.3519 50.5282L24.5293 51.1938L25.005 50.3528C26.0695 48.4618 27.6073 48.063 29.0657 48.9111C30.5699 49.7593 30.9159 51.4701 29.9403 53.2073L28.3137 56.0906L20.4229 51.6119L23.1621 46.7582H23.1573ZM15.6534 63.3374L17.6237 63.854L17.1095 65.8195L23.9094 67.6023L23.3087 69.9162L16.5088 68.1334L15.9922 70.0988L14.0268 69.5822L15.6606 63.335L15.6534 63.3374ZM12.4097 87.1585L15.3411 85.628C15.6602 85.4642 15.9874 85.3166 16.3214 85.1859V85.1618C16.1238 85.1111 15.9289 85.0501 15.7375 84.9792C15.6087 84.9306 15.4805 84.8801 15.3531 84.8279L12.3977 83.6217L12.3929 81.1228L19.3249 84.3305C20.8386 85.0321 21.5739 85.9211 21.5763 87.1417C21.564 87.4985 21.5059 87.8522 21.4033 88.1942H19.4522C19.5155 87.9593 19.5541 87.7185 19.5676 87.4757C19.5676 87 19.4474 86.7477 18.8131 86.4017L18.5728 86.2815L12.4121 89.7175L12.4097 87.1537V87.1585ZM21.5643 111.061C19.4426 111.717 17.6093 110.557 16.7587 108.123L15.9177 108.382L15.2161 106.107L16.0571 105.847C15.4083 103.293 16.2325 101.369 18.3638 100.705C20.471 100.052 22.3043 101.157 23.2054 103.637L24.1232 103.356L24.8248 105.626L23.907 105.91C24.5653 108.481 23.6571 110.413 21.5619 111.059L21.5643 111.061ZM40.5414 145.938L39.0589 145.721L39.3713 142.374L42.5045 141.159L43.1244 142.528L40.9547 143.569L40.5462 145.94L40.5414 145.938ZM43.2854 145.327L42.8721 147.701L41.392 147.48L41.7043 144.14L44.84 142.925L45.4551 144.289L43.2878 145.33L43.2854 145.327ZM57.9183 156.892L55.2176 155.674L53.9033 150.767L52.2838 154.352L50.1141 153.372L53.8432 145.114L56.0105 146.089L54.3958 149.674L58.9443 147.411L61.5873 148.593L56.2363 150.976L57.9183 156.892ZM71.5517 160.537L71.3546 158.615L68.4713 158.007L67.5246 159.67L65.2227 159.189L70.4416 151.024L72.6401 151.488L73.8968 161.01L71.5541 160.515L71.5517 160.537ZM90.1876 161.786L89.695 157.642L89.5316 156.104L89.4259 156.109L89.3971 156.222L89.349 156.428L89.2649 156.813L89.1376 157.418C89.1063 157.57 89.0751 157.714 89.0415 157.851L88.0708 161.82L86.5042 161.844L85.3604 157.904C85.2163 157.411 85.0481 156.829 84.9279 156.181H84.7958L84.7838 156.613L84.7549 157.183L84.7213 157.67L84.7021 157.887L84.3657 161.88L82.2681 161.916L83.1907 152.829L85.7449 152.781L86.7588 156.121L86.879 156.488L86.915 156.604C87.0428 156.99 87.1614 157.379 87.2706 157.771H87.3115L87.5373 156.897L87.5734 156.772L87.7488 156.099L88.5994 152.735L91.1391 152.692L92.4775 161.738L90.19 161.777L90.1876 161.786ZM107.17 158.898L106.144 157.288L103.292 158.038L103.189 159.946L100.906 160.547L101.928 150.907L104.1 150.337L109.482 158.29L107.166 158.898H107.17ZM120.427 153.732C118.437 154.809 116.81 154.122 115.941 152.687L118.041 151.546C118.37 152.065 118.906 152.392 119.53 152.055C120.102 151.743 120.285 151.161 119.924 150.493C119.588 149.876 118.958 149.686 118.233 150.08L117.675 150.385L116.827 148.831L117.356 148.547C117.925 148.235 118.118 147.754 117.824 147.216C117.642 146.88 117.176 146.692 116.733 146.932C116.138 147.257 116.289 147.838 116.484 148.199L114.384 149.342C113.619 147.685 114.263 146.111 115.825 145.275C117.695 144.258 119.124 144.602 119.819 145.89C120.258 146.695 120.028 147.636 119.523 148.213L119.547 148.247C120.561 147.999 121.541 148.449 122.099 149.465C122.925 150.984 122.334 152.709 120.455 153.73L120.427 153.732ZM129.797 145.803L129.173 143.477L126.919 142.636L127.409 141.195L130.638 142.12L131.256 145.424L129.802 145.777L129.797 145.803ZM131.955 143.833L131.33 141.509L129.072 140.668L129.564 139.227L132.794 140.149L133.411 143.453L131.953 143.809L131.955 143.833ZM86.6435 146.245C70.7991 146.242 55.6046 139.947 44.4009 128.743C33.1972 117.539 26.9016 102.345 26.8984 86.5002C26.901 70.6554 33.1963 55.4602 44.4 44.256C55.6038 33.0518 70.7987 26.7559 86.6435 26.7527C119.638 26.7527 146.391 53.5028 146.391 86.5002C146.391 119.498 119.638 146.245 86.6435 146.245ZM155.81 112.037L153.902 111.374L154.947 108.363L153.667 107.919L153.349 108.832C152.638 110.874 151.199 111.547 149.615 110.994C147.986 110.429 147.333 108.812 147.989 106.929L149.07 103.805L157.631 106.772L155.805 112.035L155.81 112.037ZM157.564 90.6522L160.418 92.0843L160.226 94.5759L153.563 90.842C152.107 90.0251 151.444 89.0808 151.535 87.8626C151.559 87.5334 151.689 87.0745 151.788 86.8294L153.734 86.9784C153.686 87.0817 153.575 87.4973 153.561 87.6848C153.525 88.1653 153.623 88.4224 154.234 88.8141L154.464 88.951L160.875 86.0004L160.683 88.5594L157.636 89.8569C157.304 89.9947 156.966 90.1158 156.622 90.2197V90.2485C156.937 90.3578 157.244 90.4894 157.54 90.6426L157.564 90.6522Z" fill="#0D3774"/>
<path d="M86.4088 54.6753C80.4133 54.6643 74.5371 56.3504 69.4596 59.5385L68.8204 58.6735C76.7856 52.222 82.5283 43.3606 85.1521 33.4732C85.9979 33.4539 86.834 33.4539 87.651 33.4732C90.2941 43.3885 96.0117 52.211 103.983 58.6735L103.346 59.5385C98.2689 56.3548 92.4445 54.6777 86.4064 54.6777L86.4088 54.6753ZM54.2788 94.6071L55.3769 94.237C54.7673 91.7448 54.4591 89.1883 54.459 86.6226C54.459 81.5239 55.6244 76.6511 57.9238 72.1411C59.8845 68.2894 62.6573 64.827 65.99 62.0494L65.3772 61.218C61.6074 63.7564 57.4993 65.7518 53.1735 67.1457C48.3854 68.6918 43.3848 69.479 38.3532 69.4788C37.6324 69.4788 36.8515 69.4596 36.085 69.4235L35.4482 71.4178C44.0059 76.9761 50.5941 85.0903 54.2764 94.6071H54.2788ZM119.634 67.1481C115.309 65.7539 111.201 63.7585 107.431 61.2204L106.82 62.0494C110.155 64.8246 112.928 68.287 114.894 72.1411C117.185 76.6242 118.372 81.5901 118.356 86.625C118.357 89.1914 118.05 91.7487 117.441 94.2418L118.541 94.6119C122.222 85.0955 128.809 76.9819 137.367 71.425C137.167 70.7523 136.954 70.0891 136.73 69.4307C135.972 69.4674 135.214 69.4859 134.455 69.486C129.423 69.4858 124.423 68.6986 119.634 67.1529V67.1481ZM56.6672 98.3217C58.8297 103.879 62.53 108.683 67.3667 112.258C72.279 115.921 78.148 118.082 84.2631 118.479V119.572C73.9648 120.052 64.0269 123.777 56.0184 130.231C55.4826 129.858 54.9564 129.474 54.4374 129.085C58.0973 119.331 58.5186 108.658 55.6388 98.6461L56.6672 98.3001V98.3217ZM117.176 98.6677L116.148 98.3217C113.985 103.879 110.285 108.683 105.448 112.258C100.494 115.939 94.6839 118.073 88.5496 118.476V119.572C98.858 120.032 108.751 123.766 116.792 130.233L117.513 129.724L118.378 129.082C114.718 119.329 114.297 108.657 117.176 98.6461V98.6677Z" fill="#CD0909"/>
</svg>
