<svg width="110" height="173" viewBox="0 0 110 173" fill="none" xmlns="http://www.w3.org/2000/svg">
<path fill-rule="evenodd" clip-rule="evenodd" d="M27.3897 43.2433L0.144531 86.503L1.44124 88.5631C25.3014 126.471 54.6194 172.986 54.661 173C54.7303 173.023 109.146 86.6295 109.145 86.4989C109.143 86.3961 54.7636 0.0274346 54.683 3.13166e-06C54.6565 -0.0090128 42.3746 19.4505 27.3897 43.2433Z" fill="#173A94"/>
<path fill-rule="evenodd" clip-rule="evenodd" d="M62.2271 39.0513C65.0311 39.3189 67.7283 40.751 70.2438 43.3079C73.631 46.7507 76.1448 51.7546 76.8648 56.4872C76.9212 56.8575 76.9835 57.7013 77.0034 58.3625L77.0395 59.5645H76.7673C76.4669 59.5645 66.3371 58.9237 66.3222 58.9038C66.3171 58.8969 66.3361 58.7038 66.3645 58.4747C66.6993 55.7724 66.2894 53.9415 65.0417 52.5659C62.703 49.9875 58.328 50.1682 55.8211 52.9467C54.494 54.4177 53.4639 56.9982 53.0772 59.821C52.8577 61.4225 52.8882 64.1129 53.1478 66.0718C53.7123 70.3302 55.4088 75.2955 57.564 78.9975C58.0923 79.905 58.5867 80.657 58.6549 80.657C58.6833 80.657 58.9769 80.2892 59.3072 79.8396C61.6795 76.611 64.1166 71.5123 65.003 67.9231L65.1791 67.21L66.763 67.1703C67.6341 67.1485 69.7664 67.1157 71.5014 67.0974C73.2364 67.0792 75.1346 67.0471 75.7196 67.0262L76.7831 66.9881L76.7387 67.3314C76.1975 71.5034 73.7514 77.6476 70.2848 83.542C69.6273 84.66 68.4156 86.5409 67.854 87.3155C67.6913 87.5398 67.5582 87.7433 67.5582 87.7679C67.5582 87.8406 68.9502 88.6304 70.2711 89.3072C74.7315 91.5926 80.3028 93.5005 85.0714 94.3758C85.653 94.4825 86.1355 94.5769 86.1436 94.5855C86.1517 94.594 86.1051 96.7648 86.04 99.4094C85.975 102.054 85.9208 104.431 85.9197 104.692L85.9177 105.167L84.577 105.127C79.0463 104.964 72.1473 103.151 65.3185 100.065C63.971 99.4557 61.812 98.372 60.6013 97.6967L59.7957 97.2474L59.6549 97.4296C59.5775 97.5298 58.517 98.8297 57.2983 100.318L55.0823 103.025L56.3835 104.329C60.683 108.637 67.2211 113.865 73.0432 117.65C73.6088 118.018 74.0847 118.354 74.1009 118.397C74.1317 118.478 71.1781 127.899 71.0928 127.992C71.0344 128.055 70.4591 127.766 69.1255 127.005C63.3848 123.727 55.2936 117.358 48.7702 110.981C47.9585 110.188 47.2597 109.514 47.2172 109.483C47.165 109.444 46.8231 109.676 46.1579 110.201C41.1035 114.188 36.824 116.878 31.9119 119.153C30.9899 119.581 30.8657 119.623 30.8252 119.524C30.7137 119.251 28.9387 110.064 28.9905 110.028C29.0221 110.006 29.7354 109.442 30.5757 108.776C31.664 107.912 32.0949 107.534 32.0737 107.461C32.0574 107.405 31.1059 101.791 29.9593 94.9857C28.8127 88.1804 27.8532 82.5338 27.827 82.4377L27.7794 82.263L25.5397 83.4771L23.3 84.6911L23.2605 83.2992C23.2388 82.5336 23.2038 81.0272 23.1828 79.9518L23.1445 77.9964L29.4491 73.917C35.5732 69.9545 35.7547 69.8425 35.788 70.0063C35.8068 70.099 36.901 76.9806 38.2195 85.2988C39.5379 93.617 40.6301 100.436 40.6464 100.453C40.7112 100.519 43.7128 98.0574 45.3502 96.5958C48.19 94.0611 50.8455 91.3362 52.1224 89.6467L52.4266 89.2442L51.9899 88.7492C48.9101 85.2579 46.1145 80.5996 44.1739 75.7255C43.1327 73.1104 42.2367 69.8607 41.8214 67.1937C41.5213 65.2658 41.4751 64.6165 41.4726 62.2892C41.47 59.8743 41.5262 59.1638 41.858 57.4168C43.098 50.8896 47.6794 44.5585 53.5842 41.2122C55.4857 40.1346 57.8789 39.335 59.8612 39.1149C61.0818 38.9794 61.3876 38.9712 62.2271 39.0513Z" fill="white"/>
</svg>
