<svg width="38" height="54" viewBox="0 0 38 54" fill="none" xmlns="http://www.w3.org/2000/svg">
<path fill-rule="evenodd" clip-rule="evenodd" d="M4.27642 0.205461C2.27475 0.753334 0.704723 2.37429 0.176684 4.438C0.0229733 5.03868 0 8.20645 0 28.8019C0 50.4978 0.0162236 52.5103 0.194329 52.8921C0.571381 53.701 1.42982 54.1311 2.33467 53.9645C2.73304 53.8912 3.68088 52.9689 10.8651 45.6641L18.9474 37.4462L27.0296 45.6641C34.2139 52.9689 35.1617 53.8912 35.5601 53.9645C36.4649 54.1311 37.3234 53.701 37.7004 52.8921C37.8785 52.5103 37.8947 50.4978 37.8947 28.8019C37.8947 8.20645 37.8718 5.03868 37.7181 4.438C37.1831 2.34765 35.6099 0.741038 33.5674 0.199433C32.55 -0.070224 5.26322 -0.0646786 4.27642 0.205461ZM27.5465 9.96724C28.168 10.4395 28.3618 10.8248 28.3618 11.5871C28.3618 12.3494 28.168 12.7347 27.5465 13.207C27.225 13.4514 27.0868 13.4561 19.2052 13.4918C13.7929 13.5163 11.0502 13.4864 10.7577 13.3999C9.55433 13.0439 9.08965 11.3697 9.91658 10.3693C10.5201 9.63924 10.202 9.66275 19.0868 9.69192C27.0954 9.71832 27.2246 9.72241 27.5465 9.96724Z" fill="#5229A1"/>
</svg>
