<svg width="54" height="47" viewBox="0 0 54 47" fill="none" xmlns="http://www.w3.org/2000/svg">
<path fill-rule="evenodd" clip-rule="evenodd" d="M4.35236 0.190916C2.24862 0.760056 0.533149 2.55642 0.106152 4.63728C0.0148422 5.08247 -0.015072 10.4944 0.00688098 22.5614L0.0383632 39.8477L2.92023 30.6192C4.72689 24.8339 5.95915 21.0849 6.22295 20.5711C6.97912 19.0987 8.59797 17.8849 10.2177 17.5764C10.6413 17.4957 17.2295 17.4527 29.1847 17.4527H47.5026L47.5008 15.2413C47.4989 12.8355 47.3642 11.9504 46.8433 10.9176C46.4113 10.0614 45.3361 8.95036 44.5125 8.50942C43.1182 7.76289 43.0721 7.75901 35.532 7.75901C29.8989 7.75901 28.6089 7.7286 28.2899 7.58816C28.0764 7.49425 26.0562 5.9652 23.8006 4.19028C19.648 0.922546 18.8436 0.395816 17.6129 0.137965C16.597 -0.0748117 5.16583 -0.0292518 4.35236 0.190916ZM10.5263 21.5004C9.864 21.7906 9.54786 22.3312 8.97696 24.1502C5.99956 33.6365 2.39047 45.2385 2.39047 45.3236C2.39047 45.5062 4.10726 46.2857 4.78913 46.4127C5.20443 46.49 12.2574 46.5331 24.3297 46.5319C44.8372 46.53 43.9764 46.5571 45.3233 45.8714C46.1852 45.4326 47.2814 44.3577 47.7308 43.5106C47.9623 43.0743 49.2867 39.0789 51.0159 33.5998C54.1278 23.7399 54.1987 23.4533 53.8672 22.0572L53.7089 21.3907L32.3016 21.3651C14.7125 21.3438 10.8286 21.3681 10.5263 21.5004Z" fill="#5229A1"/>
</svg>
