<svg width="55" height="54" viewBox="0 0 55 54" fill="none" xmlns="http://www.w3.org/2000/svg">
<path fill-rule="evenodd" clip-rule="evenodd" d="M20.9546 0.13931C20.4439 0.340865 20.2404 0.590157 18.6034 3.01846C17.732 4.31133 17.0128 5.37408 17.0054 5.3801C16.9979 5.38625 15.7307 5.2909 14.1893 5.16842C11.606 4.96325 11.346 4.96084 10.8667 5.13805C10.3224 5.33936 9.81259 5.88182 9.68636 6.39379C9.64554 6.55954 9.42425 7.88399 9.19469 9.33695C8.96512 10.7899 8.7152 12.0166 8.63929 12.063C8.5635 12.1094 7.39592 12.5693 6.04483 13.085C3.37226 14.1051 3.0156 14.2964 2.71365 14.8718C2.38587 15.4964 2.47787 16.0847 3.33619 18.8525C3.78558 20.3012 4.12883 21.5489 4.0991 21.6251C4.06937 21.7012 3.23566 22.6559 2.24635 23.7466C1.25716 24.8372 0.345712 25.895 0.221058 26.0972C-0.0722383 26.573 -0.0739441 27.4391 0.217525 27.9115C0.340229 28.1104 1.27215 29.1784 2.28851 30.2848C3.30487 31.3913 4.13651 32.3473 4.13651 32.4093C4.13651 32.4713 3.81251 33.5732 3.41649 34.8579C2.39428 38.1738 2.41865 38.0647 2.56743 38.649C2.79091 39.5273 3.20264 39.7886 6.08613 40.8827C7.52703 41.4295 8.71934 41.8852 8.73579 41.8953C8.75224 41.9056 8.95781 43.2322 9.19261 44.8434C9.67186 48.1315 9.77129 48.403 10.6512 48.8244C11.1844 49.0797 11.1935 49.08 13.7234 48.8923C15.119 48.7887 16.4427 48.6801 16.665 48.6509L17.0692 48.5979L18.6996 51.0572C21.1215 54.7104 21.0756 54.6999 24.8388 52.4622L27.2949 51.0017L29.7463 52.4433C32.225 53.9011 32.6975 54.0982 33.3656 53.953C34 53.8152 34.3279 53.4441 35.9659 51.0105C36.8414 49.7098 37.5638 48.6412 37.5712 48.6357C37.5786 48.6303 38.8459 48.7228 40.3873 48.8413C42.286 48.9873 43.3288 49.0203 43.6206 48.9439C44.0643 48.8278 44.7311 48.2274 44.8892 47.8018C44.9386 47.6692 45.1638 46.3195 45.3897 44.8027C45.6157 43.2857 45.8215 42.024 45.8471 41.9985C45.8728 41.9732 47.04 41.5113 48.4411 40.9722C51.2091 39.9069 51.5606 39.7191 51.8629 39.143C52.1907 38.5183 52.0987 37.93 51.2404 35.1623C50.791 33.7135 50.4481 32.4659 50.4783 32.3897C50.5085 32.3135 51.3811 31.3277 52.4173 30.1989C53.4536 29.0701 54.3648 28.0294 54.4422 27.8863C54.6589 27.4856 54.6137 26.5161 54.359 26.1033C54.2363 25.9044 53.3044 24.8363 52.2881 23.7299C51.2717 22.6234 50.4401 21.6741 50.4401 21.6204C50.4402 21.5665 50.8247 20.2565 51.2948 18.709C52.0718 16.1517 52.1378 15.8525 52.0208 15.4225C51.7581 14.4573 51.4201 14.2368 48.5244 13.1409C47.0649 12.5885 45.8572 12.1285 45.8408 12.1187C45.8243 12.1089 45.6188 10.7826 45.384 9.17132C44.9046 5.88255 44.8054 5.6118 43.9245 5.19C43.3905 4.9342 43.3813 4.93408 40.9132 5.12177C39.5517 5.22532 38.2268 5.32345 37.9691 5.3396L37.5004 5.36913L36.0194 3.11827C35.2049 1.88025 34.4047 0.726616 34.2411 0.554595C33.8714 0.16571 33.1718 -0.0511551 32.6183 0.0516717C32.3869 0.0945866 31.0958 0.777728 29.749 1.56984L27.3002 3.0099L25.1314 1.73258C22.0861 -0.0607989 21.7685 -0.181949 20.9546 0.13931ZM38.0295 17.5421C38.5302 17.8699 38.9782 18.6231 38.9833 19.1455C38.9868 19.4954 38.6886 20.2066 38.4322 20.4602C38.3238 20.5675 35.2533 24.1673 31.6091 28.4597C27.9648 32.7522 24.8383 36.3769 24.6612 36.5148C23.9492 37.0687 22.8759 36.9581 22.2146 36.2625C21.6149 35.6317 15.8138 27.4749 15.6169 26.9857C15.3053 26.2113 15.6914 25.1877 16.4729 24.7164C16.9948 24.4015 17.9546 24.396 18.4666 24.7049C18.7018 24.8468 19.7324 26.179 21.194 28.2304C22.4861 30.0441 23.5811 31.5697 23.6271 31.6208C23.6732 31.672 26.3909 28.5318 29.6662 24.6428C36.0718 17.0371 36.0578 17.0514 37.0756 17.1688C37.3316 17.1982 37.7609 17.3662 38.0295 17.5421Z" fill="#5229A1"/>
</svg>
