<svg width="30" height="54" viewBox="0 0 30 54" fill="none" xmlns="http://www.w3.org/2000/svg">
<path fill-rule="evenodd" clip-rule="evenodd" d="M4.25176 0.203642C2.27247 0.751107 0.72 2.37086 0.197865 4.43303C-0.0659549 5.47472 -0.0659549 48.5152 0.197865 49.5569C0.726792 51.6457 2.28243 53.2511 4.30212 53.7923C5.33562 54.0692 24.6875 54.0692 25.721 53.7923C27.7407 53.2511 29.2964 51.6457 29.8253 49.5569C29.977 48.9576 30 45.9939 30 26.995C30 7.74372 29.9786 5.03807 29.8207 4.41484C29.2946 2.33725 27.7339 0.737014 25.7034 0.192922C24.7189 -0.0708733 5.2088 -0.0611164 4.25176 0.203642ZM17.8943 46.5763C18.5086 47.0486 18.7001 47.4333 18.7001 48.1949C18.7001 48.9564 18.5086 49.3413 17.8943 49.8136C17.5984 50.0412 17.3786 50.0652 15.2668 50.1007C12.6594 50.1447 12.2733 50.0744 11.7495 49.4608C11.137 48.7432 11.117 47.6936 11.7024 46.978C12.2468 46.3125 12.4774 46.267 15.1497 46.299C17.3884 46.3257 17.5957 46.3467 17.8943 46.5763Z" fill="#5229A1"/>
</svg>
