<svg width="58" height="47" viewBox="0 0 58 47" fill="none" xmlns="http://www.w3.org/2000/svg">
<path fill-rule="evenodd" clip-rule="evenodd" d="M13.4029 0.112515C10.0937 0.525365 6.56329 1.60203 3.72166 3.06517C1.25672 4.33435 0.571597 4.81137 0.255905 5.47837C0.00560335 6.00709 0.000812122 6.38627 0.000812122 25.4688C0.000812122 46.9433 -0.0587525 45.4764 0.842358 46.1801C1.22189 46.4765 1.46325 46.5568 1.98911 46.5618C2.57155 46.5674 2.83454 46.4651 4.0797 45.7481C7.37389 43.8513 10.9939 42.7221 14.633 42.456C17.6729 42.2337 21.8875 43.1983 25.3486 44.9086L26.9352 45.6925L26.9024 24.193L26.8697 2.69342L25.3806 2.07136C21.5568 0.473923 16.7747 -0.308157 13.4029 0.112515ZM40.0775 0.112515C37.4063 0.445685 34.5557 1.22034 32.1787 2.25896L31.1428 2.71159L31.11 24.2007L31.0773 45.6897L32.7934 44.8521C35.4979 43.532 37.9666 42.8206 40.928 42.5081C43.5971 42.2265 47.1925 42.8168 50.4269 44.0674C51.4392 44.4589 53.8889 45.6826 54.6675 46.1858C55.7298 46.8725 56.9581 46.6626 57.6447 45.6771L57.9469 45.2432L57.9806 25.5781C58.0185 3.41425 58.1111 5.37668 56.9865 4.52844C56.1853 3.92428 53.0632 2.35084 51.4901 1.75861C49.9255 1.16956 47.6326 0.569645 45.9045 0.297196C44.2495 0.0361491 41.4104 -0.0537389 40.0775 0.112515Z" fill="#5229A1"/>
</svg>
