<svg width="20" height="20" viewBox="0 0 20 20" fill="none" xmlns="http://www.w3.org/2000/svg">
<path fill-rule="evenodd" clip-rule="evenodd" d="M10.0008 1C7.55657 1 7.24981 1.01069 6.2898 1.05438C5.33167 1.09825 4.67766 1.24994 4.10541 1.4725C3.51346 1.70237 3.01133 2.00987 2.51108 2.51031C2.01045 3.01056 1.70294 3.51269 1.47232 4.10444C1.24919 4.67687 1.09731 5.33106 1.05419 6.28881C1.01125 7.24881 1 7.55575 1 10C1 12.4442 1.01088 12.7501 1.05438 13.7101C1.09844 14.6682 1.25013 15.3222 1.4725 15.8944C1.70257 16.4864 2.01007 16.9885 2.51052 17.4887C3.01058 17.9894 3.51271 18.2976 4.10428 18.5275C4.67691 18.7501 5.33111 18.9017 6.28905 18.9456C7.24906 18.9893 7.55563 19 9.99972 19C12.4442 19 12.75 18.9893 13.71 18.9456C14.6681 18.9017 15.3229 18.7501 15.8955 18.5275C16.4873 18.2976 16.9887 17.9894 17.4887 17.4887C17.9894 16.9885 18.2969 16.4864 18.5275 15.8946C18.7487 15.3222 18.9006 14.668 18.9456 13.7102C18.9887 12.7502 19 12.4442 19 10C19 7.55575 18.9887 7.249 18.9456 6.289C18.9006 5.33087 18.7487 4.67687 18.5275 4.10462C18.2969 3.51269 17.9894 3.01056 17.4887 2.51031C16.9881 2.00969 16.4875 1.70219 15.895 1.4725C15.3212 1.24994 14.6668 1.09825 13.7087 1.05438C12.7487 1.01069 12.4431 1 9.99803 1H10.0008ZM9.70088 2.6218L10.0008 2.62189C12.4039 2.62189 12.6887 2.63052 13.6376 2.67364C14.5151 2.71377 14.9914 2.86039 15.3087 2.98358C15.7287 3.1467 16.0281 3.3417 16.3429 3.6567C16.6579 3.9717 16.8529 4.2717 17.0164 4.6917C17.1396 5.00858 17.2864 5.48483 17.3264 6.36233C17.3695 7.31108 17.3789 7.59608 17.3789 9.99795C17.3789 12.3998 17.3695 12.6848 17.3264 13.6336C17.2862 14.5111 17.1396 14.9873 17.0164 15.3042C16.8533 15.7242 16.6579 16.0233 16.3429 16.3381C16.0279 16.6531 15.7288 16.8481 15.3087 17.0112C14.9918 17.135 14.5151 17.2812 13.6376 17.3213C12.6889 17.3645 12.4039 17.3738 10.0008 17.3738C7.59764 17.3738 7.31282 17.3645 6.36406 17.3213C5.48655 17.2808 5.0103 17.1342 4.69286 17.011C4.27285 16.8479 3.97285 16.6529 3.65785 16.3379C3.34284 16.0229 3.14784 15.7236 2.98434 15.3035C2.86115 14.9866 2.71434 14.5103 2.6744 13.6328C2.63127 12.6841 2.62265 12.3991 2.62265 9.9957C2.62265 7.59233 2.63127 7.30883 2.6744 6.36008C2.71452 5.48258 2.86115 5.00633 2.98434 4.68908C3.14747 4.26908 3.34284 3.96908 3.65785 3.65408C3.97285 3.33908 4.27285 3.14408 4.69286 2.98058C5.01011 2.85683 5.48655 2.71058 6.36406 2.67027C7.19432 2.63277 7.51607 2.62152 9.19347 2.61964V2.62189C9.35018 2.62165 9.51896 2.62172 9.70088 2.6218ZM13.725 5.19587C13.725 4.59943 14.2088 4.11625 14.805 4.11625C15.4013 4.11625 15.885 4.59962 15.885 5.19587C15.885 5.79212 15.4013 6.27587 14.805 6.27587C14.2088 6.27587 13.725 5.79212 13.725 5.19587ZM10.0007 5.37813C7.44829 5.37823 5.37893 7.44763 5.37893 10C5.37893 12.5524 7.44839 14.6209 10.0009 14.6209C12.5533 14.6209 14.622 12.5524 14.622 10C14.622 7.44757 12.5531 5.37813 10.0007 5.37813ZM13.0009 9.99998C13.0009 8.34304 11.6576 6.99998 10.0009 6.99998C8.3439 6.99998 7.00082 8.34304 7.00082 9.99998C7.00082 11.6567 8.3439 13 10.0009 13C11.6576 13 13.0009 11.6567 13.0009 9.99998Z" fill="white" fill-opacity="0.5"/>
</svg>
