<svg width="14" height="19" viewBox="0 0 14 19" fill="none" xmlns="http://www.w3.org/2000/svg">
<path d="M7 0.370117C5.14416 0.372357 3.36495 1.12761 2.05268 2.47021C0.740397 3.81281 0.00219684 5.63311 7.44728e-06 7.53183C-0.0022153 9.08347 0.493176 10.593 1.41019 11.8289C1.41019 11.8289 1.6011 12.086 1.63228 12.1231L7 18.5999L12.3703 12.1199C12.3983 12.0854 12.5898 11.8289 12.5898 11.8289L12.5904 11.8269C13.507 10.5916 14.0022 9.08275 14 7.53183C13.9978 5.63311 13.2596 3.81281 11.9473 2.47021C10.635 1.12761 8.85584 0.372357 7 0.370117ZM7 10.1361C6.49656 10.1361 6.00442 9.98335 5.58582 9.6972C5.16723 9.41104 4.84097 9.00431 4.64831 8.52844C4.45565 8.05257 4.40524 7.52894 4.50346 7.02377C4.60168 6.51859 4.84411 6.05455 5.20009 5.69034C5.55608 5.32613 6.00964 5.0781 6.50341 4.97761C6.99718 4.87713 7.50898 4.9287 7.9741 5.12581C8.43922 5.32292 8.83677 5.65671 9.11647 6.08498C9.39616 6.51325 9.54545 7.01676 9.54545 7.53183C9.54461 8.22226 9.27616 8.88416 8.79898 9.37237C8.32179 9.86058 7.67484 10.1352 7 10.1361Z" fill="white"/>
</svg>
