<svg width="12" height="34" viewBox="0 0 12 34" fill="none" xmlns="http://www.w3.org/2000/svg">
<path d="M0.15698 32.4621C-0.140084 32.9277 -0.00346899 33.546 0.462118 33.843C0.927706 34.1401 1.54596 34.0035 1.84302 33.5379L0.15698 32.4621ZM1.85276 0.477699C1.5643 0.00673294 0.948667 -0.14122 0.4777 0.14724C0.00673234 0.435699 -0.14122 1.05133 0.147238 1.5223L1.85276 0.477699ZM11 17.327L11.843 17.8649C12.0488 17.5425 12.0525 17.1309 11.8528 16.8047L11 17.327ZM1.84302 33.5379L11.843 17.8649L10.157 16.7892L0.15698 32.4621L1.84302 33.5379ZM11.8528 16.8047L1.85276 0.477699L0.147238 1.5223L10.1472 17.8493L11.8528 16.8047Z" fill="white"/>
</svg>
