<svg width="20" height="20" viewBox="0 0 20 20" fill="none" xmlns="http://www.w3.org/2000/svg">
<path fill-rule="evenodd" clip-rule="evenodd" d="M18.3333 4.91168C17.7516 5.17941 17.1252 5.36046 16.4681 5.44136C17.1391 5.02532 17.654 4.36564 17.8965 3.57979C17.2683 3.96501 16.5741 4.24525 15.8325 4.39549C15.2414 3.74158 14.3966 3.33325 13.4617 3.33325C11.669 3.33325 10.2145 4.84041 10.2145 6.69909C10.2145 6.96296 10.2424 7.21913 10.2982 7.46567C7.59841 7.32507 5.20534 5.98643 3.60221 3.94767C3.32247 4.44653 3.16262 5.02532 3.16262 5.64167C3.16262 6.80888 3.73604 7.83933 4.60777 8.44316C4.07618 8.42679 3.57433 8.27367 3.13567 8.02327V8.06468C3.13567 9.69608 4.25554 11.0569 5.7425 11.365C5.4702 11.444 5.18303 11.4835 4.88657 11.4835C4.67747 11.4835 4.47301 11.4633 4.27506 11.4238C4.68862 12.7605 5.88748 13.7341 7.30938 13.7601C6.19788 14.6635 4.79642 15.2018 3.27508 15.2018C3.013 15.2018 2.75371 15.1864 2.5 15.1556C3.9377 16.109 5.64585 16.6666 7.47946 16.6666C13.4552 16.6666 16.7218 11.5384 16.7218 7.09008C16.7218 6.9437 16.7191 6.79732 16.7135 6.65382C17.3482 6.17904 17.8993 5.58678 18.3333 4.91168Z" fill="white" fill-opacity="0.5"/>
</svg>
