<svg width="20" height="20" viewBox="0 0 20 20" fill="none" xmlns="http://www.w3.org/2000/svg">
<path d="M10.8988 14.9582C10.8988 14.9582 11.2296 14.9231 11.3991 14.749C11.5542 14.5896 11.5489 14.2886 11.5489 14.2886C11.5489 14.2886 11.5282 12.8835 12.2106 12.676C12.8831 12.472 13.7466 14.0349 14.663 14.6358C15.3553 15.0902 15.8807 14.9908 15.8807 14.9908L18.3296 14.9582C18.3296 14.9582 19.6101 14.8828 19.003 13.92C18.9528 13.8411 18.6488 13.2076 17.1827 11.9061C15.6467 10.5439 15.8529 10.7642 17.7019 8.40742C18.8281 6.97227 19.2783 6.09609 19.1375 5.72144C19.0039 5.36308 18.1754 5.45824 18.1754 5.45824L15.419 5.47453C15.419 5.47453 15.2145 5.44795 15.063 5.53454C14.915 5.61942 14.8191 5.81746 14.8191 5.81746C14.8191 5.81746 14.3833 6.92769 13.8013 7.87245C12.5738 9.86486 12.0833 9.97031 11.8824 9.84686C11.4153 9.55794 11.5318 8.68776 11.5318 8.06964C11.5318 6.13809 11.8385 5.33307 10.9355 5.12474C10.636 5.0553 10.4155 5.00986 9.64879 5.00215C8.66513 4.99271 7.83301 5.00557 7.36135 5.22591C7.04751 5.37251 6.80541 5.7 6.95336 5.71886C7.13539 5.74201 7.54786 5.82517 7.76665 6.1098C8.04911 6.47759 8.03924 7.30233 8.03924 7.30233C8.03924 7.30233 8.20154 9.57595 7.65995 9.85801C7.28872 10.0518 6.7794 9.65654 5.68455 7.84845C5.12412 6.92254 4.70089 5.8989 4.70089 5.8989C4.70089 5.8989 4.61929 5.70772 4.47313 5.60484C4.29648 5.48053 4.0499 5.44195 4.0499 5.44195L1.43068 5.45824C1.43068 5.45824 1.03704 5.46853 0.892672 5.63228C0.764446 5.77716 0.882808 6.07808 0.882808 6.07808C0.882808 6.07808 2.93352 10.6656 5.25594 12.9778C7.38556 15.0971 9.80302 14.9582 9.80302 14.9582H10.8988Z" fill="white" fill-opacity="0.5"/>
</svg>
