<svg width="20" height="20" viewBox="0 0 20 20" fill="none" xmlns="http://www.w3.org/2000/svg">
<path fill-rule="evenodd" clip-rule="evenodd" d="M8.48235 3.00976C8.48235 3.0161 8.36471 3.01953 8.14706 3.01953C7.92941 3.01953 7.81176 3.02295 7.81176 3.02929C7.81176 3.03564 7.68235 3.03905 7.44118 3.03905C7.2 3.03905 7.07059 3.04246 7.07059 3.04881C7.07059 3.05512 6.97059 3.05858 6.78823 3.05858C6.60588 3.05858 6.50588 3.06203 6.50588 3.06834C6.50588 3.07371 6.49794 3.0781 6.48823 3.0781C6.47853 3.0781 6.47059 3.07371 6.47059 3.06834C6.47059 3.06297 6.45073 3.05858 6.42647 3.05858C6.4022 3.05858 6.38235 3.06297 6.38235 3.06834C6.38235 3.07451 6.32059 3.0781 6.21471 3.0781C6.10882 3.0781 6.04706 3.0817 6.04706 3.08787C6.04706 3.09408 5.97647 3.09763 5.85294 3.09763C5.72941 3.09763 5.65882 3.10118 5.65882 3.10739C5.65882 3.11359 5.59117 3.11715 5.47353 3.11715C5.35588 3.11715 5.28823 3.12072 5.28823 3.12692C5.28823 3.13304 5.23236 3.13668 5.13823 3.13668C5.04411 3.13668 4.98823 3.14032 4.98823 3.14644C4.98823 3.15236 4.95 3.15621 4.89118 3.15621C4.83235 3.15621 4.79412 3.16005 4.79412 3.16597C4.79412 3.17201 4.74706 3.17573 4.67059 3.17573C4.59411 3.17573 4.54706 3.17945 4.54706 3.1855C4.54706 3.19958 4.51419 3.19753 4.50809 3.18305C4.50397 3.17329 4.50191 3.17329 4.4978 3.18305C4.49406 3.19189 4.46122 3.19526 4.37868 3.19526C4.30858 3.19526 4.26471 3.19902 4.26471 3.20502C4.26471 3.21071 4.2353 3.21478 4.19412 3.21478C4.15294 3.21478 4.12353 3.21885 4.12353 3.22455C4.12353 3.2304 4.08823 3.23431 4.03529 3.23431C3.98235 3.23431 3.94706 3.23821 3.94706 3.24407C3.94706 3.24993 3.91176 3.25384 3.85882 3.25384C3.80588 3.25384 3.77059 3.25774 3.77059 3.2636C3.77059 3.26929 3.74118 3.27336 3.7 3.27336C3.65882 3.27336 3.62941 3.27743 3.62941 3.28312C3.62941 3.2887 3.60294 3.29289 3.56765 3.29289C3.53235 3.29289 3.50588 3.29708 3.50588 3.30265C3.50588 3.30822 3.47941 3.31241 3.44412 3.31241C3.40882 3.31241 3.38235 3.3166 3.38235 3.32218C3.38235 3.32775 3.35588 3.33194 3.32059 3.33194C3.28529 3.33194 3.25882 3.33613 3.25882 3.3417C3.25882 3.34707 3.23897 3.35146 3.21471 3.35146C3.19044 3.35146 3.17059 3.35586 3.17059 3.36123C3.17059 3.3666 3.15471 3.37099 3.13529 3.37099C3.11588 3.37099 3.1 3.37538 3.1 3.38075C3.1 3.38612 3.08412 3.39052 3.06471 3.39052C3.04529 3.39052 3.02941 3.39491 3.02941 3.40028C3.02941 3.40565 3.00956 3.41004 2.98529 3.41004C2.96103 3.41004 2.94118 3.41444 2.94118 3.4198C2.94118 3.42517 2.93324 3.42957 2.92353 3.42957C2.91382 3.42957 2.90588 3.43396 2.90588 3.43933C2.90588 3.4447 2.89397 3.44909 2.87941 3.44909C2.86485 3.44909 2.85294 3.45349 2.85294 3.45886C2.85294 3.46423 2.83706 3.46862 2.81765 3.46862C2.79824 3.46862 2.78235 3.47301 2.78235 3.47838C2.78235 3.48375 2.77441 3.48815 2.76471 3.48815C2.755 3.48815 2.74706 3.49254 2.74706 3.49791C2.74706 3.50328 2.73515 3.50767 2.72059 3.50767C2.70603 3.50767 2.69412 3.51206 2.69412 3.51743C2.69412 3.5228 2.68618 3.5272 2.67647 3.5272C2.66676 3.5272 2.65882 3.53159 2.65882 3.53696C2.65882 3.54233 2.64779 3.54672 2.6343 3.54672C2.6199 3.54672 2.60453 3.55479 2.59706 3.56625C2.59006 3.57699 2.57728 3.58577 2.56864 3.58577C2.56001 3.58577 2.55294 3.59017 2.55294 3.59554C2.55294 3.60091 2.5419 3.6053 2.52842 3.6053C2.51402 3.6053 2.49865 3.61336 2.49118 3.62483C2.48418 3.63556 2.47139 3.64435 2.46276 3.64435C2.45413 3.64435 2.44706 3.64874 2.44706 3.65411C2.44706 3.65948 2.43912 3.66388 2.42941 3.66388C2.41971 3.66388 2.41176 3.66827 2.41176 3.67364C2.41176 3.67901 2.4047 3.6834 2.39607 3.6834C2.38743 3.6834 2.37464 3.69219 2.36765 3.70293C2.36065 3.71367 2.34874 3.72245 2.34118 3.72245C2.33361 3.72245 2.3217 3.73124 2.31471 3.74198C2.30771 3.75272 2.29651 3.76151 2.28982 3.76151C2.28314 3.76151 2.26654 3.77469 2.25294 3.7908C2.23934 3.8069 2.22346 3.82008 2.21765 3.82008C2.21183 3.82008 2.19595 3.83326 2.18235 3.84937C2.16876 3.86548 2.15324 3.87866 2.14787 3.87866C2.13524 3.87866 1.81176 4.23638 1.81176 4.25035C1.81176 4.25618 1.79588 4.27783 1.77647 4.29847C1.75706 4.3191 1.74118 4.34195 1.74118 4.34924C1.74118 4.35654 1.73324 4.36883 1.72353 4.37657C1.71382 4.38431 1.70588 4.39749 1.70588 4.40586C1.70588 4.41422 1.69794 4.4274 1.68824 4.43515C1.67853 4.44289 1.67059 4.45607 1.67059 4.46444C1.67059 4.4728 1.66265 4.48598 1.65294 4.49372C1.64324 4.50147 1.63529 4.51561 1.63529 4.52517C1.63529 4.53472 1.63132 4.54254 1.62647 4.54254C1.62162 4.54254 1.61765 4.55036 1.61765 4.55991C1.61765 4.56946 1.60971 4.58361 1.6 4.59135C1.59029 4.5991 1.58235 4.61324 1.58235 4.6228C1.58235 4.63235 1.57838 4.64017 1.57353 4.64017C1.56868 4.64017 1.56471 4.64895 1.56471 4.65969C1.56471 4.67043 1.56074 4.67922 1.55588 4.67922C1.55103 4.67922 1.54706 4.68801 1.54706 4.69875C1.54706 4.70948 1.54309 4.71827 1.53824 4.71827C1.53338 4.71827 1.52941 4.72706 1.52941 4.7378C1.52941 4.74854 1.52544 4.75732 1.52059 4.75732C1.51574 4.75732 1.51176 4.76611 1.51176 4.77685C1.51176 4.78759 1.50779 4.79637 1.50294 4.79637C1.49809 4.79637 1.49412 4.80955 1.49412 4.82566C1.49412 4.84177 1.49015 4.85495 1.48529 4.85495C1.48044 4.85495 1.47647 4.86374 1.47647 4.87448C1.47647 4.88522 1.4725 4.894 1.46765 4.894C1.46279 4.894 1.45882 4.90718 1.45882 4.92329C1.45882 4.9394 1.45485 4.95258 1.45 4.95258C1.44515 4.95258 1.44118 4.96576 1.44118 4.98187C1.44118 4.99798 1.43721 5.01116 1.43235 5.01116C1.4275 5.01116 1.42353 5.02434 1.42353 5.04045C1.42353 5.05656 1.41956 5.06974 1.41471 5.06974C1.40985 5.06974 1.40588 5.07852 1.40588 5.08926C1.40588 5.1 1.40191 5.10879 1.39706 5.10879C1.39221 5.10879 1.38824 5.12636 1.38824 5.14784C1.38824 5.16932 1.38426 5.18689 1.37941 5.18689C1.37456 5.18689 1.37059 5.20886 1.37059 5.2357C1.37059 5.26255 1.36662 5.28452 1.36176 5.28452C1.35691 5.28452 1.35294 5.30209 1.35294 5.32357C1.35294 5.34505 1.34897 5.36262 1.34412 5.36262C1.33926 5.36262 1.33529 5.3802 1.33529 5.40167C1.33529 5.42315 1.33132 5.44073 1.32647 5.44073C1.32162 5.44073 1.31765 5.46269 1.31765 5.48954C1.31765 5.51639 1.31368 5.53835 1.30882 5.53835C1.30397 5.53835 1.3 5.56032 1.3 5.58717C1.3 5.61402 1.29603 5.63598 1.29118 5.63598C1.28632 5.63598 1.28235 5.65795 1.28235 5.6848C1.28235 5.71165 1.27838 5.73361 1.27353 5.73361C1.26862 5.73361 1.26471 5.75965 1.26471 5.79219C1.26471 5.82473 1.26079 5.85077 1.25588 5.85077C1.25084 5.85077 1.24706 5.88006 1.24706 5.91911C1.24706 5.95816 1.24327 5.98745 1.23824 5.98745C1.23333 5.98745 1.22941 6.01349 1.22941 6.04603C1.22941 6.07857 1.22549 6.1046 1.22059 6.1046C1.21555 6.1046 1.21176 6.13389 1.21176 6.17294C1.21176 6.21199 1.20798 6.24128 1.20294 6.24128C1.19771 6.24128 1.19412 6.27708 1.19412 6.32915C1.19412 6.38122 1.19053 6.41702 1.18529 6.41702C1.18006 6.41702 1.17647 6.45282 1.17647 6.50488C1.17647 6.55695 1.17288 6.59275 1.16765 6.59275C1.16261 6.59275 1.15882 6.62204 1.15882 6.66109C1.15882 6.70014 1.15504 6.72943 1.15 6.72943C1.14465 6.72943 1.14118 6.77173 1.14118 6.83682C1.14118 6.90191 1.1377 6.94421 1.13235 6.94421C1.12701 6.94421 1.12353 6.98652 1.12353 7.0516C1.12353 7.11669 1.12005 7.159 1.11471 7.159C1.10928 7.159 1.10588 7.20781 1.10588 7.28591C1.10588 7.36402 1.10249 7.41283 1.09706 7.41283C1.09171 7.41283 1.08824 7.45487 1.08824 7.51941C1.08824 7.59512 1.08504 7.62764 1.07721 7.63169C1.06838 7.63624 1.06838 7.63852 1.07721 7.64307C1.09029 7.64983 1.09214 7.68619 1.07941 7.68619C1.07385 7.68619 1.07059 7.75128 1.07059 7.86193C1.07059 7.97257 1.06732 8.03766 1.06176 8.03766C1.05616 8.03766 1.05294 8.11251 1.05294 8.24268C1.05294 8.37285 1.04972 8.4477 1.04412 8.4477C1.03854 8.4477 1.03529 8.51604 1.03529 8.63319C1.03529 8.75035 1.03205 8.81869 1.02647 8.81869C1.02074 8.81869 1.01765 8.94886 1.01765 9.18968C1.01765 9.4305 1.01455 9.56067 1.00882 9.56067C1.00307 9.56067 1 9.71363 1 10C1 10.2864 1.00307 10.4393 1.00882 10.4393C1.01455 10.4393 1.01765 10.5695 1.01765 10.8103C1.01765 11.0511 1.02074 11.1813 1.02647 11.1813C1.03205 11.1813 1.03529 11.2497 1.03529 11.3668C1.03529 11.484 1.03854 11.5523 1.04412 11.5523C1.04972 11.5523 1.05294 11.6272 1.05294 11.7573C1.05294 11.8875 1.05616 11.9623 1.06176 11.9623C1.06732 11.9623 1.07059 12.0274 1.07059 12.1381C1.07059 12.2487 1.07385 12.3138 1.07941 12.3138C1.09214 12.3138 1.09029 12.3502 1.07721 12.3569C1.06838 12.3615 1.06838 12.3638 1.07721 12.3683C1.08504 12.3724 1.08824 12.4049 1.08824 12.4806C1.08824 12.5451 1.09171 12.5872 1.09706 12.5872C1.10249 12.5872 1.10588 12.636 1.10588 12.7141C1.10588 12.7922 1.10928 12.841 1.11471 12.841C1.12005 12.841 1.12353 12.8833 1.12353 12.9484C1.12353 13.0135 1.12701 13.0558 1.13235 13.0558C1.1377 13.0558 1.14118 13.0981 1.14118 13.1632C1.14118 13.2283 1.14465 13.2706 1.15 13.2706C1.15504 13.2706 1.15882 13.2999 1.15882 13.3389C1.15882 13.378 1.16261 13.4073 1.16765 13.4073C1.17288 13.4073 1.17647 13.4431 1.17647 13.4951C1.17647 13.5472 1.18006 13.583 1.18529 13.583C1.19053 13.583 1.19412 13.6188 1.19412 13.6709C1.19412 13.7229 1.19771 13.7587 1.20294 13.7587C1.20798 13.7587 1.21176 13.788 1.21176 13.8271C1.21176 13.8661 1.21555 13.8954 1.22059 13.8954C1.22549 13.8954 1.22941 13.9214 1.22941 13.954C1.22941 13.9865 1.23333 14.0126 1.23824 14.0126C1.24327 14.0126 1.24706 14.0418 1.24706 14.0809C1.24706 14.1199 1.25084 14.1492 1.25588 14.1492C1.26079 14.1492 1.26471 14.1753 1.26471 14.2078C1.26471 14.2404 1.26862 14.2664 1.27353 14.2664C1.27838 14.2664 1.28235 14.2884 1.28235 14.3152C1.28235 14.3421 1.28632 14.364 1.29118 14.364C1.29603 14.364 1.3 14.386 1.3 14.4128C1.3 14.4397 1.30397 14.4616 1.30882 14.4616C1.31368 14.4616 1.31765 14.4836 1.31765 14.5105C1.31765 14.5373 1.32162 14.5593 1.32647 14.5593C1.33132 14.5593 1.33529 14.5768 1.33529 14.5983C1.33529 14.6198 1.33926 14.6374 1.34412 14.6374C1.34897 14.6374 1.35294 14.655 1.35294 14.6764C1.35294 14.6979 1.35691 14.7155 1.36176 14.7155C1.36662 14.7155 1.37059 14.7374 1.37059 14.7643C1.37059 14.7911 1.37456 14.8131 1.37941 14.8131C1.38426 14.8131 1.38824 14.8307 1.38824 14.8522C1.38824 14.8736 1.39221 14.8912 1.39706 14.8912C1.40191 14.8912 1.40588 14.9 1.40588 14.9107C1.40588 14.9215 1.40985 14.9303 1.41471 14.9303C1.41956 14.9303 1.42353 14.9434 1.42353 14.9596C1.42353 14.9757 1.4275 14.9888 1.43235 14.9888C1.43721 14.9888 1.44118 15.002 1.44118 15.0181C1.44118 15.0342 1.44515 15.0474 1.45 15.0474C1.45485 15.0474 1.45882 15.0606 1.45882 15.0767C1.45882 15.0928 1.46279 15.106 1.46765 15.106C1.4725 15.106 1.47647 15.1148 1.47647 15.1255C1.47647 15.1363 1.48044 15.1451 1.48529 15.1451C1.49015 15.1451 1.49412 15.1582 1.49412 15.1743C1.49412 15.1904 1.49809 15.2036 1.50294 15.2036C1.50779 15.2036 1.51176 15.2124 1.51176 15.2232C1.51176 15.2339 1.51574 15.2427 1.52059 15.2427C1.52544 15.2427 1.52941 15.2515 1.52941 15.2622C1.52941 15.2729 1.53338 15.2817 1.53824 15.2817C1.54309 15.2817 1.54706 15.2905 1.54706 15.3013C1.54706 15.312 1.55103 15.3208 1.55588 15.3208C1.56074 15.3208 1.56471 15.3296 1.56471 15.3403C1.56471 15.351 1.56868 15.3598 1.57353 15.3598C1.57838 15.3598 1.58235 15.3677 1.58235 15.3772C1.58235 15.3868 1.59029 15.4009 1.6 15.4086C1.60971 15.4164 1.61765 15.4305 1.61765 15.4401C1.61765 15.4496 1.62162 15.4575 1.62647 15.4575C1.63132 15.4575 1.63529 15.4653 1.63529 15.4748C1.63529 15.4844 1.64324 15.4985 1.65294 15.5063C1.66265 15.514 1.67059 15.5272 1.67059 15.5356C1.67059 15.5439 1.67853 15.5571 1.68824 15.5649C1.69794 15.5726 1.70588 15.5858 1.70588 15.5941C1.70588 15.6025 1.71382 15.6157 1.72353 15.6234C1.73324 15.6312 1.74118 15.6435 1.74118 15.6508C1.74118 15.6581 1.75706 15.6809 1.77647 15.7015C1.79588 15.7222 1.81176 15.7438 1.81176 15.7496C1.81176 15.7636 2.13524 16.1213 2.14787 16.1213C2.15324 16.1213 2.16876 16.1345 2.18235 16.1506C2.19595 16.1667 2.21183 16.1799 2.21765 16.1799C2.22346 16.1799 2.23934 16.1931 2.25294 16.2092C2.26654 16.2253 2.28314 16.2385 2.28982 16.2385C2.29651 16.2385 2.30771 16.2473 2.31471 16.258C2.3217 16.2688 2.33361 16.2775 2.34118 16.2775C2.34874 16.2775 2.36065 16.2863 2.36765 16.2971C2.37464 16.3078 2.38743 16.3166 2.39607 16.3166C2.4047 16.3166 2.41176 16.321 2.41176 16.3264C2.41176 16.3317 2.41971 16.3361 2.42941 16.3361C2.43912 16.3361 2.44706 16.3405 2.44706 16.3459C2.44706 16.3513 2.45413 16.3556 2.46276 16.3556C2.47139 16.3556 2.48418 16.3644 2.49118 16.3752C2.49865 16.3866 2.51402 16.3947 2.52842 16.3947C2.5419 16.3947 2.55294 16.3991 2.55294 16.4045C2.55294 16.4098 2.56001 16.4142 2.56864 16.4142C2.57728 16.4142 2.59006 16.423 2.59706 16.4338C2.60453 16.4452 2.6199 16.4533 2.6343 16.4533C2.64779 16.4533 2.65882 16.4577 2.65882 16.463C2.65882 16.4684 2.66676 16.4728 2.67647 16.4728C2.68618 16.4728 2.69412 16.4772 2.69412 16.4826C2.69412 16.4879 2.70603 16.4923 2.72059 16.4923C2.73515 16.4923 2.74706 16.4967 2.74706 16.5021C2.74706 16.5075 2.755 16.5119 2.76471 16.5119C2.77441 16.5119 2.78235 16.5162 2.78235 16.5216C2.78235 16.527 2.79824 16.5314 2.81765 16.5314C2.83706 16.5314 2.85294 16.5358 2.85294 16.5411C2.85294 16.5465 2.86485 16.5509 2.87941 16.5509C2.89397 16.5509 2.90588 16.5553 2.90588 16.5607C2.90588 16.566 2.91382 16.5704 2.92353 16.5704C2.93324 16.5704 2.94118 16.5748 2.94118 16.5802C2.94118 16.5856 2.96103 16.59 2.98529 16.59C3.00956 16.59 3.02941 16.5944 3.02941 16.5997C3.02941 16.6051 3.04529 16.6095 3.06471 16.6095C3.08412 16.6095 3.1 16.6139 3.1 16.6192C3.1 16.6246 3.11588 16.629 3.13529 16.629C3.15471 16.629 3.17059 16.6334 3.17059 16.6388C3.17059 16.6441 3.19044 16.6485 3.21471 16.6485C3.23897 16.6485 3.25882 16.6529 3.25882 16.6583C3.25882 16.6639 3.28529 16.6681 3.32059 16.6681C3.35588 16.6681 3.38235 16.6723 3.38235 16.6778C3.38235 16.6834 3.40882 16.6876 3.44412 16.6876C3.47941 16.6876 3.50588 16.6918 3.50588 16.6974C3.50588 16.7029 3.53235 16.7071 3.56765 16.7071C3.60294 16.7071 3.62941 16.7113 3.62941 16.7169C3.62941 16.7226 3.65882 16.7266 3.7 16.7266C3.74118 16.7266 3.77059 16.7307 3.77059 16.7364C3.77059 16.7423 3.80588 16.7462 3.85882 16.7462C3.91176 16.7462 3.94706 16.7501 3.94706 16.7559C3.94706 16.7618 3.98235 16.7657 4.03529 16.7657C4.08823 16.7657 4.12353 16.7696 4.12353 16.7755C4.12353 16.7811 4.15294 16.7852 4.19412 16.7852C4.2353 16.7852 4.26471 16.7893 4.26471 16.795C4.26471 16.801 4.30858 16.8047 4.37868 16.8047C4.46122 16.8047 4.49406 16.8081 4.4978 16.8169C4.50191 16.8267 4.50397 16.8267 4.50809 16.8169C4.51419 16.8025 4.54706 16.8004 4.54706 16.8145C4.54706 16.8205 4.59411 16.8243 4.67059 16.8243C4.74706 16.8243 4.79412 16.828 4.79412 16.834C4.79412 16.8399 4.83235 16.8438 4.89118 16.8438C4.95 16.8438 4.98823 16.8476 4.98823 16.8536C4.98823 16.8597 5.04411 16.8633 5.13823 16.8633C5.23236 16.8633 5.28823 16.867 5.28823 16.8731C5.28823 16.8793 5.35588 16.8828 5.47353 16.8828C5.59117 16.8828 5.65882 16.8864 5.65882 16.8926C5.65882 16.8988 5.72941 16.9024 5.85294 16.9024C5.97647 16.9024 6.04706 16.9059 6.04706 16.9121C6.04706 16.9183 6.10882 16.9219 6.21471 16.9219C6.32059 16.9219 6.38235 16.9255 6.38235 16.9317C6.38235 16.937 6.4022 16.9414 6.42647 16.9414C6.45073 16.9414 6.47059 16.937 6.47059 16.9317C6.47059 16.9263 6.47853 16.9219 6.48823 16.9219C6.49794 16.9219 6.50588 16.9263 6.50588 16.9317C6.50588 16.938 6.60588 16.9414 6.78823 16.9414C6.97059 16.9414 7.07059 16.9449 7.07059 16.9512C7.07059 16.9575 7.2 16.9609 7.44118 16.9609C7.68235 16.9609 7.81176 16.9644 7.81176 16.9707C7.81176 16.977 7.92941 16.9805 8.14706 16.9805C8.36471 16.9805 8.48235 16.9839 8.48235 16.9902C8.48235 16.9967 8.99412 17 10 17C11.0059 17 11.5176 16.9967 11.5176 16.9902C11.5176 16.9839 11.6353 16.9805 11.8529 16.9805C12.0706 16.9805 12.1882 16.977 12.1882 16.9707C12.1882 16.9644 12.3176 16.9609 12.5588 16.9609C12.8 16.9609 12.9294 16.9575 12.9294 16.9512C12.9294 16.9449 13.0294 16.9414 13.2118 16.9414C13.3941 16.9414 13.4941 16.938 13.4941 16.9317C13.4941 16.9263 13.5021 16.9219 13.5118 16.9219C13.5215 16.9219 13.5294 16.9263 13.5294 16.9317C13.5294 16.937 13.5493 16.9414 13.5735 16.9414C13.5978 16.9414 13.6176 16.937 13.6176 16.9317C13.6176 16.9255 13.6794 16.9219 13.7853 16.9219C13.8912 16.9219 13.9529 16.9183 13.9529 16.9121C13.9529 16.9059 14.0235 16.9024 14.1471 16.9024C14.2706 16.9024 14.3412 16.8988 14.3412 16.8926C14.3412 16.8864 14.4088 16.8828 14.5265 16.8828C14.6441 16.8828 14.7118 16.8793 14.7118 16.8731C14.7118 16.867 14.7676 16.8633 14.8618 16.8633C14.9559 16.8633 15.0118 16.8597 15.0118 16.8536C15.0118 16.8476 15.05 16.8438 15.1088 16.8438C15.1676 16.8438 15.2059 16.8399 15.2059 16.834C15.2059 16.828 15.2529 16.8243 15.3294 16.8243C15.4059 16.8243 15.4529 16.8205 15.4529 16.8145C15.4529 16.8004 15.4858 16.8025 15.4919 16.8169C15.496 16.8267 15.4981 16.8267 15.5022 16.8169C15.5059 16.8081 15.5388 16.8047 15.6213 16.8047C15.6914 16.8047 15.7353 16.801 15.7353 16.795C15.7353 16.7893 15.7647 16.7852 15.8059 16.7852C15.8471 16.7852 15.8765 16.7811 15.8765 16.7755C15.8765 16.7696 15.9118 16.7657 15.9647 16.7657C16.0176 16.7657 16.0529 16.7618 16.0529 16.7559C16.0529 16.7501 16.0882 16.7462 16.1412 16.7462C16.1941 16.7462 16.2294 16.7423 16.2294 16.7364C16.2294 16.7307 16.2588 16.7266 16.3 16.7266C16.3412 16.7266 16.3706 16.7226 16.3706 16.7169C16.3706 16.7113 16.3971 16.7071 16.4324 16.7071C16.4676 16.7071 16.4941 16.7029 16.4941 16.6974C16.4941 16.6918 16.5206 16.6876 16.5559 16.6876C16.5912 16.6876 16.6176 16.6834 16.6176 16.6778C16.6176 16.6723 16.6441 16.6681 16.6794 16.6681C16.7147 16.6681 16.7412 16.6639 16.7412 16.6583C16.7412 16.6529 16.761 16.6485 16.7853 16.6485C16.8096 16.6485 16.8294 16.6441 16.8294 16.6388C16.8294 16.6334 16.8453 16.629 16.8647 16.629C16.8841 16.629 16.9 16.6246 16.9 16.6192C16.9 16.6139 16.9159 16.6095 16.9353 16.6095C16.9547 16.6095 16.9706 16.6051 16.9706 16.5997C16.9706 16.5944 16.9904 16.59 17.0147 16.59C17.039 16.59 17.0588 16.5856 17.0588 16.5802C17.0588 16.5748 17.0668 16.5704 17.0765 16.5704C17.0862 16.5704 17.0941 16.566 17.0941 16.5607C17.0941 16.5553 17.106 16.5509 17.1206 16.5509C17.1351 16.5509 17.1471 16.5465 17.1471 16.5411C17.1471 16.5358 17.1629 16.5314 17.1824 16.5314C17.2018 16.5314 17.2176 16.527 17.2176 16.5216C17.2176 16.5162 17.2256 16.5119 17.2353 16.5119C17.245 16.5119 17.2529 16.5075 17.2529 16.5021C17.2529 16.4967 17.2649 16.4923 17.2794 16.4923C17.294 16.4923 17.3059 16.4879 17.3059 16.4826C17.3059 16.4772 17.3138 16.4728 17.3235 16.4728C17.3332 16.4728 17.3412 16.4684 17.3412 16.463C17.3412 16.4577 17.3522 16.4533 17.3657 16.4533C17.3801 16.4533 17.3955 16.4452 17.4029 16.4338C17.4099 16.423 17.4227 16.4142 17.4314 16.4142C17.44 16.4142 17.4471 16.4098 17.4471 16.4045C17.4471 16.3991 17.4581 16.3947 17.4716 16.3947C17.486 16.3947 17.5013 16.3866 17.5088 16.3752C17.5158 16.3644 17.5286 16.3556 17.5372 16.3556C17.5459 16.3556 17.5529 16.3513 17.5529 16.3459C17.5529 16.3405 17.5609 16.3361 17.5706 16.3361C17.5803 16.3361 17.5882 16.3317 17.5882 16.3264C17.5882 16.321 17.5953 16.3166 17.6039 16.3166C17.6126 16.3166 17.6254 16.3078 17.6324 16.2971C17.6393 16.2863 17.6513 16.2775 17.6588 16.2775C17.6664 16.2775 17.6783 16.2688 17.6853 16.258C17.6923 16.2473 17.7035 16.2385 17.7102 16.2385C17.7169 16.2385 17.7335 16.2253 17.7471 16.2092C17.7607 16.1931 17.7765 16.1799 17.7824 16.1799C17.7882 16.1799 17.804 16.1667 17.8176 16.1506C17.8312 16.1345 17.8468 16.1213 17.8521 16.1213C17.8648 16.1213 18.1882 15.7636 18.1882 15.7496C18.1882 15.7438 18.2041 15.7222 18.2235 15.7015C18.2429 15.6809 18.2588 15.6581 18.2588 15.6508C18.2588 15.6435 18.2668 15.6312 18.2765 15.6234C18.2862 15.6157 18.2941 15.6025 18.2941 15.5941C18.2941 15.5858 18.3021 15.5726 18.3118 15.5649C18.3215 15.5571 18.3294 15.5439 18.3294 15.5356C18.3294 15.5272 18.3374 15.514 18.3471 15.5063C18.3568 15.4985 18.3647 15.4844 18.3647 15.4748C18.3647 15.4653 18.3687 15.4575 18.3735 15.4575C18.3784 15.4575 18.3824 15.4496 18.3824 15.4401C18.3824 15.4305 18.3903 15.4164 18.4 15.4086C18.4097 15.4009 18.4176 15.3868 18.4176 15.3772C18.4176 15.3677 18.4216 15.3598 18.4265 15.3598C18.4313 15.3598 18.4353 15.351 18.4353 15.3403C18.4353 15.3296 18.4393 15.3208 18.4441 15.3208C18.449 15.3208 18.4529 15.312 18.4529 15.3013C18.4529 15.2905 18.4569 15.2817 18.4618 15.2817C18.4666 15.2817 18.4706 15.2729 18.4706 15.2622C18.4706 15.2515 18.4746 15.2427 18.4794 15.2427C18.4843 15.2427 18.4882 15.2339 18.4882 15.2232C18.4882 15.2124 18.4922 15.2036 18.4971 15.2036C18.5019 15.2036 18.5059 15.1904 18.5059 15.1743C18.5059 15.1582 18.5099 15.1451 18.5147 15.1451C18.5196 15.1451 18.5235 15.1363 18.5235 15.1255C18.5235 15.1148 18.5275 15.106 18.5324 15.106C18.5372 15.106 18.5412 15.0928 18.5412 15.0767C18.5412 15.0606 18.5451 15.0474 18.55 15.0474C18.5548 15.0474 18.5588 15.0342 18.5588 15.0181C18.5588 15.002 18.5628 14.9888 18.5676 14.9888C18.5725 14.9888 18.5765 14.9757 18.5765 14.9596C18.5765 14.9434 18.5804 14.9303 18.5853 14.9303C18.5901 14.9303 18.5941 14.9215 18.5941 14.9107C18.5941 14.9 18.5981 14.8912 18.6029 14.8912C18.6078 14.8912 18.6118 14.8736 18.6118 14.8522C18.6118 14.8307 18.6157 14.8131 18.6206 14.8131C18.6254 14.8131 18.6294 14.7911 18.6294 14.7643C18.6294 14.7374 18.6334 14.7155 18.6382 14.7155C18.6431 14.7155 18.6471 14.6979 18.6471 14.6764C18.6471 14.655 18.651 14.6374 18.6559 14.6374C18.6607 14.6374 18.6647 14.6198 18.6647 14.5983C18.6647 14.5768 18.6687 14.5593 18.6735 14.5593C18.6784 14.5593 18.6824 14.5373 18.6824 14.5105C18.6824 14.4836 18.6863 14.4616 18.6912 14.4616C18.696 14.4616 18.7 14.4397 18.7 14.4128C18.7 14.386 18.704 14.364 18.7088 14.364C18.7137 14.364 18.7176 14.3421 18.7176 14.3152C18.7176 14.2884 18.7216 14.2664 18.7265 14.2664C18.7314 14.2664 18.7353 14.2404 18.7353 14.2078C18.7353 14.1753 18.7392 14.1492 18.7441 14.1492C18.7492 14.1492 18.7529 14.1199 18.7529 14.0809C18.7529 14.0418 18.7567 14.0126 18.7618 14.0126C18.7667 14.0126 18.7706 13.9865 18.7706 13.954C18.7706 13.9214 18.7745 13.8954 18.7794 13.8954C18.7844 13.8954 18.7882 13.8661 18.7882 13.8271C18.7882 13.788 18.792 13.7587 18.7971 13.7587C18.8023 13.7587 18.8059 13.7229 18.8059 13.6709C18.8059 13.6188 18.8095 13.583 18.8147 13.583C18.8199 13.583 18.8235 13.5472 18.8235 13.4951C18.8235 13.4431 18.8271 13.4073 18.8323 13.4073C18.8374 13.4073 18.8412 13.378 18.8412 13.3389C18.8412 13.2999 18.845 13.2706 18.85 13.2706C18.8553 13.2706 18.8588 13.2283 18.8588 13.1632C18.8588 13.0981 18.8623 13.0558 18.8676 13.0558C18.873 13.0558 18.8765 13.0135 18.8765 12.9484C18.8765 12.8833 18.8799 12.841 18.8853 12.841C18.8907 12.841 18.8941 12.7922 18.8941 12.7141C18.8941 12.636 18.8975 12.5872 18.9029 12.5872C18.9083 12.5872 18.9118 12.5451 18.9118 12.4806C18.9118 12.4049 18.915 12.3724 18.9228 12.3683C18.9316 12.3638 18.9316 12.3615 18.9228 12.3569C18.9097 12.3502 18.9079 12.3138 18.9206 12.3138C18.9261 12.3138 18.9294 12.2487 18.9294 12.1381C18.9294 12.0274 18.9327 11.9623 18.9382 11.9623C18.9438 11.9623 18.9471 11.8875 18.9471 11.7573C18.9471 11.6272 18.9503 11.5523 18.9559 11.5523C18.9615 11.5523 18.9647 11.484 18.9647 11.3668C18.9647 11.2497 18.968 11.1813 18.9735 11.1813C18.9793 11.1813 18.9824 11.0511 18.9824 10.8103C18.9824 10.5695 18.9854 10.4393 18.9912 10.4393C18.9969 10.4393 19 10.2864 19 10C19 9.71363 18.9969 9.56067 18.9912 9.56067C18.9854 9.56067 18.9824 9.4305 18.9824 9.18968C18.9824 8.94886 18.9793 8.81869 18.9735 8.81869C18.968 8.81869 18.9647 8.75035 18.9647 8.63319C18.9647 8.51604 18.9615 8.4477 18.9559 8.4477C18.9503 8.4477 18.9471 8.37285 18.9471 8.24268C18.9471 8.11251 18.9438 8.03766 18.9382 8.03766C18.9327 8.03766 18.9294 7.97257 18.9294 7.86193C18.9294 7.75128 18.9261 7.68619 18.9206 7.68619C18.9079 7.68619 18.9097 7.64983 18.9228 7.64307C18.9316 7.63852 18.9316 7.63624 18.9228 7.63169C18.915 7.62764 18.9118 7.59512 18.9118 7.51941C18.9118 7.45487 18.9083 7.41283 18.9029 7.41283C18.8975 7.41283 18.8941 7.36402 18.8941 7.28591C18.8941 7.20781 18.8907 7.159 18.8853 7.159C18.8799 7.159 18.8765 7.11669 18.8765 7.0516C18.8765 6.98652 18.873 6.94421 18.8676 6.94421C18.8623 6.94421 18.8588 6.90191 18.8588 6.83682C18.8588 6.77173 18.8553 6.72943 18.85 6.72943C18.845 6.72943 18.8412 6.70014 18.8412 6.66109C18.8412 6.62204 18.8374 6.59275 18.8323 6.59275C18.8271 6.59275 18.8235 6.55695 18.8235 6.50488C18.8235 6.45282 18.8199 6.41702 18.8147 6.41702C18.8095 6.41702 18.8059 6.38122 18.8059 6.32915C18.8059 6.27708 18.8023 6.24128 18.7971 6.24128C18.792 6.24128 18.7882 6.21199 18.7882 6.17294C18.7882 6.13389 18.7844 6.1046 18.7794 6.1046C18.7745 6.1046 18.7706 6.07857 18.7706 6.04603C18.7706 6.01349 18.7667 5.98745 18.7618 5.98745C18.7567 5.98745 18.7529 5.95816 18.7529 5.91911C18.7529 5.88006 18.7492 5.85077 18.7441 5.85077C18.7392 5.85077 18.7353 5.82473 18.7353 5.79219C18.7353 5.75965 18.7314 5.73361 18.7265 5.73361C18.7216 5.73361 18.7176 5.71165 18.7176 5.6848C18.7176 5.65795 18.7137 5.63598 18.7088 5.63598C18.704 5.63598 18.7 5.61402 18.7 5.58717C18.7 5.56032 18.696 5.53835 18.6912 5.53835C18.6863 5.53835 18.6824 5.51639 18.6824 5.48954C18.6824 5.46269 18.6784 5.44073 18.6735 5.44073C18.6687 5.44073 18.6647 5.42315 18.6647 5.40167C18.6647 5.3802 18.6607 5.36262 18.6559 5.36262C18.651 5.36262 18.6471 5.34505 18.6471 5.32357C18.6471 5.30209 18.6431 5.28452 18.6382 5.28452C18.6334 5.28452 18.6294 5.26255 18.6294 5.2357C18.6294 5.20886 18.6254 5.18689 18.6206 5.18689C18.6157 5.18689 18.6118 5.16932 18.6118 5.14784C18.6118 5.12636 18.6078 5.10879 18.6029 5.10879C18.5981 5.10879 18.5941 5.1 18.5941 5.08926C18.5941 5.07852 18.5901 5.06974 18.5853 5.06974C18.5804 5.06974 18.5765 5.05656 18.5765 5.04045C18.5765 5.02434 18.5725 5.01116 18.5676 5.01116C18.5628 5.01116 18.5588 4.99798 18.5588 4.98187C18.5588 4.96576 18.5548 4.95258 18.55 4.95258C18.5451 4.95258 18.5412 4.9394 18.5412 4.92329C18.5412 4.90718 18.5372 4.894 18.5324 4.894C18.5275 4.894 18.5235 4.88522 18.5235 4.87448C18.5235 4.86374 18.5196 4.85495 18.5147 4.85495C18.5099 4.85495 18.5059 4.84177 18.5059 4.82566C18.5059 4.80955 18.5019 4.79637 18.4971 4.79637C18.4922 4.79637 18.4882 4.78759 18.4882 4.77685C18.4882 4.76611 18.4843 4.75732 18.4794 4.75732C18.4746 4.75732 18.4706 4.74854 18.4706 4.7378C18.4706 4.72706 18.4666 4.71827 18.4618 4.71827C18.4569 4.71827 18.4529 4.70948 18.4529 4.69875C18.4529 4.68801 18.449 4.67922 18.4441 4.67922C18.4393 4.67922 18.4353 4.67043 18.4353 4.65969C18.4353 4.64895 18.4313 4.64017 18.4265 4.64017C18.4216 4.64017 18.4176 4.63235 18.4176 4.6228C18.4176 4.61324 18.4097 4.5991 18.4 4.59135C18.3903 4.58361 18.3824 4.56946 18.3824 4.55991C18.3824 4.55036 18.3784 4.54254 18.3735 4.54254C18.3687 4.54254 18.3647 4.53472 18.3647 4.52517C18.3647 4.51561 18.3568 4.50147 18.3471 4.49372C18.3374 4.48598 18.3294 4.4728 18.3294 4.46444C18.3294 4.45607 18.3215 4.44289 18.3118 4.43515C18.3021 4.4274 18.2941 4.41422 18.2941 4.40586C18.2941 4.39749 18.2862 4.38431 18.2765 4.37657C18.2668 4.36883 18.2588 4.35654 18.2588 4.34924C18.2588 4.34195 18.2429 4.3191 18.2235 4.29847C18.2041 4.27783 18.1882 4.25618 18.1882 4.25035C18.1882 4.23638 17.8648 3.87866 17.8521 3.87866C17.8468 3.87866 17.8312 3.86548 17.8176 3.84937C17.804 3.83326 17.7882 3.82008 17.7824 3.82008C17.7765 3.82008 17.7607 3.8069 17.7471 3.7908C17.7335 3.77469 17.7169 3.76151 17.7102 3.76151C17.7035 3.76151 17.6923 3.75272 17.6853 3.74198C17.6783 3.73124 17.6664 3.72245 17.6588 3.72245C17.6513 3.72245 17.6393 3.71367 17.6324 3.70293C17.6254 3.69219 17.6126 3.6834 17.6039 3.6834C17.5953 3.6834 17.5882 3.67901 17.5882 3.67364C17.5882 3.66827 17.5803 3.66388 17.5706 3.66388C17.5609 3.66388 17.5529 3.65948 17.5529 3.65411C17.5529 3.64874 17.5459 3.64435 17.5372 3.64435C17.5286 3.64435 17.5158 3.63556 17.5088 3.62483C17.5013 3.61336 17.486 3.6053 17.4716 3.6053C17.4581 3.6053 17.4471 3.60091 17.4471 3.59554C17.4471 3.59017 17.44 3.58577 17.4314 3.58577C17.4227 3.58577 17.4099 3.57699 17.4029 3.56625C17.3955 3.55479 17.3801 3.54672 17.3657 3.54672C17.3522 3.54672 17.3412 3.54233 17.3412 3.53696C17.3412 3.53159 17.3332 3.5272 17.3235 3.5272C17.3138 3.5272 17.3059 3.5228 17.3059 3.51743C17.3059 3.51206 17.294 3.50767 17.2794 3.50767C17.2649 3.50767 17.2529 3.50328 17.2529 3.49791C17.2529 3.49254 17.245 3.48815 17.2353 3.48815C17.2256 3.48815 17.2176 3.48375 17.2176 3.47838C17.2176 3.47301 17.2018 3.46862 17.1824 3.46862C17.1629 3.46862 17.1471 3.46423 17.1471 3.45886C17.1471 3.45349 17.1351 3.44909 17.1206 3.44909C17.106 3.44909 17.0941 3.4447 17.0941 3.43933C17.0941 3.43396 17.0862 3.42957 17.0765 3.42957C17.0668 3.42957 17.0588 3.42517 17.0588 3.4198C17.0588 3.41444 17.039 3.41004 17.0147 3.41004C16.9904 3.41004 16.9706 3.40565 16.9706 3.40028C16.9706 3.39491 16.9547 3.39052 16.9353 3.39052C16.9159 3.39052 16.9 3.38612 16.9 3.38075C16.9 3.37538 16.8841 3.37099 16.8647 3.37099C16.8453 3.37099 16.8294 3.3666 16.8294 3.36123C16.8294 3.35586 16.8096 3.35146 16.7853 3.35146C16.761 3.35146 16.7412 3.34707 16.7412 3.3417C16.7412 3.33613 16.7147 3.33194 16.6794 3.33194C16.6441 3.33194 16.6176 3.32775 16.6176 3.32218C16.6176 3.3166 16.5912 3.31241 16.5559 3.31241C16.5206 3.31241 16.4941 3.30822 16.4941 3.30265C16.4941 3.29708 16.4676 3.29289 16.4324 3.29289C16.3971 3.29289 16.3706 3.2887 16.3706 3.28312C16.3706 3.27743 16.3412 3.27336 16.3 3.27336C16.2588 3.27336 16.2294 3.26929 16.2294 3.2636C16.2294 3.25774 16.1941 3.25384 16.1412 3.25384C16.0882 3.25384 16.0529 3.24993 16.0529 3.24407C16.0529 3.23821 16.0176 3.23431 15.9647 3.23431C15.9118 3.23431 15.8765 3.2304 15.8765 3.22455C15.8765 3.21885 15.8471 3.21478 15.8059 3.21478C15.7647 3.21478 15.7353 3.21071 15.7353 3.20502C15.7353 3.19902 15.6914 3.19526 15.6213 3.19526C15.5388 3.19526 15.5059 3.19189 15.5022 3.18305C15.4981 3.17329 15.496 3.17329 15.4919 3.18305C15.4858 3.19753 15.4529 3.19958 15.4529 3.1855C15.4529 3.17945 15.4059 3.17573 15.3294 3.17573C15.2529 3.17573 15.2059 3.17201 15.2059 3.16597C15.2059 3.16005 15.1676 3.15621 15.1088 3.15621C15.05 3.15621 15.0118 3.15236 15.0118 3.14644C15.0118 3.14032 14.9559 3.13668 14.8618 3.13668C14.7676 3.13668 14.7118 3.13304 14.7118 3.12692C14.7118 3.12072 14.6441 3.11715 14.5265 3.11715C14.4088 3.11715 14.3412 3.11359 14.3412 3.10739C14.3412 3.10118 14.2706 3.09763 14.1471 3.09763C14.0235 3.09763 13.9529 3.09408 13.9529 3.08787C13.9529 3.0817 13.8912 3.0781 13.7853 3.0781C13.6794 3.0781 13.6176 3.07451 13.6176 3.06834C13.6176 3.06297 13.5978 3.05858 13.5735 3.05858C13.5493 3.05858 13.5294 3.06297 13.5294 3.06834C13.5294 3.07371 13.5215 3.0781 13.5118 3.0781C13.5021 3.0781 13.4941 3.07371 13.4941 3.06834C13.4941 3.06203 13.3941 3.05858 13.2118 3.05858C13.0294 3.05858 12.9294 3.05512 12.9294 3.04881C12.9294 3.04246 12.8 3.03905 12.5588 3.03905C12.3176 3.03905 12.1882 3.03564 12.1882 3.02929C12.1882 3.02295 12.0706 3.01953 11.8529 3.01953C11.6353 3.01953 11.5176 3.0161 11.5176 3.00976C11.5176 3.00329 11.0059 3 10 3C8.99412 3 8.48235 3.00329 8.48235 3.00976ZM8.20882 7.06137C8.21582 7.07211 8.22773 7.08089 8.23529 7.08089C8.24286 7.08089 8.25477 7.08968 8.26176 7.10042C8.26876 7.11116 8.28155 7.11994 8.29018 7.11994C8.29881 7.11994 8.30588 7.12434 8.30588 7.12971C8.30588 7.13508 8.31382 7.13947 8.32353 7.13947C8.33323 7.13947 8.34118 7.14386 8.34118 7.14923C8.34118 7.1546 8.34912 7.159 8.35882 7.159C8.36853 7.159 8.37647 7.16339 8.37647 7.16876C8.37647 7.17413 8.38354 7.17852 8.39217 7.17852C8.40081 7.17852 8.41359 7.18731 8.42059 7.19805C8.42758 7.20879 8.44037 7.21757 8.44901 7.21757C8.45764 7.21757 8.4647 7.22197 8.4647 7.22734C8.4647 7.23271 8.47265 7.2371 8.48235 7.2371C8.49206 7.2371 8.5 7.24149 8.5 7.24686C8.5 7.25223 8.50707 7.25663 8.5157 7.25663C8.52433 7.25663 8.53712 7.26541 8.54412 7.27615C8.55111 7.28689 8.5639 7.29568 8.57254 7.29568C8.58117 7.29568 8.58823 7.30007 8.58823 7.30544C8.58823 7.31081 8.59618 7.3152 8.60588 7.3152C8.61559 7.3152 8.62353 7.3196 8.62353 7.32497C8.62353 7.33034 8.6306 7.33473 8.63923 7.33473C8.64786 7.33473 8.66065 7.34351 8.66765 7.35425C8.67464 7.36499 8.68743 7.37378 8.69607 7.37378C8.7047 7.37378 8.71176 7.37817 8.71176 7.38354C8.71176 7.38891 8.71971 7.39331 8.72941 7.39331C8.73912 7.39331 8.74706 7.3977 8.74706 7.40307C8.74706 7.40844 8.75413 7.41283 8.76275 7.41283C8.77139 7.41283 8.78418 7.42162 8.79118 7.43236C8.79817 7.4431 8.81096 7.45188 8.8196 7.45188C8.82823 7.45188 8.83529 7.45628 8.83529 7.46165C8.83529 7.46702 8.84323 7.47141 8.85294 7.47141C8.86265 7.47141 8.87059 7.4758 8.87059 7.48117C8.87059 7.48654 8.87765 7.49093 8.88628 7.49093C8.89492 7.49093 8.90771 7.49972 8.91471 7.51046C8.9217 7.5212 8.93449 7.52999 8.94313 7.52999C8.95175 7.52999 8.95882 7.53438 8.95882 7.53975C8.95882 7.54512 8.96676 7.54951 8.97647 7.54951C8.98618 7.54951 8.99412 7.55391 8.99412 7.55928C8.99412 7.56464 9.00206 7.56904 9.01176 7.56904C9.02147 7.56904 9.02941 7.57343 9.02941 7.5788C9.02941 7.58417 9.03648 7.58856 9.04511 7.58856C9.05375 7.58856 9.06653 7.59735 9.07353 7.60809C9.08053 7.61883 9.09331 7.62762 9.10195 7.62762C9.11058 7.62762 9.11765 7.63201 9.11765 7.63738C9.11765 7.64275 9.12559 7.64714 9.13529 7.64714C9.145 7.64714 9.15294 7.65153 9.15294 7.6569C9.15294 7.66227 9.16001 7.66667 9.16864 7.66667C9.17728 7.66667 9.19006 7.67545 9.19706 7.68619C9.20405 7.69693 9.21684 7.70572 9.22548 7.70572C9.23411 7.70572 9.24118 7.71011 9.24118 7.71548C9.24118 7.72085 9.24912 7.72524 9.25882 7.72524C9.26853 7.72524 9.27647 7.72964 9.27647 7.73501C9.27647 7.74038 9.28354 7.74477 9.29217 7.74477C9.3008 7.74477 9.31359 7.75356 9.32059 7.7643C9.32758 7.77504 9.34037 7.78382 9.34901 7.78382C9.35764 7.78382 9.36471 7.78822 9.36471 7.79358C9.36471 7.79895 9.37265 7.80335 9.38235 7.80335C9.39206 7.80335 9.4 7.80774 9.4 7.81311C9.4 7.81848 9.40707 7.82287 9.4157 7.82287C9.42433 7.82287 9.43712 7.83166 9.44412 7.8424C9.45111 7.85314 9.4639 7.86193 9.47254 7.86193C9.48117 7.86193 9.48823 7.86632 9.48823 7.87169C9.48823 7.87706 9.49618 7.88145 9.50588 7.88145C9.51559 7.88145 9.52353 7.88584 9.52353 7.89121C9.52353 7.89658 9.5306 7.90098 9.53922 7.90098C9.54786 7.90098 9.56065 7.90976 9.56765 7.9205C9.57464 7.93124 9.58743 7.94003 9.59607 7.94003C9.6047 7.94003 9.61176 7.94442 9.61176 7.94979C9.61176 7.95516 9.61971 7.95955 9.62941 7.95955C9.63912 7.95955 9.64706 7.96395 9.64706 7.96932C9.64706 7.97469 9.65413 7.97908 9.66275 7.97908C9.67139 7.97908 9.68418 7.98787 9.69118 7.99861C9.69817 8.00935 9.71096 8.01813 9.7196 8.01813C9.72823 8.01813 9.73529 8.02252 9.73529 8.02789C9.73529 8.03326 9.74323 8.03766 9.75294 8.03766C9.76265 8.03766 9.77059 8.04205 9.77059 8.04742C9.77059 8.05279 9.77765 8.05718 9.78628 8.05718C9.79492 8.05718 9.80771 8.06597 9.8147 8.07671C9.8217 8.08745 9.83449 8.09623 9.84313 8.09623C9.85176 8.09623 9.85882 8.10063 9.85882 8.106C9.85882 8.11137 9.86676 8.11576 9.87647 8.11576C9.88618 8.11576 9.89412 8.12015 9.89412 8.12552C9.89412 8.13089 9.90206 8.13529 9.91176 8.13529C9.92147 8.13529 9.92941 8.13968 9.92941 8.14505C9.92941 8.15042 9.93648 8.15481 9.94511 8.15481C9.95375 8.15481 9.96653 8.1636 9.97353 8.17434C9.98053 8.18508 9.99331 8.19386 10.0019 8.19386C10.0106 8.19386 10.0176 8.19826 10.0176 8.20363C10.0176 8.209 10.0256 8.21339 10.0353 8.21339C10.045 8.21339 10.0529 8.21778 10.0529 8.22315C10.0529 8.22852 10.06 8.23292 10.0686 8.23292C10.0773 8.23292 10.0901 8.2417 10.0971 8.25244C10.1041 8.26318 10.1168 8.27197 10.1255 8.27197C10.1341 8.27197 10.1412 8.27636 10.1412 8.28173C10.1412 8.2871 10.1491 8.29149 10.1588 8.29149C10.1685 8.29149 10.1765 8.29589 10.1765 8.30126C10.1765 8.30663 10.1835 8.31102 10.1922 8.31102C10.2008 8.31102 10.2136 8.31981 10.2206 8.33054C10.2276 8.34128 10.2404 8.35007 10.249 8.35007C10.2576 8.35007 10.2647 8.35446 10.2647 8.35983C10.2647 8.3652 10.2726 8.3696 10.2824 8.3696C10.2921 8.3696 10.3 8.37399 10.3 8.37936C10.3 8.38473 10.3071 8.38912 10.3157 8.38912C10.3243 8.38912 10.3371 8.39791 10.3441 8.40865C10.3511 8.41939 10.3639 8.42817 10.3725 8.42817C10.3812 8.42817 10.3882 8.43257 10.3882 8.43794C10.3882 8.44331 10.3953 8.4477 10.4039 8.4477C10.4126 8.4477 10.4254 8.45649 10.4324 8.46723C10.4393 8.47796 10.4521 8.48675 10.4608 8.48675C10.4694 8.48675 10.4765 8.49114 10.4765 8.49651C10.4765 8.50188 10.4844 8.50628 10.4941 8.50628C10.5038 8.50628 10.5118 8.51067 10.5118 8.51604C10.5118 8.52141 10.5197 8.5258 10.5294 8.5258C10.5391 8.5258 10.5471 8.5302 10.5471 8.53557C10.5471 8.54094 10.5541 8.54533 10.5628 8.54533C10.5714 8.54533 10.5842 8.55411 10.5912 8.56485C10.5982 8.57559 10.611 8.58438 10.6196 8.58438C10.6282 8.58438 10.6353 8.58877 10.6353 8.59414C10.6353 8.59951 10.6432 8.60391 10.6529 8.60391C10.6626 8.60391 10.6706 8.6083 10.6706 8.61367C10.6706 8.61904 10.6785 8.62343 10.6882 8.62343C10.6979 8.62343 10.7059 8.62783 10.7059 8.63319C10.7059 8.63856 10.7129 8.64296 10.7216 8.64296C10.7302 8.64296 10.743 8.65174 10.75 8.66248C10.757 8.67322 10.7698 8.68201 10.7784 8.68201C10.787 8.68201 10.7941 8.6864 10.7941 8.69177C10.7941 8.69714 10.8021 8.70154 10.8118 8.70154C10.8215 8.70154 10.8294 8.70593 10.8294 8.7113C10.8294 8.71667 10.8365 8.72106 10.8451 8.72106C10.8537 8.72106 10.8665 8.72985 10.8735 8.74059C10.8805 8.75133 10.8933 8.76011 10.9019 8.76011C10.9106 8.76011 10.9176 8.76451 10.9176 8.76988C10.9176 8.77524 10.9256 8.77964 10.9353 8.77964C10.945 8.77964 10.9529 8.78403 10.9529 8.7894C10.9529 8.79477 10.96 8.79916 10.9686 8.79916C10.9773 8.79916 10.9901 8.80795 10.9971 8.81869C11.0041 8.82943 11.0168 8.83822 11.0255 8.83822C11.0341 8.83822 11.0412 8.84261 11.0412 8.84798C11.0412 8.85335 11.0491 8.85774 11.0588 8.85774C11.0685 8.85774 11.0765 8.86213 11.0765 8.8675C11.0765 8.87287 11.0835 8.87727 11.0922 8.87727C11.1008 8.87727 11.1136 8.88605 11.1206 8.89679C11.1276 8.90753 11.1404 8.91632 11.149 8.91632C11.1576 8.91632 11.1647 8.92071 11.1647 8.92608C11.1647 8.93145 11.1718 8.93584 11.1804 8.93584C11.189 8.93584 11.2018 8.94463 11.2088 8.95537C11.2158 8.96611 11.2286 8.9749 11.2372 8.9749C11.2459 8.9749 11.2529 8.97929 11.2529 8.98466C11.2529 8.99003 11.2609 8.99442 11.2706 8.99442C11.2803 8.99442 11.2882 8.99882 11.2882 9.00418C11.2882 9.00955 11.2962 9.01395 11.3059 9.01395C11.3156 9.01395 11.3235 9.01834 11.3235 9.02371C11.3235 9.02908 11.3306 9.03347 11.3392 9.03347C11.3479 9.03347 11.3606 9.04226 11.3676 9.053C11.3746 9.06374 11.3874 9.07253 11.3961 9.07253C11.4047 9.07253 11.4118 9.07692 11.4118 9.08229C11.4118 9.08766 11.4197 9.09205 11.4294 9.09205C11.4391 9.09205 11.4471 9.09644 11.4471 9.10181C11.4471 9.10718 11.455 9.11158 11.4647 9.11158C11.4744 9.11158 11.4824 9.11597 11.4824 9.12134C11.4824 9.12671 11.4894 9.1311 11.498 9.1311C11.5067 9.1311 11.5195 9.13989 11.5265 9.15063C11.5335 9.16137 11.5463 9.17015 11.5549 9.17015C11.5635 9.17015 11.5706 9.17455 11.5706 9.17992C11.5706 9.18529 11.5785 9.18968 11.5882 9.18968C11.5979 9.18968 11.6059 9.19407 11.6059 9.19944C11.6059 9.20481 11.6129 9.20921 11.6216 9.20921C11.6302 9.20921 11.643 9.21799 11.65 9.22873C11.657 9.23947 11.6698 9.24826 11.6784 9.24826C11.687 9.24826 11.6941 9.25265 11.6941 9.25802C11.6941 9.26339 11.7021 9.26778 11.7118 9.26778C11.7215 9.26778 11.7294 9.27218 11.7294 9.27755C11.7294 9.28292 11.7365 9.28731 11.7451 9.28731C11.7537 9.28731 11.7665 9.2961 11.7735 9.30683C11.7805 9.31757 11.7933 9.32636 11.8019 9.32636C11.8106 9.32636 11.8176 9.33075 11.8176 9.33612C11.8176 9.34149 11.8256 9.34589 11.8353 9.34589C11.845 9.34589 11.8529 9.35028 11.8529 9.35565C11.8529 9.36102 11.86 9.36541 11.8686 9.36541C11.8773 9.36541 11.8901 9.3742 11.8971 9.38494C11.9041 9.39568 11.9168 9.40446 11.9255 9.40446C11.9341 9.40446 11.9412 9.40886 11.9412 9.41423C11.9412 9.4196 11.9491 9.42399 11.9588 9.42399C11.9685 9.42399 11.9765 9.42838 11.9765 9.43375C11.9765 9.43912 11.9835 9.44352 11.9922 9.44352C12.0008 9.44352 12.0136 9.4523 12.0206 9.46304C12.0276 9.47378 12.0404 9.48257 12.049 9.48257C12.0576 9.48257 12.0647 9.48696 12.0647 9.49233C12.0647 9.4977 12.0726 9.50209 12.0824 9.50209C12.0921 9.50209 12.1 9.50649 12.1 9.51186C12.1 9.51723 12.1071 9.52162 12.1157 9.52162C12.1243 9.52162 12.1371 9.53041 12.1441 9.54114C12.1511 9.55188 12.1639 9.56067 12.1725 9.56067C12.1812 9.56067 12.1882 9.56506 12.1882 9.57043C12.1882 9.5758 12.1962 9.5802 12.2059 9.5802C12.2156 9.5802 12.2235 9.58459 12.2235 9.58996C12.2235 9.59533 12.2315 9.59972 12.2412 9.59972C12.2509 9.59972 12.2588 9.60412 12.2588 9.60948C12.2588 9.61485 12.2659 9.61925 12.2745 9.61925C12.2832 9.61925 12.2959 9.62803 12.3029 9.63877C12.3099 9.64951 12.3227 9.6583 12.3314 9.6583C12.34 9.6583 12.3471 9.66269 12.3471 9.66806C12.3471 9.67343 12.355 9.67782 12.3647 9.67782C12.3744 9.67782 12.3824 9.68222 12.3824 9.68759C12.3824 9.69296 12.3894 9.69735 12.398 9.69735C12.4067 9.69735 12.4195 9.70614 12.4265 9.71688C12.4335 9.72762 12.4463 9.7364 12.4549 9.7364C12.4635 9.7364 12.4706 9.7408 12.4706 9.74617C12.4706 9.75153 12.4785 9.75593 12.4882 9.75593C12.4979 9.75593 12.5059 9.76032 12.5059 9.76569C12.5059 9.77106 12.5129 9.77545 12.5216 9.77545C12.5302 9.77545 12.543 9.78424 12.55 9.79498C12.557 9.80572 12.5698 9.81451 12.5784 9.81451C12.587 9.81451 12.5941 9.8189 12.5941 9.82427C12.5941 9.82964 12.6012 9.83403 12.6098 9.83403C12.6185 9.83403 12.6312 9.84282 12.6382 9.85356C12.6452 9.8643 12.658 9.87308 12.6667 9.87308C12.6753 9.87308 12.6824 9.87748 12.6824 9.88285C12.6824 9.88822 12.6903 9.89261 12.7 9.89261C12.7097 9.89261 12.7176 9.897 12.7176 9.90237C12.7176 9.90774 12.7256 9.91213 12.7353 9.91213C12.745 9.91213 12.7529 9.91653 12.7529 9.9219C12.7529 9.92727 12.76 9.93166 12.7686 9.93166C12.7773 9.93166 12.7901 9.94045 12.7971 9.95119C12.8041 9.96193 12.8151 9.97071 12.8217 9.97071C12.8282 9.97071 12.8396 9.9773 12.8468 9.98536C12.8586 9.99837 12.8586 10.0016 12.8468 10.0146C12.8396 10.0227 12.8282 10.0293 12.8217 10.0293C12.8151 10.0293 12.8041 10.0381 12.7971 10.0488C12.7901 10.0596 12.7773 10.0683 12.7686 10.0683C12.76 10.0683 12.7529 10.0727 12.7529 10.0781C12.7529 10.0835 12.745 10.0879 12.7353 10.0879C12.7256 10.0879 12.7176 10.0923 12.7176 10.0976C12.7176 10.103 12.7106 10.1074 12.7019 10.1074C12.6933 10.1074 12.6805 10.1162 12.6735 10.1269C12.6665 10.1377 12.6537 10.1464 12.6451 10.1464C12.6365 10.1464 12.6294 10.1508 12.6294 10.1562C12.6294 10.1616 12.6215 10.166 12.6118 10.166C12.6021 10.166 12.5941 10.1704 12.5941 10.1757C12.5941 10.1811 12.587 10.1855 12.5784 10.1855C12.5698 10.1855 12.557 10.1943 12.55 10.205C12.543 10.2158 12.5302 10.2245 12.5216 10.2245C12.5129 10.2245 12.5059 10.2289 12.5059 10.2343C12.5059 10.2397 12.4979 10.2441 12.4882 10.2441C12.4785 10.2441 12.4706 10.2485 12.4706 10.2538C12.4706 10.2592 12.4635 10.2636 12.4549 10.2636C12.4463 10.2636 12.4335 10.2724 12.4265 10.2831C12.4195 10.2939 12.4067 10.3027 12.398 10.3027C12.3894 10.3027 12.3824 10.307 12.3824 10.3124C12.3824 10.3178 12.3744 10.3222 12.3647 10.3222C12.355 10.3222 12.3471 10.3266 12.3471 10.3319C12.3471 10.3373 12.34 10.3417 12.3314 10.3417C12.3227 10.3417 12.3099 10.3505 12.3029 10.3612C12.2959 10.372 12.2832 10.3808 12.2745 10.3808C12.2659 10.3808 12.2588 10.3851 12.2588 10.3905C12.2588 10.3959 12.2509 10.4003 12.2412 10.4003C12.2315 10.4003 12.2235 10.4047 12.2235 10.41C12.2235 10.4154 12.2156 10.4198 12.2059 10.4198C12.1962 10.4198 12.1882 10.4242 12.1882 10.4296C12.1882 10.4349 12.1812 10.4393 12.1725 10.4393C12.1639 10.4393 12.1511 10.4481 12.1441 10.4589C12.1371 10.4696 12.1243 10.4784 12.1157 10.4784C12.1071 10.4784 12.1 10.4828 12.1 10.4881C12.1 10.4935 12.0921 10.4979 12.0824 10.4979C12.0726 10.4979 12.0647 10.5023 12.0647 10.5077C12.0647 10.513 12.0576 10.5174 12.049 10.5174C12.0404 10.5174 12.0276 10.5262 12.0206 10.537C12.0136 10.5477 12.0008 10.5565 11.9922 10.5565C11.9835 10.5565 11.9765 10.5609 11.9765 10.5662C11.9765 10.5716 11.9685 10.576 11.9588 10.576C11.9491 10.576 11.9412 10.5804 11.9412 10.5858C11.9412 10.5911 11.9341 10.5955 11.9255 10.5955C11.9168 10.5955 11.9041 10.6043 11.8971 10.6151C11.8901 10.6258 11.8773 10.6346 11.8686 10.6346C11.86 10.6346 11.8529 10.639 11.8529 10.6444C11.8529 10.6497 11.845 10.6541 11.8353 10.6541C11.8256 10.6541 11.8176 10.6585 11.8176 10.6639C11.8176 10.6692 11.8106 10.6736 11.8019 10.6736C11.7933 10.6736 11.7805 10.6824 11.7735 10.6932C11.7665 10.7039 11.7537 10.7127 11.7451 10.7127C11.7365 10.7127 11.7294 10.7171 11.7294 10.7225C11.7294 10.7278 11.7215 10.7322 11.7118 10.7322C11.7021 10.7322 11.6941 10.7366 11.6941 10.742C11.6941 10.7474 11.687 10.7517 11.6784 10.7517C11.6698 10.7517 11.657 10.7605 11.65 10.7713C11.643 10.782 11.6302 10.7908 11.6216 10.7908C11.6129 10.7908 11.6059 10.7952 11.6059 10.8006C11.6059 10.8059 11.5979 10.8103 11.5882 10.8103C11.5785 10.8103 11.5706 10.8147 11.5706 10.8201C11.5706 10.8255 11.5635 10.8298 11.5549 10.8298C11.5463 10.8298 11.5335 10.8386 11.5265 10.8494C11.5195 10.8601 11.5067 10.8689 11.498 10.8689C11.4894 10.8689 11.4824 10.8733 11.4824 10.8787C11.4824 10.884 11.4744 10.8884 11.4647 10.8884C11.455 10.8884 11.4471 10.8928 11.4471 10.8982C11.4471 10.9036 11.4391 10.908 11.4294 10.908C11.4197 10.908 11.4118 10.9123 11.4118 10.9177C11.4118 10.9231 11.4047 10.9275 11.3961 10.9275C11.3874 10.9275 11.3746 10.9363 11.3676 10.947C11.3606 10.9577 11.3479 10.9665 11.3392 10.9665C11.3306 10.9665 11.3235 10.9709 11.3235 10.9763C11.3235 10.9817 11.3156 10.9861 11.3059 10.9861C11.2962 10.9861 11.2882 10.9904 11.2882 10.9958C11.2882 11.0012 11.2812 11.0056 11.2725 11.0056C11.2639 11.0056 11.2511 11.0144 11.2441 11.0251C11.2371 11.0358 11.2243 11.0446 11.2157 11.0446C11.2071 11.0446 11.2 11.049 11.2 11.0544C11.2 11.0598 11.1921 11.0642 11.1824 11.0642C11.1726 11.0642 11.1647 11.0686 11.1647 11.0739C11.1647 11.0793 11.1576 11.0837 11.149 11.0837C11.1404 11.0837 11.1276 11.0925 11.1206 11.1032C11.1136 11.1139 11.1008 11.1227 11.0922 11.1227C11.0835 11.1227 11.0765 11.1271 11.0765 11.1325C11.0765 11.1379 11.0685 11.1423 11.0588 11.1423C11.0491 11.1423 11.0412 11.1467 11.0412 11.152C11.0412 11.1574 11.0341 11.1618 11.0255 11.1618C11.0168 11.1618 11.0041 11.1706 10.9971 11.1813C10.9901 11.1921 10.9773 11.2008 10.9686 11.2008C10.96 11.2008 10.9529 11.2052 10.9529 11.2106C10.9529 11.216 10.945 11.2204 10.9353 11.2204C10.9256 11.2204 10.9176 11.2248 10.9176 11.2301C10.9176 11.2355 10.9106 11.2399 10.9019 11.2399C10.8933 11.2399 10.8805 11.2487 10.8735 11.2594C10.8665 11.2702 10.8537 11.2789 10.8451 11.2789C10.8365 11.2789 10.8294 11.2833 10.8294 11.2887C10.8294 11.2941 10.8215 11.2985 10.8118 11.2985C10.8021 11.2985 10.7941 11.3029 10.7941 11.3082C10.7941 11.3136 10.787 11.318 10.7784 11.318C10.7698 11.318 10.757 11.3268 10.75 11.3375C10.743 11.3483 10.7302 11.357 10.7216 11.357C10.7129 11.357 10.7059 11.3614 10.7059 11.3668C10.7059 11.3722 10.6979 11.3766 10.6882 11.3766C10.6785 11.3766 10.6706 11.381 10.6706 11.3863C10.6706 11.3917 10.6626 11.3961 10.6529 11.3961C10.6432 11.3961 10.6353 11.4005 10.6353 11.4059C10.6353 11.4112 10.6282 11.4156 10.6196 11.4156C10.611 11.4156 10.5982 11.4244 10.5912 11.4351C10.5842 11.4459 10.5714 11.4547 10.5628 11.4547C10.5541 11.4547 10.5471 11.4591 10.5471 11.4644C10.5471 11.4698 10.5391 11.4742 10.5294 11.4742C10.5197 11.4742 10.5118 11.4786 10.5118 11.484C10.5118 11.4893 10.5038 11.4937 10.4941 11.4937C10.4844 11.4937 10.4765 11.4981 10.4765 11.5035C10.4765 11.5089 10.4694 11.5133 10.4608 11.5133C10.4521 11.5133 10.4393 11.522 10.4324 11.5328C10.4254 11.5435 10.4126 11.5523 10.4039 11.5523C10.3953 11.5523 10.3882 11.5567 10.3882 11.5621C10.3882 11.5674 10.3812 11.5718 10.3725 11.5718C10.3639 11.5718 10.3511 11.5806 10.3441 11.5914C10.3371 11.6021 10.3243 11.6109 10.3157 11.6109C10.3071 11.6109 10.3 11.6153 10.3 11.6206C10.3 11.626 10.2921 11.6304 10.2824 11.6304C10.2726 11.6304 10.2647 11.6348 10.2647 11.6402C10.2647 11.6455 10.2576 11.6499 10.249 11.6499C10.2404 11.6499 10.2276 11.6587 10.2206 11.6695C10.2136 11.6802 10.2008 11.689 10.1922 11.689C10.1835 11.689 10.1765 11.6934 10.1765 11.6987C10.1765 11.7041 10.1685 11.7085 10.1588 11.7085C10.1491 11.7085 10.1412 11.7129 10.1412 11.7183C10.1412 11.7236 10.1341 11.728 10.1255 11.728C10.1168 11.728 10.1041 11.7368 10.0971 11.7476C10.0901 11.7583 10.0773 11.7671 10.0686 11.7671C10.06 11.7671 10.0529 11.7715 10.0529 11.7768C10.0529 11.7822 10.045 11.7866 10.0353 11.7866C10.0256 11.7866 10.0176 11.791 10.0176 11.7964C10.0176 11.8017 10.0106 11.8061 10.0019 11.8061C9.99331 11.8061 9.98053 11.8149 9.97353 11.8257C9.96653 11.8364 9.95375 11.8452 9.94511 11.8452C9.93648 11.8452 9.92941 11.8496 9.92941 11.855C9.92941 11.8603 9.92147 11.8647 9.91176 11.8647C9.90206 11.8647 9.89412 11.8691 9.89412 11.8745C9.89412 11.8798 9.88618 11.8842 9.87647 11.8842C9.86676 11.8842 9.85882 11.8886 9.85882 11.894C9.85882 11.8994 9.85176 11.9038 9.84313 11.9038C9.83449 11.9038 9.8217 11.9126 9.8147 11.9233C9.80771 11.934 9.79492 11.9428 9.78628 11.9428C9.77765 11.9428 9.77059 11.9472 9.77059 11.9526C9.77059 11.958 9.76265 11.9623 9.75294 11.9623C9.74323 11.9623 9.73529 11.9667 9.73529 11.9721C9.73529 11.9775 9.72823 11.9819 9.7196 11.9819C9.71096 11.9819 9.69817 11.9907 9.69118 12.0014C9.68418 12.0121 9.67139 12.0209 9.66275 12.0209C9.65413 12.0209 9.64706 12.0253 9.64706 12.0307C9.64706 12.0361 9.63912 12.0404 9.62941 12.0404C9.61971 12.0404 9.61176 12.0448 9.61176 12.0502C9.61176 12.0556 9.6047 12.06 9.59607 12.06C9.58743 12.06 9.57464 12.0688 9.56765 12.0795C9.56065 12.0902 9.54786 12.099 9.53922 12.099C9.5306 12.099 9.52353 12.1034 9.52353 12.1088C9.52353 12.1142 9.51559 12.1186 9.50588 12.1186C9.49618 12.1186 9.48823 12.1229 9.48823 12.1283C9.48823 12.1337 9.48117 12.1381 9.47254 12.1381C9.4639 12.1381 9.45111 12.1469 9.44412 12.1576C9.43712 12.1683 9.42433 12.1771 9.4157 12.1771C9.40707 12.1771 9.4 12.1815 9.4 12.1869C9.4 12.1923 9.39206 12.1967 9.38235 12.1967C9.37265 12.1967 9.36471 12.201 9.36471 12.2064C9.36471 12.2118 9.35764 12.2162 9.34901 12.2162C9.34037 12.2162 9.32758 12.225 9.32059 12.2357C9.31359 12.2464 9.3008 12.2552 9.29217 12.2552C9.28354 12.2552 9.27647 12.2596 9.27647 12.265C9.27647 12.2704 9.26853 12.2748 9.25882 12.2748C9.24912 12.2748 9.24118 12.2792 9.24118 12.2845C9.24118 12.2899 9.23411 12.2943 9.22548 12.2943C9.21684 12.2943 9.20405 12.3031 9.19706 12.3138C9.19006 12.3245 9.17728 12.3333 9.16864 12.3333C9.16001 12.3333 9.15294 12.3377 9.15294 12.3431C9.15294 12.3485 9.145 12.3529 9.13529 12.3529C9.12559 12.3529 9.11765 12.3573 9.11765 12.3626C9.11765 12.368 9.11058 12.3724 9.10195 12.3724C9.09331 12.3724 9.08053 12.3812 9.07353 12.3919C9.06653 12.4027 9.05375 12.4114 9.04511 12.4114C9.03648 12.4114 9.02941 12.4158 9.02941 12.4212C9.02941 12.4266 9.02147 12.431 9.01176 12.431C9.00206 12.431 8.99412 12.4354 8.99412 12.4407C8.99412 12.4461 8.98618 12.4505 8.97647 12.4505C8.96676 12.4505 8.95882 12.4549 8.95882 12.4603C8.95882 12.4656 8.95175 12.47 8.94313 12.47C8.93449 12.47 8.9217 12.4788 8.91471 12.4895C8.90771 12.5003 8.89492 12.5091 8.88628 12.5091C8.87765 12.5091 8.87059 12.5135 8.87059 12.5188C8.87059 12.5242 8.86265 12.5286 8.85294 12.5286C8.84323 12.5286 8.83529 12.533 8.83529 12.5384C8.83529 12.5437 8.82823 12.5481 8.8196 12.5481C8.81096 12.5481 8.79817 12.5569 8.79118 12.5676C8.78418 12.5784 8.77139 12.5872 8.76275 12.5872C8.75413 12.5872 8.74706 12.5916 8.74706 12.5969C8.74706 12.6023 8.73912 12.6067 8.72941 12.6067C8.71971 12.6067 8.71176 12.6111 8.71176 12.6165C8.71176 12.6218 8.7047 12.6262 8.69607 12.6262C8.68743 12.6262 8.67464 12.635 8.66765 12.6457C8.66065 12.6565 8.64786 12.6653 8.63923 12.6653C8.6306 12.6653 8.62353 12.6697 8.62353 12.675C8.62353 12.6804 8.61559 12.6848 8.60588 12.6848C8.59618 12.6848 8.58823 12.6892 8.58823 12.6946C8.58823 12.6999 8.58117 12.7043 8.57254 12.7043C8.5639 12.7043 8.55111 12.7131 8.54412 12.7239C8.53712 12.7346 8.52433 12.7434 8.5157 12.7434C8.50707 12.7434 8.5 12.7478 8.5 12.7531C8.5 12.7585 8.49206 12.7629 8.48235 12.7629C8.47265 12.7629 8.4647 12.7673 8.4647 12.7727C8.4647 12.778 8.45764 12.7824 8.44901 12.7824C8.44037 12.7824 8.42758 12.7912 8.42059 12.802C8.41359 12.8127 8.40081 12.8215 8.39217 12.8215C8.38354 12.8215 8.37647 12.8259 8.37647 12.8312C8.37647 12.8366 8.36853 12.841 8.35882 12.841C8.34912 12.841 8.34118 12.8454 8.34118 12.8508C8.34118 12.8561 8.33323 12.8605 8.32353 12.8605C8.31382 12.8605 8.30588 12.8649 8.30588 12.8703C8.30588 12.8757 8.29881 12.8801 8.29018 12.8801C8.28155 12.8801 8.26876 12.8888 8.26176 12.8996C8.25477 12.9103 8.24286 12.9191 8.23529 12.9191C8.22773 12.9191 8.21582 12.9279 8.20882 12.9386C8.20183 12.9494 8.18904 12.9582 8.1804 12.9582C8.16539 12.9582 8.16471 12.8293 8.16471 10C8.16471 7.17069 8.16539 7.04184 8.1804 7.04184C8.18904 7.04184 8.20183 7.05063 8.20882 7.06137Z" fill="white" fill-opacity="0.5"/>
</svg>
